<svg xmlns="http://www.w3.org/2000/svg">
<defs>
<font id="UTMAlbertaHeavy" horiz-adv-x="1368" >
  <font-face 
    font-family="UTM Alberta Heavy"
    font-weight="400"
    font-stretch="normal"
    units-per-em="2048"
    panose-1="2 4 6 3 5 5 6 2 2 4"
    ascent="1638"
    descent="-410"
    x-height="1018"
    cap-height="1475"
    bbox="-110 -457 4942 2264"
    underline-thickness="109"
    underline-position="-143"
    unicode-range="U+0020-U+2026"
  />
<missing-glyph horiz-adv-x="5040" 
d="M3351 2045h10c24.667 -6.66699 37 -24 37 -52c0 -8 -10.667 -27 -32 -57h-28c0 16 9.33301 34 28 54l2 10c-3.33301 8.66699 -6.66602 13.667 -10 15h-9c-5.33301 0 -8.66602 -6.33301 -10 -19h-30c4 32.667 18 49 42 49zM2019 2016l29.001 -31
c0 -10.667 -13.333 -20.667 -40 -30h-19l-59 12l-11 -12l-28 25c7.33301 19.333 21.666 29 42.999 29h11l42 -11h2c6.66699 0 16.667 6 30 18zM468.001 1980h142v-60h-94v-75h89v-59h-89v-129l-5 -5h-49v323zM1155 1980h43l6 -5v-78h30v-52h-30v-188l-6 -5h-49v193h-25v52
h25v78zM1621 1980h41.999l4 -5v-94h3c15.333 16 33.333 24 54 24h2c38.667 0 66.334 -23.667 83.001 -71l2 -39v-143h-52v115c0 53.333 -14 80 -42 80h-7c-28.667 0 -43 -28.667 -43 -86v-109h-51v323zM2200 1980l49 -0.000976562l5 -5v-222c6.66699 -34 21.667 -51 45 -51
c29.333 4.66699 44 24.334 44 59.001v214l5 5h49v-216c0 -56.667 -22 -94 -66 -112c-10 -5.33301 -21.667 -8 -35 -8c-31.333 0 -58.666 18.333 -82 55c-9.33301 16 -14 35 -14 57v224zM2435 1980h159v-60h-56v-268h-53v268h-55v55zM2621 1980l71 0.000976562
c4.66699 -2.66699 32.334 -86.334 83 -251.001h2l80 251h73v-328h-54v242h-2l-74 -242h-44c-2.66699 0 -22 60.667 -58 182l-19 60h-3v-242h-55v328zM3760 1980l52 -0.000976562v-328h-45l-5 5v11l3 2l-3 14c-19.333 -26.667 -45.333 -40 -78 -40
c-44.667 0 -78 30.333 -100 91l-5 39v3c0 62.667 30.667 104.334 92 125.001l23 3c23.333 0 44.333 -10.667 63 -32h3v107zM2057 1928l36 0.00195312l4 -6v-49h-45v-221h-48v23c-15.333 -20.667 -35 -31 -59 -31c-59.333 9.33301 -89 41.666 -89 96.999v156h51v-104

<glyph glyph-name=".notdef" horiz-adv-x="5040" 
d="M3351 2045h10c24.667 -6.66699 37 -24 37 -52c0 -8 -10.667 -27 -32 -57h-28c0 16 9.33301 34 28 54l2 10c-3.33301 8.66699 -6.66602 13.667 -10 15h-9c-5.33301 0 -8.66602 -6.33301 -10 -19h-30c4 32.667 18 49 42 49zM2019 2016l29.001 -31
c0 -10.667 -13.333 -20.667 -40 -30h-19l-59 12l-11 -12l-28 25c7.33301 19.333 21.666 29 42.999 29h11l42 -11h2c6.66699 0 16.667 6 30 18zM468.001 1980h142v-60h-94v-75h89v-59h-89v-129l-5 -5h-49v323zM1155 1980h43l6 -5v-78h30v-52h-30v-188l-6 -5h-49v193h-25v52
h25v78zM1621 1980h41.999l4 -5v-94h3c15.333 16 33.333 24 54 24h2c38.667 0 66.334 -23.667 83.001 -71l2 -39v-143h-52v115c0 53.333 -14 80 -42 80h-7c-28.667 0 -43 -28.667 -43 -86v-109h-51v323zM2200 1980l49 -0.000976562l5 -5v-222c6.66699 -34 21.667 -51 45 -51
c29.333 4.66699 44 24.334 44 59.001v214l5 5h49v-216c0 -56.667 -22 -94 -66 -112c-10 -5.33301 -21.667 -8 -35 -8c-31.333 0 -58.666 18.333 -82 55c-9.33301 16 -14 35 -14 57v224zM2435 1980h159v-60h-56v-268h-53v268h-55v55zM2621 1980l71 0.000976562
c4.66699 -2.66699 32.334 -86.334 83 -251.001h2l80 251h73v-328h-54v242h-2l-74 -242h-44c-2.66699 0 -22 60.667 -58 182l-19 60h-3v-242h-55v328zM3760 1980l52 -0.000976562v-328h-45l-5 5v11l3 2l-3 14c-19.333 -26.667 -45.333 -40 -78 -40
c-44.667 0 -78 30.333 -100 91l-5 39v3c0 62.667 30.667 104.334 92 125.001l23 3c23.333 0 44.333 -10.667 63 -32h3v107zM2057 1928l36 0.00195312l4 -6v-49h-45v-221h-48v23c-15.333 -20.667 -35 -31 -59 -31c-59.333 9.33301 -89 41.666 -89 96.999v156h51v-104
c0 -52.667 8.66699 -81.334 26 -86.001l18 -5h6c17.333 0 30.333 12 39 36l3 26v133h53v25zM3476 1928v-55h-31v-221h-47v25h-2c-10 -22 -29 -33 -57 -33c-45.333 0 -74 26 -86 78l-3 29v146h52v-120c0 -33.333 6.33301 -56 19 -68l21 -7h9c28 0 42 23 42 69v126h27
c2.66699 0 4 9.33301 4 28l3 3h49zM758 1905c45.333 0 79.667 -25.667 103 -77c6 -12 10 -30 12 -54c0 -58.667 -30 -101 -90 -127l-32 -3c-42 0 -75.667 24.333 -101 73c-8 14.667 -12 32 -12 52v10c0 62.667 33.667 104.667 101 126h19zM1011 1905h3
c49.333 0 77 -33.667 83 -101v-152h-51v119c0 50.667 -14 76 -42 76h-5c-29.333 0 -44 -25.333 -44 -76v-119h-52v245h46v-21c20 19.333 40.667 29 62 29zM1466 1905l7 -0.000976562c48 0 83 -29.667 105 -89h-60c-10.667 20.667 -24.667 31 -42 31h-17
c-35.333 -9.33301 -53 -29.666 -53 -60.999l-3 -15c8 -46 28.333 -69 61 -69h9c14.667 0 30.334 9 47.001 27h40l2 3h3l2 -3l2 3l3 -3l2 3l2 -7c-22 -54 -58.667 -81 -110 -81c-50.667 0 -87.334 31.333 -110.001 94l-4 36v3c0 56.667 25.667 96.667 77 120
c10 5.33301 22.333 8 37 8zM3141 1905h1.99902c32.667 0 56 -20 70 -60v-14h-52c0 10.667 -5.33301 16 -16 16h-4c-9.33301 0 -15.666 -4.33301 -18.999 -13v-13c0 -6 22.667 -17.667 68 -35c20 -12.667 30 -32.334 30 -59.001c0 -38.667 -20.333 -65.334 -61 -80.001
l-23 -3c-50.667 8 -76 35.667 -76 83h54c0 -13.333 9 -21.666 27 -24.999h4c12.667 0 20.667 7.66699 24 23c0 14.667 -22.667 29.334 -68 44.001c-22.667 18 -34 37.667 -34 59c0 44 24.667 69.667 74 77zM4203 1905c36.666 0 62.333 -21 77 -63
c4.66602 -12 7 -33.667 7 -65v-125h-52v112c0 55.333 -13.334 83 -40 83h-11c-22 0 -35.334 -18 -40 -54v-141h-52v5h-2l2 2v238h47v-21c16.666 19.333 38 29 64 29zM4432 1905h5c26.666 0 49.666 -13.333 69 -40v18l-3 3l3 11h47v-208c0 -64.667 -28.334 -108.667 -85 -132
l-33 -4h-7c-46.666 0 -81.333 26.667 -104 80h59c16 -14.667 31 -22.334 45 -23.001h13c14.666 0 29 7.33301 43 22c10 8.66699 17.334 26 22 52h-3c-21.334 -26.667 -45.667 -40 -73 -40c-38 0 -70 23.333 -96 70c-6.66602 12 -11.333 33 -14 63
c0 58.667 29 100.334 87 125.001zM3851 1897l53 -0.000976562v-136c4 -39.333 17.333 -59 40 -59h7c30.667 0 46 31 46 93v102h51v-245h-47l-3 10h3l-3 3v5l3 2v3h-4c0 -15.333 -19 -25.666 -57 -30.999h-3c-39.333 0 -67.333 25 -84 75l-2 85v93zM690 1771
c6.66699 -46 27.6689 -69 63.002 -69h7c39.333 9.33301 59 31 59 65v15c-8.66699 43.333 -28.334 65 -59.001 65h-5c-38.667 0 -60.334 -25.333 -65.001 -76zM3630 1774c8.66699 -48 29 -72 61 -72h5c38.667 0 60.667 25 66 75c0 32.667 -17 56 -51 70h-22
c-24.667 0 -43.334 -19 -56 -57zM4374 1774c5.33398 -48 27 -71.999 65 -71.999h5c39.334 8 59 32 59 72c0 40.667 -19.666 65 -59 73h-14c-37.334 -10.667 -56 -31.334 -56 -62.001v-11zM3928 1620h52v-57h-52v57zM1054 1402c28.667 -7.33301 43 -23.667 43 -49v-4
c0 -11.333 -10.667 -31.333 -32 -60h-28c0 16.667 10.333 35.667 31 57v7c0 8 -2.33301 13 -7 15h-12c-6.66699 -2.66699 -10 -9 -10 -19h-28v6c0 21.333 11 36 33 44zM3349 1339c61.333 0 107.333 -33.001 138 -99.001h-60c-24.667 28 -51.334 42 -80 42
c-36.667 0 -65.667 -22.667 -87 -68c-6.66699 -14.667 -10 -30.334 -10 -47.001c0 -52 27 -88.667 81 -110l18 -1c24 0 49 13 75 39h61c-29.333 -64.667 -75.333 -97 -138 -97c-62 0 -109 37.333 -141 112c-6.66699 20.667 -10 41.334 -10 62.001
c0 64.667 30 115.334 90 152.001c19.333 10 40.333 15 63 15zM3664 1339c38 0 72.333 -15.666 103 -46.999c30.667 -34 46 -72.333 46 -115v-20c0 -59.333 -30.333 -108 -91 -146c-22 -8.66699 -43 -13 -63 -13c-59.333 0 -105.333 33.667 -138 101
c-8.66699 22 -13 42 -13 60v18c0 65.333 32.667 115.666 98 150.999c19.333 7.33301 38.666 11 58 11zM2261 1337h2l47 -11h3c7.33301 0 16 3.66699 26 11l18 -36c-12 -12.667 -23.667 -19 -35 -19h-3l-54 10l-20 -7l-20 36c12 10.667 24 16 36 16zM716.002 1334h19
c78.667 0 121.667 -8.66699 129 -26c16.667 -17.333 25 -38 25 -62c-6.66699 -38 -16.667 -57 -30 -57v-6c31.333 -15.333 47 -37.333 47 -66v-18c0 -42 -23 -71.333 -69 -88l-54 -5h-67v328zM2550 1334h53v-217c4 -40.667 19 -61 45 -61c19.333 0 34 13 44 39l3 30v203l4 6
h45l5 -6v-171c0 -78.667 -13.333 -123 -40 -133c-16 -17.333 -37.333 -26 -64 -26c-36.667 0 -67 25.333 -91 76l-4 54v206zM2805 1334h59c2.66699 0 43.334 -79 122 -237h4v237h50l4 -6v-322h-58c-19.333 32 -61 111.333 -125 238h-3v-238h-53v328zM3101 1334h54v-328h-54
v328zM3859 1334l8 0.000976562c103.333 0 161.333 -13.333 174 -40c15.333 -7.33301 31 -32.333 47 -75l4 -36v-11l3 -2c0 -62.667 -27.333 -112.334 -82 -149.001c-23.333 -10 -56.333 -15 -99 -15h-55v328zM4141 1334h153v-60h-103v-75h101v-57h-101v-74l4 -5h99v-57h-157
v322zM3563 1175v-10c0 -50.667 26.333 -86.667 79 -108l19 -1c45.333 0 77.333 28.667 96 86l3 20v15c0 40.667 -20 72 -60 94c-8 5.33301 -21 9 -39 11c-44 0 -76 -27.667 -96 -83zM770.002 1274v-67h9c36 0 54 9.33301 54 28l3 14c-7.33301 16.667 -17 25 -29 25h-37z
M3912 1274v-206.001l2 -3v-2c69.333 0 110 25.333 122 76l2 15v29c0 22.667 -10.667 45.334 -32 68.001c-16.667 15.333 -42.667 23 -78 23h-16zM1041 1259h5c25.333 0 49 -13.333 71 -40v32h49v-245h-49v32c-24 -26.667 -50.667 -40 -80 -40c-50 0 -83.667 32.333 -101 97
l-5 36c0 59.333 28.333 101 85 125zM1314 1259h3c49.333 0 77 -34 83 -102v-151h-51v128c0 44.667 -14 67 -42 67h-10c-22.667 0 -35.667 -20.667 -39 -62v-133h-52v245h47v-21c18.667 19.333 39 29 61 29zM1543 1259h5c30 0 53.667 -13.333 71 -40v32h47v-219
c0 -63.333 -34.667 -105.333 -104 -126h-16c-49.333 0 -85.333 27.333 -108 82h59c17.333 -16.667 32 -25 44 -25h14c34.667 0 56 25.667 64 77c-22 -28 -47.333 -42 -76 -42c-40 0 -73.667 27 -101 81l-7 44v16c0 52.667 28.333 91.667 85 117zM1912 1259l2 0.000976562
c28.667 0 49 -12.333 61 -37h2c21.333 24.667 44.333 37 69 37h4c38 0 64.333 -18.333 79 -55c5.33301 -16.667 8 -31.667 8 -45v-153h-52v138c0 29.333 -7.66699 47.666 -23 54.999l-12 2h-15c-21.333 0 -33.333 -21.667 -36 -65v-130h-52v136c0 39.333 -14.333 59 -43 59
h-8c-21.333 0 -33.333 -19 -36 -57v-138h-54v245h50v-21h2c4 16 22 25.667 54 29zM2282 1259c31.333 0 56.333 -14 75 -42v34h47v-245h-47v32c-24 -26.667 -50 -40 -78 -40c-49.333 0 -83.333 30.667 -102 92l-6 41c0 60 28.333 101.667 85 125zM985.002 1117
c0 -32 20.333 -52.333 61 -61h4c30 0 50.667 15.333 62 46l3 15v22c-8 41.333 -27 62 -57 62h-14c-27.333 0 -47 -19 -59 -57v-27zM1487 1128c0 -32 14.332 -54.667 42.999 -68l18 -4h5c31.333 0 52.333 19 63 57v23c-7.33301 43.333 -26.666 65 -57.999 65h-12
c-33.333 0 -53 -24.333 -59 -73zM2225 1131v-14.001c10 -40.667 29 -61 57 -61h14c38.667 8 58 29.333 58 64v11c0 30 -12.333 51.667 -37 65l-18 5h-10c-42.667 -5.33301 -64 -28.666 -64 -69.999zM770.001 1150v-82c0 -3.33301 2.33301 -5 7 -5c51.333 0 77 15 77 45
c0 22.667 -15.667 36.667 -47 42h-37zM2966 752.999l24 -28l-51 -55c-12 8 -21 16.667 -27 26zM1524 726.999l85 -54c0 -10 -7 -24 -21 -42l-87 54c12 27.333 19.667 41.333 23 42zM2850 692.999h38l55 -60h-54l-21 26l-23 -26h-54c36 40 55.667 60 59 60zM3422 692.999h40
l56 -60h-54l-24 26h-1c0 -3.33301 -6.33301 -12 -19 -26h-54zM622.001 684.999l52 0.00195312c5.33301 -2.66699 21 -48.334 47 -137.001l34 -110c6 5.33301 17.333 38.666 34 99.999l48 147h54v-2l-112 -326h-44zM1159 685.001h51v-54h-51v54zM1354 685.001h46l6 -5v-323
h-52v328zM2317 685.001h45l4 -5v-78h31v-52h-31v-193h-53v193h-26v52h26v78zM2425 685.001h52v-98h2c15.333 15.333 33.333 23 54 23h3c38 0 65 -23.667 81 -71l3 -38v-144h-52v115c0 54 -13 81 -39 81h-10c-28 0 -42 -29 -42 -87v-109h-52v328zM2664 685.001h52v-54h-52v54
zM3028 685.001h44l6 -5v-78h29v-52h-29v-193h-54v193h-27v52h27v78zM3234 685.001h52v-328h-52v328zM3957 685.001h52v-328h-52v328zM4316 685.001h51v-54h-51v54zM1555 610.001h5c55.333 0 92 -34 110 -102l3 -23v-11c0 -55.333 -28.333 -95.333 -85 -120l-35 -5
c-50.667 0 -87.667 32.333 -111 97l-4 32c0 64.667 31 108 93 130zM1811 610.001h4c35.333 0 61.333 -20 78 -60c4.66699 -16.667 7 -43.667 7 -81v-112h-54v146c-4.66699 33.333 -17 50 -37 50h-10c-25.333 0 -39.333 -19 -42 -57v-139h-54v245h49v-21
c17.333 19.333 37 29 59 29zM2046 610.001h4.00098c30 0 51 -13 63 -39h3v31h49v-206c0 -68 -29.667 -113 -89 -135l-28 -3h-5c-48.667 0 -84 27 -106 81h52l37 -20l15 -3h14c33.333 0 53.666 24 60.999 72c-22 -26 -46.333 -39 -73 -39c-41.333 0 -74 25.333 -98 76
c-7.33301 15.333 -11.333 35.333 -12 60c0 56.667 28.667 97.667 86 123zM2866 610.001l2 -0.000976562c54.667 0 91.667 -34.667 111 -104l2 -25l-2 -27h-172c10 -30 25 -45 45 -45l14 -3c19.333 0 35.666 7.33301 49 22h57v-3c-23.333 -50.667 -59.333 -76 -108 -76
c-51.333 0 -88.333 32.333 -111 97l-1 28v8c0 32.667 10.667 62.334 32 89.001c22.667 26 50 39 82 39zM3429 610h5c27.333 0 50.666 -13 70 -39h2v31h47v-245h-47v31h-2c-23.333 -26 -49 -39 -77 -39c-47.333 0 -81 29.667 -101 89l-5 36v14c0 57.333 28 97.333 84 120z
M3711 610l7 -0.000976562c58.667 0 94.334 -42.667 107 -128l-2 -1v-15c0 -43.333 -22 -78.666 -66 -105.999c-14 -7.33301 -29.333 -11 -46 -11c-22.667 0 -44 10.667 -64 32v-99l-5 -5h-49v325h49v-28c20.667 24 43.667 36 69 36zM4151 609.999
c29.334 0 54.334 -13 75 -39v31h49v-245h-49v31c-23.334 -26 -49 -39 -77 -39c-61.333 0 -97.333 44 -108 132c0 56 24.333 96.333 73 121c10 5.33301 22.334 8 37 8zM922.002 601.999h50v-136c2 -40 16 -60 42 -60h5c29.333 0 44 29 44 87v109h52v-245h-47v24h-5
c0 -15.333 -18.667 -26 -56 -32h-3c-36.667 0 -64 22.667 -82 68c-2.66699 23.333 -4 56.333 -4 99v81zM1159 601.999h51v-245h-51v245zM2664 601.999h52v-245h-52v245zM4316 601.999h51v-245h-51v245zM1492 487.999v-15.999c8.66699 -44 28.334 -66 59.001 -66h4
c39.333 0 61.333 25.333 66 76c-8.66699 47.333 -28.334 71 -59.001 71h-11c-39.333 -10.667 -59 -32.334 -59 -65.001zM1987 472c10 -44 29.667 -66 59 -66h11c32 0 51.667 25 59 75v1c-8.66699 47.333 -28.334 71 -59 71h-14c-26 0 -44.667 -19 -56 -57v-24zM2805 506h122
v2c-10.667 30 -30.334 45 -59 45h-7c-23.333 0 -42 -15.667 -56 -47zM3373 474c8.66699 -45.333 29 -68 61 -68h5c34.667 0 56.334 21 65 63v12c-6.66699 48 -25.667 72 -57 72h-16c-37.333 -9.33301 -56 -30.333 -56 -63zM3642 478c8 -48 28.333 -72.001 61 -72.001h3
c33.333 0 55 20 65 60v22c0 28.667 -16.333 50.334 -49 65.001h-22c-31.333 0 -50.666 -24 -58 -72v-3zM4095 471.999c6.66602 -44 28.666 -66 66 -66c28.666 0 49 16 61 48l2 15v16c0 36 -17.334 58.667 -52 68h-18c-28 0 -47.666 -20 -59 -60v-21zM3416 320.999h51v-52
h-51v52zM4137 320.999h51v-52h-51v52zM2733 132.999h4c23.333 0 37.666 -16.667 43 -50v-2c0 -10.667 -8 -24.334 -24 -41.001l-10 -17h-28c0 16.667 9.33301 35.334 28 56.001l3 2v2c-2 12.667 -5 19 -9 19h-10c-5.33301 0 -8.33301 -6.33301 -9 -19h-30
c4 33.333 18 50 42 50zM1546 115.999l52 -60l-26 -19l-52 52zM352.002 78.999h4c50 -32 78.333 -52 85 -60l-20 -37c-58.667 32.667 -88 52 -88 58zM3490 78.999l86 -58l-18 -39c-6.66699 0 -37 18.333 -91 55c10 24 17.667 38 23 42zM4578 75.999l19 -42l-91 -52l-20 39
l92 58v-3zM1204 52.999h51v-19l5 -5h14v-36h-14l-5 -5v-279h-46v31c-22.667 -26.667 -49.667 -40 -81 -40c-48 0 -82 35 -102 105l-3 26c0 68 33.667 111.667 101 131h14c22 0 44 -11 66 -33v59l-6 5h-43v36h49v24zM1480 44.999h40l56 -61h-53l-23 27l-23 -27h-53z
M2641 44.999h33c8 0 29 -20.333 63 -61h-54l-23 27c-12.667 -14 -19 -23 -19 -27h-58v4zM49.002 36.999h160v-60h-56v-268h-50l-4 5v245l2 3v2l-2 2l2 3l-2 2l2 3l-2 3h-54v54zM699.002 36.999h47v-73l2 -2l-2 -3v-3l2 -2l-2 -3v-3l2 -2v-2l-2 -3l2 -3h3
c11.333 16 28.333 24 51 24h3c35.333 0 61 -19.333 77 -58c4.66699 -11.333 7 -25.333 7 -42v-153h-52v127c0 45.333 -13.333 68 -40 68h-8c-28.667 0 -43 -28.667 -43 -86v-109h-52v322zM1297 36.999h47l5 -6v-49h-52v55zM1987 36.999h52v-198l70 115h62l-78 -118l90 -125
v-2h-70c-6.66699 14.667 -31.334 53 -74 115v-115h-52v328zM2271 36.999v-98.999c16 16 33.667 24 53 24c38 0 64.667 -18.667 80 -56c6.66699 -12.667 10 -38.334 10 -77.001v-120h-54v133c0 41.333 -13.667 62 -41 62h-11c-20.667 0 -33 -18.333 -37 -55v-140h-53v314
l-1 3v3l1 2l-1 3l1 3h53zM2458 37h51v-55h-51v55zM3148 37h51v-108c18 22 40.667 33 68 33h3c50 0 85 -31.333 105 -94l5 -37c0 -50 -21.333 -90 -64 -120c-20 -7.33301 -36.333 -11 -49 -11c-27.333 0 -51.333 13.333 -72 40v-31h-47v328zM4275 37h52v-99h2
c15.334 16 33.334 24 54 24h3c40 0 67.334 -24.667 82 -74l2 -41v-138h-52v111c0 54.667 -10.666 82 -32 82l-10 2h-12c-24.666 0 -37 -26.667 -37 -80v-115h-52v328zM329.002 -38h3v-58h-5c-28 0 -42 -19 -42 -57v-138h-53v245h47v-21c12 19.333 28.667 29 50 29z
M564.002 -38c47.333 0 75.999 -29 85.999 -87v-166h-51v136c-4 39.333 -17.667 59 -41 59h-6c-30 0 -45 -28 -45 -84v-111h-52v245h50v-21c16.667 19.333 36.334 29 59.001 29zM1504 -38c48 0 83 -31.333 105 -94l5 -39c-1.33301 -16 -3.66602 -24 -6.99902 -24h-169
c11.333 -31.333 32 -47 62 -47c16 0 32 7 48 21h57c-22 -52.667 -58 -79 -108 -79c-54.667 0 -92.334 35 -113.001 105v37c0 54 29.667 93 89 117zM2657 -38h5c51.333 0 87 -32.333 107 -97l3 -26v-21l-3 -13h-170c12 -31.333 29.667 -47 53 -47h12c14 0 28 7 42 21h59
c-22.667 -52.667 -57.667 -79 -105 -79c-56 0 -94.333 34 -115 102l-2 29c0 62 30.333 104.667 91 128zM2915 -38h3.99902c36 0 62 -20 78 -60c4.66699 -16.667 7 -44 7 -82v-111h-54v138c0 32 -11.667 51 -35 57h-11c-25.333 0 -39.666 -19 -42.999 -57v-138h-54v245h50
v-21c16.667 19.333 36 29 58 29zM3508 -38h6c26.667 0 50 -13.333 70 -40h2v32h47v-245h-47v31h-2c-22.667 -26.667 -48.667 -40 -78 -40c-47.333 0 -81 30 -101 90l-4 37v12c0 54.667 25.667 93.667 77 117c7.33301 4 17.333 6 30 6zM3781 -38h4
c41.333 0 68.666 -26 82 -78l3 -84v-91h-54v138c0 32 -12.667 51 -38 57h-9c-25.333 0 -39.333 -17.333 -42 -52v-143h-54v245h49v-21c17.333 19.333 37 29 59 29zM4133 -38h1c49.334 0 84 -31 104 -93l4 -40c0 -58.667 -28 -100.667 -84 -126l-25 -3
c-27.333 0 -50 11.333 -68 34v-106h-52v326h47v-29c20 24.667 44.334 37 73 37zM4714 -38h5c22.666 0 43.666 -12.333 63 -37c18 24.667 41 37 69 37h6c37.334 0 63.667 -22 79 -66l6 -51v-136h-52v122c0 48.667 -13 73 -39 73h-7c-23.334 0 -37 -16.667 -41 -50v-140l-5 -5
h-48v140c0 28 -10.334 46.333 -31 55h-17c-26.666 0 -40 -25.667 -40 -77v-118h-51v245h47v-21c14.666 19.333 33.333 29 56 29zM359 -46h49l5 -6v-234l-5 -5h-49v245zM1297 -46h52v-245h-52v245zM1649 -46h52v-136c2.66699 -40 17 -60 43 -60h4c29.333 0 44 27 44 81v115
h52v-245h-47v24h-5c-8 -22 -27.667 -33 -59 -33c-34.667 0 -61 21 -79 63c-3.33301 8 -5 19.333 -5 34v157zM2458 -46h51v-245h-51v245zM4515 -46h51v-245h-51v245zM1077 -169c0 -35.333 16.999 -59.666 50.999 -72.999h12c36 0 58 22 66 66v10
c0 35.333 -18 58.666 -54 69.999h-17c-25.333 0 -44.666 -19 -57.999 -57v-16zM1438 -143h122.001c-12 31.333 -29.667 47 -53 47h-7c-28.667 0 -49.334 -14.667 -62.001 -44v-3zM2599 -143h122c-14 31.333 -32 47 -54 47h-7c-30.667 0 -51 -15.667 -61 -47zM3196 -158v-11
c6.66699 -48.667 27 -73 61 -73h5c42.667 5.33301 64 29 64 71v5c0 30 -12.667 51.667 -38 65l-18 5h-14c-40 -9.33301 -60 -30 -60 -62zM3452 -173c9.33301 -46 30 -69 62 -69h11c27.333 0 47 20 59 60v13c-5.33301 48.667 -24 73 -56 73h-17
c-31.333 0 -51 -24.333 -59 -73v-4zM4062 -158v-22c0 -31.333 19.667 -52 59 -62h9c33.334 0 53.667 25.333 61 76c-8.66602 46.667 -28 70 -58 70h-15c-37.333 -11.333 -56 -32 -56 -62z" />
    <glyph glyph-name="space" unicode=" " horiz-adv-x="593" 
 />
    <glyph glyph-name="exclam" unicode="!" horiz-adv-x="618" 
d="M530 1475c-10.667 -41.333 -18.001 -88 -22.001 -140s-6 -114.667 -6 -188v-70c0 -174.667 -13.667 -303.334 -41 -386.001s-78 -145 -152 -187c-73.333 42 -123.666 104.333 -150.999 187s-41 211.334 -41 386.001v70c0 65.333 -1 122 -3 170s-10.667 100.667 -26 158
h442zM456.999 319c39.333 -39.333 58.998 -87.666 58.998 -144.999c0 -56 -20.167 -103.833 -60.5 -143.5s-89.166 -59.5 -146.499 -59.5s-105.833 19.167 -145.5 57.5s-59.5 86.166 -59.5 143.499s19.833 106.5 59.5 147.5s88.834 61.5 147.501 61.5
c56 0 104.667 -20.667 146 -62z" />
    <glyph glyph-name="quotedbl" unicode="&#x22;" horiz-adv-x="872" 
d="M813 1475l-45 -517h-295l45 517h295zM399 1475l-45 -517h-295l45 517h295z" />
    <glyph glyph-name="numbersign" unicode="#" horiz-adv-x="1200" 
d="M1140 1061l-30 -148h-236l-76 -352h236l-31 -147h-235l-88 -414h-148l88 414h-178l-88 -414h-148l89 414h-236l31 147h237l74 352h-236l31 148h238l86 414h147l-86 -414h176l88 414h148l-88 -414h235zM727 913h-179l-73 -352h176z" />
    <glyph glyph-name="dollar" unicode="$" horiz-adv-x="1142" 
d="M1032 1047l-79.999 65.0039c-120 83.333 -224.333 125 -313 125c-97.333 0 -146 -33.333 -146 -100c0 -12.667 2.16699 -27.167 6.5 -43.5s12.666 -31 24.999 -44s33.5 -28.167 63.5 -45.5l125 -74c65.333 -38.667 113.333 -68.5 144 -89.5s59.667 -45.833 87 -74.5
c45.333 -48 79.833 -100.667 103.5 -158s35.5 -114 35.5 -170c0 -88.667 -25.833 -169.834 -77.5 -243.501s-125.5 -129.5 -221.5 -167.5c-13.333 -6 -29 -11.667 -47 -17s-34.333 -9.33301 -49 -12v-180h-225v168c-60 0 -116.667 4 -170 12s-107.333 22.333 -162 43v399
l61 -63c45.333 -40 94.333 -70.5 147 -91.5s100.667 -31.5 144 -31.5c11.333 0 23 1 35 3s21 3.66699 27 5c51.333 15.333 77 48.666 77 99.999c0 19.333 -3.66699 37.833 -11 55.5s-19.833 35.167 -37.5 52.5s-48.5 41 -92.5 71l-51 30
c-88.667 53.333 -154.167 98.166 -196.5 134.499s-79.833 79.833 -112.5 130.5c-22 34 -39.167 71.5 -51.5 112.5s-18.5 79.167 -18.5 114.5c0 87.333 27.333 166.166 82 236.499s131.667 120.5 231 150.5l99 20v134h225v-117c58.667 0 114.667 -5.16699 168 -15.5
s104.333 -26.5 153 -48.5z" />
    <glyph glyph-name="percent" unicode="%" horiz-adv-x="1814" 
d="M1755 354c0 -126.667 -34.168 -222.167 -102.501 -286.5s-172.166 -96.5 -311.499 -96.5c-274.667 0 -412 127.667 -412 383c0 126 34.167 221.333 102.5 286s171.5 97 309.5 97c276 0 414 -127.667 414 -383zM1681 1475l-1298 -1475h-250l1298 1475h250zM883.999 1120
c0 -125.333 -33.999 -220.5 -101.999 -285.5s-171 -97.5 -309 -97.5c-276 0 -414 127.667 -414 383c0 127.333 34.167 223 102.5 287s172.166 96 311.499 96c274 0 411 -127.667 411 -383zM1427 274l-0.000976562 160.001c-9.33301 105.333 -36.666 158 -81.999 158
c-8 0 -18.833 -2.33301 -32.5 -7s-25.334 -18.334 -35.001 -41.001s-16.5 -59.334 -20.5 -110.001l-4 -80l4 -80c9.33301 -104.667 36 -157 80 -157c9.33301 0 20.833 2.33301 34.5 7s25.334 18.334 35.001 41.001s16.5 59 20.5 109zM556.999 1040v159.999
c-10 105.333 -36.667 158 -80 158c-10 0 -21.833 -2.5 -35.5 -7.5s-25.167 -18.667 -34.5 -41s-16 -58.833 -20 -109.5l-4 -80l4 -80c9.33301 -104.667 36.666 -157 81.999 -157c8 0 18.833 2.33301 32.5 7s25.334 18.334 35.001 41.001s16.5 59 20.5 109z" />
    <glyph glyph-name="ampersand" unicode="&#x26;" horiz-adv-x="1794" 
d="M1765 274l-54.9971 -55.0039c-87.333 -79.333 -155.666 -136.666 -204.999 -171.999c-41.333 -30 -73.5 -48 -96.5 -54s-44.833 -9 -65.5 -9c-40.667 0 -82.334 23.667 -125.001 71l-43 47l-24 29l-23 29c-60 -60 -126.833 -104.667 -200.5 -134s-159.167 -44 -256.5 -44
c-52 0 -112.667 5.33301 -182 16c-40.667 5.33301 -84.334 16.333 -131.001 33c-94 32.667 -167 82.834 -219 150.501s-78 140.167 -78 217.5c0 68.667 19.667 134.334 59 197.001c56 88.667 130.667 149.334 224 182.001l-39 41c-70 82 -105 172.333 -105 271
c0 73.333 19.5 141.5 58.5 204.5s94.667 112.167 167 147.5s148.166 53 227.499 53c65.333 0 129.5 -11.333 192.5 -34s113.167 -59.167 150.5 -109.5s56 -106.166 56 -167.499c0 -42.667 -7.83301 -83.834 -23.5 -123.501s-40.5 -78.5 -74.5 -116.5l-36 -36.5
c-11.333 -11 -22.666 -21.167 -33.999 -30.5c82 -52 160.667 -106 236 -162l74 -58c18.667 33.333 35.667 69 51 107c39.333 99.333 59 207 59 323c-30 0 -61 -2.33301 -93 -7s-65 -11.667 -99 -21l2 47v33c0 32.667 -2 66.667 -6 102c96.667 -8 192 -12 286 -12
c122 0 237.333 6.66699 346 20l-4 -88l4 -100c-36.667 10.667 -70.667 18.5 -102 23.5s-64 7.5 -98 7.5c0 -80.667 -6.83301 -157.5 -20.5 -230.5s-36.167 -147.167 -67.5 -222.5c-10 -24.667 -21.167 -48.667 -33.5 -72l-40.5 -75c22 -18 42.333 -37.333 61 -58
c15.333 -16 34 -37 56 -63l32 -33c33.333 -26 64.666 -43.5 93.999 -52.5s67.666 -13.5 114.999 -13.5zM751.003 1083c10 24.667 15.001 47.999 15.001 69.999c0 46.667 -13 72.334 -39 77.001s-42 7 -48 7c-22.667 0 -40.834 -7.5 -54.501 -22.5s-20.5 -35.5 -20.5 -61.5
c0 -8 1.33301 -23.667 4 -47s21 -50 55 -80l29 -20c27.333 20 47 45.667 59 77zM944.004 316.995c-117.333 101.333 -248.667 191.668 -394 271.001l-18 -13c-46.667 -39.333 -70 -83 -70 -131c0 -48.667 24.667 -93.834 74 -135.501s115 -62.5 197 -62.5
c13.333 1.33301 23.333 2 30 2c68.667 6.66699 129 29.667 181 69z" />
    <glyph glyph-name="quotesingle" unicode="'" horiz-adv-x="458" 
d="M399 1475l-45 -517h-295l45 517h295z" />
    <glyph glyph-name="parenleft" unicode="(" horiz-adv-x="739" 
d="M710 -408c-24.667 -4 -42.498 -6.66797 -53.498 -8.00098s-28.167 -2 -51.5 -2c-146 0 -251 27.333 -315 82s-118.667 164 -164 328c-14.667 58.667 -27.167 138.834 -37.5 240.501s-15.5 219.5 -15.5 353.5c0 143.333 4.5 260.666 13.5 351.999s22.167 171.333 39.5 240
c45.333 164.667 99.666 274 162.999 328s168.666 81 315.999 81h64c19.333 -4 33 -6.66699 41 -8c-57.333 -18 -99.666 -60.333 -126.999 -127c-32.667 -79.333 -58.667 -216.666 -78 -411.999c-4 -42 -6.66699 -121 -8 -237s-2 -271 -2 -465
c0 -76.667 3.33301 -145.667 10 -207c20.667 -198 45.667 -333.167 75 -405.5s72.666 -116.833 129.999 -133.5z" />
    <glyph glyph-name="parenright" unicode=")" horiz-adv-x="739" 
d="M665 586c0 -142 -4.49805 -259.498 -13.498 -352.498s-22.167 -173.5 -39.5 -241.5c-45.333 -165.333 -99.666 -275 -162.999 -329s-169 -81 -317 -81c-13.333 0 -25.5 0.333008 -36.5 1s-33.5 3.66699 -67.5 9c57.333 16.667 99.666 59 126.999 127
c32.667 79.333 58.667 216.666 78 411.999c4 42.667 6.66699 121.667 8 237s2 269.666 2 462.999c0 75.333 -3.33301 145 -10 209c-20.667 196.667 -45.667 331.167 -75 403.5s-72.666 116.833 -129.999 133.5c15.333 4 31.166 6.66699 47.499 8s35.166 2 56.499 2
c148 0 253.667 -27 317 -81s117.666 -163.333 162.999 -328c14.667 -57.333 27.167 -137 37.5 -239s15.5 -219.667 15.5 -353z" />
    <glyph glyph-name="asterisk" unicode="*" horiz-adv-x="894" 
d="M850 1128l-88 -256l-238 140l68 -262h-293l59 264l-233 -131l-80 256l262 30l-203 168l209 158l131 -221l123 221l203 -145l-199 -170z" />
    <glyph glyph-name="plus" unicode="+" horiz-adv-x="1269" 
d="M1105 588h-330v-322h-297v322h-315v293h317v327h295v-327h330v-293z" />
    <glyph glyph-name="comma" unicode="," horiz-adv-x="641" 
d="M596 391c-22.667 -112 -63.667 -213.001 -123 -303.001c-28.667 -46.667 -62.667 -91.167 -102 -133.5s-81 -79.833 -125 -112.5h-305c38 26 68.667 52.667 92 80c62.667 67.333 108 126.833 136 178.5s42 100.167 42 145.5c0 40.667 -11.333 78 -34 112l-25 31
c39.333 -5.33301 76.5 -8.66602 111.5 -9.99902s75.5 -2 121.5 -2c30 0 62.5 1.33301 97.5 4s72.833 6 113.5 10z" />
    <glyph glyph-name="hyphen" unicode="-" horiz-adv-x="684" 
d="M639 362l-10.001 9c-14 9.33301 -34.667 14 -62 14h-446c-38.667 0 -64 -9.66699 -76 -29v357c16.667 -20.667 43.334 -31 80.001 -31h438c18 0 32.833 1 44.5 3s22.167 10 31.5 24v-347z" />
    <glyph glyph-name="hyphen" unicode="&#x2010;" horiz-adv-x="684" 
d="M639 362l-10.001 9c-14 9.33301 -34.667 14 -62 14h-446c-38.667 0 -64 -9.66699 -76 -29v357c16.667 -20.667 43.334 -31 80.001 -31h438c18 0 32.833 1 44.5 3s22.167 10 31.5 24v-347z" />
    <glyph glyph-name="period" unicode="." horiz-adv-x="497" 
d="M393 31c-39.333 -40 -87.667 -59.999 -145 -59.999c-56 0 -103.833 19.167 -143.5 57.5s-59.5 86.166 -59.5 143.499c0 56 19.833 104.5 59.5 145.5s87.5 61.5 143.5 61.5c54.667 0 102.5 -19.833 143.5 -59.5s61.5 -88.167 61.5 -145.5s-20 -105 -60 -143z" />
    <glyph glyph-name="slash" unicode="/" horiz-adv-x="1124" 
d="M1079 1475l-827 -1475h-207l825 1475h209z" />
    <glyph glyph-name="zero" unicode="0" horiz-adv-x="1271" 
d="M1192 1028c27.333 -124 41 -242 41 -354c0 -225.333 -57.333 -400 -172 -524c-106.667 -116.667 -248.667 -175 -426 -175c-190 0 -334 60.333 -432 181c-104 126.667 -156 320.334 -156 581.001c0 258 52 451.333 156 580c98 121.333 242 182 432 182
c154 0 276.5 -37.833 367.5 -113.5s154.167 -194.834 189.5 -357.501zM770 588l0.00390625 299.001c0 114.667 -10.333 202 -31 262c-14.667 42 -35.667 72 -63 90c-12.667 8 -26.334 12 -41.001 12c-31.333 0 -55.333 -15.667 -72 -47
c-20.667 -40.667 -35 -76.667 -43 -108c-12 -50.667 -18 -120.334 -18 -209.001l-6 -150l6 -149c0 -114.667 10 -202 30 -262c15.333 -42.667 36.666 -72.667 63.999 -90c12 -8.66699 25.667 -13 41 -13c31.333 0 56.166 18.167 74.499 54.5s32.666 75 42.999 116
s15.5 105.833 15.5 194.5z" />
    <glyph glyph-name="one" unicode="1" horiz-adv-x="1271" 
d="M954 0l-596 0.000976562c20 23.333 35.667 46.666 47 69.999c22 42 33 87.667 33 137v811h-150c84.667 52 163.5 104.833 236.5 158.5s145.167 114.167 216.5 181.5c47.333 43.333 92.333 88.333 135 135v-1272c0 -64 17.667 -125.333 53 -184z" />
    <glyph glyph-name="two" unicode="2" horiz-adv-x="1271" 
d="M1177 383c-31.333 -92.667 -54.332 -191.001 -68.999 -295.001l-10 -88h-1004l23 31l30 47c30 42 53.333 77.333 70 106l49 88l305 598c50.667 100 76 182.667 76 248c-1.33301 12.667 -2 21.667 -2 27c0 28.667 -9.5 51.834 -28.5 69.501s-41.5 26.5 -67.5 26.5
c-16.667 0 -31 -2.66699 -43 -8c-44 -20.667 -66 -70 -66 -148c0 -42 8.33301 -95 25 -159l14 -41h-346c-18 43.333 -27 91 -27 143c0 34 5.66699 73 17 117c28.667 116 83.5 203 164.5 261s191.167 87 330.5 87c143.333 0 256.666 -35.167 339.999 -105.5
s125 -160.833 125 -271.5c0 -40.667 -6 -83.667 -18 -129c-18 -62.667 -44 -123.334 -78 -182.001l-309 -522c17.333 -4.66699 36 -7.66699 56 -9s42.333 -2 67 -2c99.333 0 192 19.333 278 58c35.333 14.667 68 32.334 98 53.001z" />
    <glyph glyph-name="three" unicode="3" horiz-adv-x="1271" 
d="M1192 1475l-18.998 -27.0039c-14.667 -22 -27.834 -42.833 -39.501 -62.5s-22.834 -40.5 -33.501 -62.5l-220 -469c67.333 -30 121.166 -79.167 161.499 -147.5s60.5 -146.166 60.5 -233.499c0 -27.333 -2.16699 -55 -6.5 -83s-11.166 -57 -20.499 -87
c-32.667 -100.667 -94 -179.667 -184 -237s-204 -86 -342 -86c-36 0 -74.333 2 -115 6c-87.333 9.33301 -168.666 34.333 -243.999 75c-36.667 19.333 -69.334 40.666 -98.001 63.999c56 72 103 152.667 141 242l37 92l12 -45c18 -45.333 39.667 -80.666 65 -105.999
s55.666 -42.666 90.999 -51.999c2.66699 -1.33301 10.5 -3 23.5 -5s23.5 -3 31.5 -3c50.667 0 91.667 18.333 123 55s47 84.334 47 143.001c0 71.333 -26.167 125.833 -78.5 163.5s-123.5 56.5 -213.5 56.5l-39 -7l290 551c-13.333 0 -28.166 0.666992 -44.499 2
s-29.5 2 -39.5 2c-102 0 -200 -18.333 -294 -55l-95 -43c0 41.333 0.666992 101.833 2 181.5s2 138.834 2 177.501h1039z" />
    <glyph glyph-name="four" unicode="4" horiz-adv-x="1271" 
d="M1218 453l-69.998 11.9971c-19.333 1.33301 -35.5 2.33301 -48.5 3s-24.167 1 -33.5 1h-29v-246c0 -47.333 9.66699 -96.333 29 -147c12 -27.333 27 -52.666 45 -75.999h-594c27.333 27.333 46.833 58 58.5 92s17.5 76.333 17.5 127v250h-526v47v49
c-2.66699 15.333 -4.83398 31.166 -6.50098 47.499s-3.5 32 -5.5 47s-7 39.5 -15 73.5c56 36.667 106.667 82.334 152 137.001l380 469c22 28.667 39.5 53.334 52.5 74.001s22.167 41.334 27.5 62.001h402v-9l-6 -41c-4.66699 -31.333 -7.66699 -55.833 -9 -73.5
s-2 -27.834 -2 -30.501v-606l56 4c21.333 2.66699 39.166 5 53.499 7s36.833 7 67.5 15c-6 -39.333 -9 -85 -9 -137c0 -49.333 4.33301 -99.666 13 -150.999zM591.002 716.997v299l-209 -299h209z" />
    <glyph glyph-name="five" unicode="5" horiz-adv-x="1273" 
d="M1167 1475l-37.0039 -72.0029c-38 -79.333 -65.333 -164.666 -82 -255.999c-52 26 -105.333 45.167 -160 57.5s-112 18.5 -172 18.5h-47c-13.333 -2.66699 -22.666 -4 -27.999 -4v-299c31.333 0 63 -3.16699 95 -9.5s64.333 -16.166 97 -29.499
c88.667 -37.333 157.667 -90 207 -158s74 -148 74 -240c0 -40.667 -5.5 -82.5 -16.5 -125.5s-27.5 -83.5 -49.5 -121.5c-43.333 -79.333 -106 -141.166 -188 -185.499s-177.667 -66.5 -287 -66.5c-57.333 0 -118.666 6 -183.999 18c-98.667 20.667 -193 59 -283 115
c45.333 73.333 80 152.333 104 237l21 86c16.667 -40.667 43.334 -79.334 80.001 -116.001c22 -22 50 -40.833 84 -56.5s67.333 -23.5 100 -23.5c84.667 0 139.334 43.667 164.001 131c8 27.333 12 54 12 80c0 66.667 -22.5 122.5 -67.5 167.5s-102.833 67.5 -173.5 67.5
c-27.333 0 -55.333 -2.66699 -84 -8s-58 -14.333 -88 -27l-39 -16l4 29l4 28c2.66699 15.333 4 61.333 4 138v405c0 88.667 -7.66699 167.334 -23 236.001h959z" />
    <glyph glyph-name="six" unicode="6" horiz-adv-x="1271" 
d="M1152 475c0 -122.667 -35.168 -227.999 -105.501 -315.999s-161.833 -143 -274.5 -165c-49.333 -9.33301 -99.333 -14 -150 -14c-113.333 0 -210.666 25.5 -291.999 76.5s-141 122.167 -179 213.5c-27.333 66 -41 128.333 -41 187s12.667 123.5 38 194.5
s68.666 161.833 129.999 272.5l25 41l153 254c44 70.667 72.5 120.667 85.5 150s22.833 64.666 29.5 105.999h569l-29 -33l-55 -62c-52 -60 -92.667 -109.333 -122 -148s-55.666 -78.667 -78.999 -120l-124 -219c21.333 2.66699 38.333 4 51 4
c102 0 189.167 -40.333 261.5 -121s108.5 -181 108.5 -301zM703.999 373.001c2.66699 13.333 4.66602 28.167 5.99902 44.5s2 32.166 2 47.499c0 28.667 -1.66699 53.5 -5 74.5s-8.33301 37.833 -15 50.5c-15.333 27.333 -33.333 41 -54 41
c-13.333 0 -26.833 -7.5 -40.5 -22.5s-25.667 -36.5 -36 -64.5s-15.5 -64 -15.5 -108c0 -76 10.333 -127.667 31 -155c10.667 -15.333 24.334 -23 41.001 -23c19.333 0 34.333 7.66699 45 23c18 18.667 31.667 49.334 41 92.001z" />
    <glyph glyph-name="seven" unicode="7" horiz-adv-x="1271" 
d="M1188 1475l-19.001 -33l-16 -31c-36.667 -70.667 -64.667 -132 -84 -184l-354 -1008c-18 -49.333 -29.333 -88.333 -34 -117s-7 -62.667 -7 -102h-545c28.667 40.667 55.334 84 80.001 130s45.667 93.333 63 142l349 955c-32 4 -63.667 6 -95 6c-21.333 0 -45 -1 -71 -3
s-54 -5.66699 -84 -11c-83.333 -15.333 -162 -42 -236 -80c9.33301 58.667 14 122.667 14 192c0 53.333 -2.66699 101.333 -8 144h1047z" />
    <glyph glyph-name="eight" unicode="8" horiz-adv-x="1273" 
d="M1146 1098c0 -62.667 -12.001 -120.006 -36.001 -172.006s-62 -98.667 -114 -140l-34 -24c72 -31.333 128.167 -79.166 168.5 -143.499s60.5 -136.166 60.5 -215.499c0 -35.333 -4.83301 -71.333 -14.5 -108s-24.5 -70.667 -44.5 -102
c-45.333 -71.333 -107.666 -124.666 -186.999 -159.999s-182.333 -53 -309 -53c-130 0 -233.5 17.333 -310.5 52s-138.833 88.334 -185.5 161.001c-39.333 62.667 -59 132.667 -59 210c0 78 20.167 149.5 60.5 214.5s96.5 113.167 168.5 144.5l-34 24
c-49.333 38.667 -86.666 85.334 -111.999 140.001s-38 112 -38 172c0 91.333 33.167 170.833 99.5 238.5s158.833 114.5 277.5 140.5c24.667 4 47.167 7.33301 67.5 10s42.166 4 65.499 4c19.333 0 39.833 -1 61.5 -3s45.5 -5.66699 71.5 -11
c118.667 -24.667 211.167 -71.167 277.5 -139.5s99.5 -148.166 99.5 -239.499zM723.999 1076.99c0 45.333 -2.66797 79.168 -8.00098 101.501s-13.666 39.166 -24.999 50.499c-18.667 18.667 -37 28 -55 28s-36.333 -9.33301 -55 -28c-10 -10 -17.667 -26.5 -23 -49.5
s-8 -57.167 -8 -102.5c0 -74.667 7.16699 -126.667 21.5 -156s35.833 -44 64.5 -44c30 0 52.167 14 66.5 42s21.5 80.667 21.5 158zM739.998 349.996c3.33301 14 5.33398 31.5 6.00098 52.5s1.66699 37.833 3 50.5c0 66.667 -11 116.334 -33 149.001s-48.667 49 -80 49
c-32.667 0 -59.334 -17 -80.001 -51s-31 -90 -31 -168c0 -76.667 10 -132.334 30 -167.001s47 -52 81 -52c28.667 0 51.167 10.5 67.5 31.5s28.5 56.167 36.5 105.5z" />
    <glyph glyph-name="nine" unicode="9" horiz-adv-x="1271" 
d="M1130 821c-16.667 -46 -31.5 -82.668 -44.5 -110.001s-42.5 -83.333 -88.5 -168l-35 -60l-154 -239c-36.667 -60 -62.167 -106.5 -76.5 -139.5s-24.833 -67.833 -31.5 -104.5h-572l43 43c54.667 57.333 102.167 113 142.5 167s77.5 109.667 111.5 167l117 198
c-22 -2.66699 -38.333 -4 -49 -4c-98.667 0 -186.167 39 -262.5 117s-114.5 179 -114.5 303c0 44 6.5 90.5 19.5 139.5s31.833 91.167 56.5 126.5c44.667 74 106 131.833 184 173.5s168 62.5 270 62.5c150.667 0 274.5 -45.667 371.5 -137s145.5 -206.666 145.5 -345.999
c0 -61.333 -11 -124.333 -33 -189zM716 1141c-4 20 -11.834 37.168 -23.501 51.501s-25.5 21.5 -41.5 21.5c-20.667 0 -39.334 -11.333 -56.001 -34c-8 -14 -15.833 -35 -23.5 -63s-11.5 -60.333 -11.5 -97c0 -70 6.16699 -117.167 18.5 -141.5s30.833 -36.5 55.5 -36.5
c12.667 0 25.834 6.16699 39.501 18.5s25.834 35.5 36.501 69.5s16 73 16 117c0 25.333 -3.33301 56.666 -10 93.999z" />
    <glyph glyph-name="colon" unicode=":" horiz-adv-x="557" 
d="M481 840c0 -57.333 -19.833 -105.833 -59.5 -145.5s-88.167 -59.5 -145.5 -59.5s-105.833 19.833 -145.5 59.5s-59.5 88.167 -59.5 145.5s19.833 105.666 59.5 144.999s88.167 59 145.5 59s105.833 -19.667 145.5 -59s59.5 -87.666 59.5 -144.999zM481 174
c0 -57.333 -19.833 -105.833 -59.5 -145.5s-88.167 -59.5 -145.5 -59.5s-105.833 19.833 -145.5 59.5s-59.5 88.167 -59.5 145.5s19.833 105.833 59.5 145.5s88.167 59.5 145.5 59.5s105.833 -19.833 145.5 -59.5s59.5 -88.167 59.5 -145.5z" />
    <glyph glyph-name="semicolon" unicode=";" horiz-adv-x="700" 
d="M529 694c-39.333 -39.333 -88.335 -59 -147.002 -59c-57.333 0 -105.833 20.5 -145.5 61.5s-59.5 89.5 -59.5 145.5s20.833 104.167 62.5 144.5s89.834 60.5 144.501 60.5s102.334 -19.833 143.001 -59.5s61 -88.167 61 -145.5c0 -58.667 -19.667 -108 -59 -148z
M626.998 391c-22.667 -112 -63.667 -213.001 -123 -303.001c-28.667 -46.667 -62.667 -91.167 -102 -133.5s-81 -79.833 -125 -112.5h-305c38 26 68.667 52.667 92 80c62.667 67.333 108 126.833 136 178.5s42 100.167 42 145.5c0 40.667 -11.333 78 -34 112l-25 31
c39.333 -5.33301 76.5 -8.66602 111.5 -9.99902s75.5 -2 121.5 -2c30 0 62.5 1.33301 97.5 4s72.833 6 113.5 10z" />
    <glyph glyph-name="less" unicode="&#x3c;" horiz-adv-x="980" 
d="M921 260l-862 477l862 477v-333l-297 -144l297 -143v-334z" />
    <glyph glyph-name="equal" unicode="=" horiz-adv-x="1273" 
d="M1229 778c-11.333 11.333 -24.1689 18.667 -38.502 22s-37.166 5 -68.499 5h-975c-32.667 0 -53.667 -0.666992 -63 -2s-19 -5.33301 -29 -12l-10 -9v258c9.33301 -14.667 21.5 -25.167 36.5 -31.5s37.5 -9.5 67.5 -9.5h973c41.333 0 67.833 2.16699 79.5 6.5
s20.834 14.5 27.501 30.5v-258zM1229 438.001c-11.333 12.667 -23.5 21 -36.5 25s-36.5 6 -70.5 6h-975c-20 0 -38.667 -0.333008 -56 -1s-30.666 -8 -39.999 -22l-6 -12v262c9.33301 -13.333 19.833 -22 31.5 -26s35.834 -6 72.501 -6h973c31.333 0 54.166 2 68.499 6
s27.166 11.333 38.499 22v-254z" />
    <glyph glyph-name="greater" unicode="&#x3e;" horiz-adv-x="980" 
d="M921 737l-862 -477v334l297 143l-297 144v333z" />
    <glyph glyph-name="question" unicode="?" horiz-adv-x="907" 
d="M851 1202c8.66699 -31.333 13.0039 -61.3301 13.0039 -89.9971c0 -64 -17.5 -127.5 -52.5 -190.5s-87.833 -121.833 -158.5 -176.5c-8.66699 -8 -23 -18 -43 -30c-12.667 -8.66699 -50.334 -31.334 -113.001 -68.001c-10.667 -6.66699 -18.334 -12 -23.001 -16l-45 -43
c-13.333 -14 -24.5 -28.167 -33.5 -42.5s-15.5 -29.5 -19.5 -45.5c-38 27.333 -65.333 60.666 -82 99.999c-6.66699 15.333 -12 31.833 -16 49.5s-6 34.5 -6 50.5c0 57.333 30 118.333 90 183l6 6l31 35c6.66699 8 17.167 22.167 31.5 42.5s24.833 36.166 31.5 47.499
c12.667 23.333 19 47 19 71c0 34.667 -11.333 65.334 -34 92.001s-54.334 44 -95.001 52c-7.33301 1.33301 -18.333 2 -33 2c-40 0 -82.5 -11 -127.5 -33s-90.5 -55.333 -136.5 -100l-27 -31c12 69.333 18 139.666 18 210.999c0 42 -2 83.667 -6 125
c42.667 20.667 82.667 37 120 49s81.666 21.833 132.999 29.5s100.333 11.5 147 11.5c220.667 0 357.667 -97 411 -291zM524.004 317.003c38 -39.333 56.999 -87 56.999 -143c0 -57.333 -19.833 -105.5 -59.5 -144.5s-87.5 -58.5 -143.5 -58.5s-104.5 19.833 -145.5 59.5
s-61.5 87.5 -61.5 143.5c0 57.333 19.833 105.833 59.5 145.5s88.834 59.5 147.501 59.5c56 0 104.667 -20.667 146 -62z" />
    <glyph glyph-name="at" unicode="@" horiz-adv-x="1638" 
d="M1494 649c-28.667 -80.667 -66.4951 -148.674 -113.495 -204.007s-98.5 -94.333 -154.5 -117c-13.333 -6 -31 -11.333 -53 -16s-39.667 -7 -53 -7c-46.667 0 -85.334 12.333 -116.001 37s-48 56.667 -52 96l-2 25l-13 -25
c-13.333 -21.333 -20.666 -33.666 -21.999 -36.999l-21 -22c-18.667 -22 -42.334 -39.167 -71.001 -51.5s-58.334 -18.5 -89.001 -18.5c-78.667 0 -142.667 32.833 -192 98.5s-74 161.834 -74 288.501c0 24.667 1.66699 48 5 70s9.33301 48 18 78
c17.333 62.667 43.5 120.334 78.5 173.001s73.5 93.334 115.5 122.001c27.333 18.667 55.666 32.834 84.999 42.501s57.666 14.5 84.999 14.5c44 0 82.667 -10.167 116 -30.5s56.333 -49.166 69 -86.499l14 92h111l-74 -417l-25 -162l-6 -88
c0 -28.667 6.83301 -50.5 20.5 -65.5s32.834 -22.5 57.501 -22.5c12 0 23.833 2 35.5 6s24 11.167 37 21.5s31.833 28.5 56.5 54.5c13.333 13.333 24.166 25.5 32.499 36.5s17.833 27.5 28.5 49.5c30 52 51.333 109.333 64 172c4 23.333 6 37 6 41
c1.33301 10.667 2 24.334 2 41.001c0 156.667 -46.667 284.5 -140 383.5s-215.333 148.5 -366 148.5c-31.333 0 -63.333 -2 -96 -6c-152.667 -22 -277.834 -92 -375.501 -210s-146.5 -261.667 -146.5 -431v-35c2.66699 -16 4 -28.333 4 -37
c8 -77.333 27 -147.666 57 -210.999c53.333 -112 126.5 -198.333 219.5 -259s195.5 -91 307.5 -91c129.333 0 256.666 42.333 381.999 127c80.667 54.667 147.667 122.334 201 203.001l23 -137l-49 -62c-157.333 -169.333 -346.666 -254 -567.999 -254
c-195.333 0 -361.833 61.833 -499.5 185.5s-215.5 282.5 -233.5 476.5c-2.66699 17.333 -4 36.333 -4 57v47c0 150 32.167 281.333 96.5 394s158.5 204.667 282.5 276c61.333 35.333 128.5 60.833 201.5 76.5s151.167 23.5 234.5 23.5c173.333 0 317.333 -60.333 432 -181
s172 -266.334 172 -437.001c0 -80.667 -13.667 -159.334 -41 -236.001zM993.005 974.993c0 36.667 -12.002 66.3311 -36.002 88.998s-53.667 34 -89 34c-18 0 -37.333 -4.33301 -58 -13c-34 -13.333 -63.667 -36.333 -89 -69s-49.666 -82 -72.999 -148l-13 -44.5
c-6 -20.333 -10.333 -38.166 -13 -53.499c-6.66699 -31.333 -10.667 -59 -12 -83s-2 -53 -2 -87c0 -23.333 2.33301 -45.5 7 -66.5s11 -39.167 19 -54.5c23.333 -46 63 -69 119 -69c35.333 0 65.333 12 90 36c15.333 16.667 28.333 34.834 39 54.501
s26.334 58.167 47.001 115.5c5.33301 14 11.833 34.667 19.5 62s13.5 54 17.5 80l6 35l12 67c6 42.667 9 81 9 115z" />
    <glyph glyph-name="A" unicode="A" 
d="M1443 0h-590c10.667 32.667 16 71 16 115c0 30 -4 61.333 -12 94l-41 162h-258l-33 -107c-6.66699 -26 -11 -57 -13 -93s-3 -67.667 -3 -95l10 -76h-592c84.667 78 148 175 190 291l320 883c23.333 65.333 41.5 121.5 54.5 168.5s22.167 91.167 27.5 132.5h428l6 -41
l8 -39c14 -64.667 33.333 -137.667 58 -219l249 -834c28.667 -94 69.667 -183.333 123 -268zM797 635l-100 442l-108 -442h208z" />
    <glyph glyph-name="B" unicode="B" horiz-adv-x="1247" 
d="M1083 145c-46 -51.333 -99.1689 -88.333 -159.502 -111s-137.5 -34 -231.5 -34h-641l37 76c19.333 52 29 99 29 141v1036c0 66 -13 127 -39 183l-21 39h619c54.667 0 106.834 -5.83301 156.501 -17.5s92.834 -27.834 129.501 -48.501c60 -34 106.833 -78.667 140.5 -134
s50.5 -113 50.5 -173c0 -86 -30.667 -162 -92 -228l-56 -49c-28.667 -21.333 -54.334 -38.333 -77.001 -51l38 -16c70 -31.333 124.5 -78.166 163.5 -140.499s58.5 -130.833 58.5 -205.5c0 -48 -8.66699 -94.5 -26 -139.5s-43.666 -87.5 -78.999 -127.5zM714.998 1096
c-19.333 107.333 -56.333 161.001 -111 161.001c-12 0 -26.333 -3.33301 -43 -10v-436c6.66699 -4 15.667 -6.66699 27 -8c4 -1.33301 8.66699 -2 14 -2c30 0 55.333 24.333 76 73c27.333 67.333 41 125.666 41 174.999v22c-2.66699 10.667 -4 19 -4 25zM746.998 481.001
c0 67.333 -8.83301 120.667 -26.5 160s-41.5 67.333 -71.5 84c-16.667 10.667 -37.667 16 -63 16c-11.333 0 -20.333 -0.666992 -27 -2v-520c6.66699 -1.33301 17 -2 31 -2c22.667 0 43.667 4.66699 63 14c32.667 15.333 56.5 42.5 71.5 81.5s22.5 95.167 22.5 168.5z" />
    <glyph glyph-name="C" unicode="C" horiz-adv-x="1320" 
d="M1276 446l-50.0029 -369.998c-81.333 -38.667 -167.333 -65.334 -258 -80.001c-56 -8 -109 -12 -159 -12c-220 0 -400.333 68.833 -541 206.5s-211 313.167 -211 526.5c0 38 1.33301 71.333 4 100s9.5 67 20.5 115s28.833 95.667 53.5 143
c64 130 160.5 232.5 289.5 307.5s278.833 112.5 449.5 112.5c23.333 0 48.333 -0.666992 75 -2s52.334 -4 77.001 -8c72 -10 144.333 -28.333 217 -55l14 -396c-19.333 35.333 -55.333 80.333 -108 135c-42.667 42.667 -90 77 -142 103c-36.667 18.667 -77.667 28 -123 28
c-64 0 -123.333 -21.833 -178 -65.5s-99 -110.834 -133 -201.501s-51 -183 -51 -277c0 -96 17.333 -188 52 -276s81.834 -154.167 141.501 -198.5s126.167 -66.5 199.5 -66.5c92.667 0 179.334 36.333 260.001 109c44 38 77.667 78.667 101 122z" />
    <glyph glyph-name="D" unicode="D" horiz-adv-x="1345" 
d="M1285 745c0 -211.333 -60.333 -382.833 -181 -514.5s-289.667 -207.167 -507 -226.5l-78 -4h-479c27.333 28.667 46.833 60 58.5 94s17.5 76.333 17.5 127v1043c0 84.667 -25.333 155 -76 211h459l94 -7c222.667 -30 393.667 -108.5 513 -235.5s179 -289.5 179 -487.5z
M822 846c-13.333 116 -37.832 203.667 -73.499 263s-88.834 104 -159.501 134l-31 12v-1034l27 10c82 41.333 143.5 99.833 184.5 175.5s61.5 176.5 61.5 302.5c0 20 -1.16699 43.667 -3.5 71z" />
    <glyph glyph-name="E" unicode="E" horiz-adv-x="1013" 
d="M1042 330l-147.997 -330h-856c27.333 27.333 47.5 58.333 60.5 93s19.5 77.334 19.5 128.001v1039c0 81.333 -25.333 153 -76 215h895l-141 -324l-53 23c-32 10.667 -62.333 18.667 -91 24s-59.334 8 -92.001 8v-338h348l-178 -299c-13.333 6 -23.333 10.333 -30 13
c-22 9.33301 -38.167 15.666 -48.5 18.999s-24.333 7.5 -42 12.5s-34.167 8.83301 -49.5 11.5v-353c97.333 0 182.166 3.83301 254.499 11.5s148.166 23.167 227.499 46.5z" />
    <glyph glyph-name="F" unicode="F" horiz-adv-x="901" 
d="M946 1475l-138.999 -318c-40 16.667 -79.667 29 -119 37c-13.333 2.66699 -34 4.66699 -62 6s-49.667 2 -65 2v-334h350l-178 -290l-37 16c-24.667 9.33301 -47.834 16.5 -69.501 21.5s-43.5 7.5 -65.5 7.5v-404c0 -83.333 25.333 -156.333 76 -219h-592
c49.333 64 74 137.667 74 221v1039c0 87.333 -24 159 -72 215h899z" />
    <glyph glyph-name="G" unicode="G" horiz-adv-x="1501" 
d="M1456 739l-26.998 -47.001c-27.333 -58.667 -41 -112.667 -41 -162v-196c0 -78 11.667 -145 35 -201l-78 -33c-94 -35.333 -187.833 -62.166 -281.5 -80.499s-180.834 -27.5 -261.501 -27.5c-228 0 -408.833 64.833 -542.5 194.5s-200.5 305.834 -200.5 528.501
c0 228 74.833 415.333 224.5 562s346.5 220 590.5 220c53.333 0 116.5 -5.16699 189.5 -15.5s150.5 -32.5 232.5 -66.5v-381c-13.333 24.667 -30.333 49.334 -51 74.001s-44.667 50 -72 76c-42 40.667 -91 72.667 -147 96c-41.333 16.667 -82.333 25 -123 25
c-74 0 -142.333 -25.333 -205 -76s-108.334 -121 -137.001 -211c-15.333 -45.333 -25 -83.666 -29 -114.999s-6.66699 -58.333 -8 -81s-2 -43.334 -2 -62.001c0 -160 40.333 -294 121 -402c74.667 -99.333 162 -149 262 -149c14.667 0 25.667 0.666992 33 2l10 2l12 2v315
c0 23.333 -3.66699 48.666 -11 75.999s-19.333 56.666 -36 87.999l-27 45h570z" />
    <glyph glyph-name="H" unicode="H" horiz-adv-x="1445" 
d="M1406 0l-592.002 -0.00195312l23 37c32.667 64 49 126 49 186v398h-328v-398c0 -60 16.333 -122 49 -186l25 -37h-594c28.667 28.667 48.834 59.334 60.501 92.001s17.5 76.334 17.5 131.001v1034c0 90.667 -25.333 163.334 -76 218.001h594
c-8 -11.333 -16.167 -23.833 -24.5 -37.5s-15.166 -27.167 -20.499 -40.5c-20.667 -49.333 -31 -96 -31 -140v-372h328v372c0 62 -17 122.333 -51 181l-25 37h594c-26 -28.667 -45.167 -59.834 -57.5 -93.501s-18.5 -75.167 -18.5 -124.5v-1034c0 -56 5.5 -99.333 16.5 -130
s31.5 -61.667 61.5 -93z" />
    <glyph glyph-name="I" unicode="I" horiz-adv-x="675" 
d="M638 1475c-16 -20.667 -32.333 -48 -49 -82c-20.667 -48 -31 -92.333 -31 -133v-1041c0 -87.333 25.333 -160.333 76 -219h-594c50.667 58.667 76 131.667 76 219v1043c0 90 -26.667 161 -80 213h602z" />
    <glyph glyph-name="J" unicode="J" horiz-adv-x="847" 
d="M811 1475l-28.999 -37.002c-32.667 -49.333 -49 -106.666 -49 -171.999v-828c0 -140.667 -39.5 -251.167 -118.5 -331.5s-193.833 -120.5 -344.5 -120.5l-104 4l-62 2l-16 -2l-18 -2l-17 -4l-16 -4l-37 360l25 -29c25.333 -28.667 52 -50.167 80 -64.5s53 -21.5 75 -21.5
c24.667 0 46.167 7.16699 64.5 21.5s30.666 33.833 36.999 58.5s9.5 70.334 9.5 137.001v824c0 70.667 -14.333 128 -43 172l-29 37h592z" />
    <glyph glyph-name="K" unicode="K" horiz-adv-x="1499" 
d="M1558 0l-727 0.000976562c12.667 31.333 19 61.333 19 90c0 45.333 -15.667 100 -47 164l-240 487v-520c0 -65.333 16.333 -126 49 -182l27 -39h-594c50.667 56 76 129.667 76 221v1041c0 86 -25.333 157 -76 213h590c-16.667 -24.667 -31 -51.334 -43 -80.001
c-19.333 -50.667 -29 -95 -29 -133v-451l230 397c48.667 84.667 73 173.667 73 267h639l-59 -31c-54.667 -34 -99 -77 -133 -129l-320 -504l305 -598c60 -114.667 146.667 -185.667 260 -213z" />
    <glyph glyph-name="L" unicode="L" horiz-adv-x="925" 
d="M970 371l-115 -371h-815c28.667 26 48.834 56 60.501 90s17.5 78.333 17.5 133v1039c0 50 -5.83301 90.833 -17.5 122.5s-31.834 61.834 -60.501 90.501h590l-19 -35c-16 -32.667 -28.5 -64.834 -37.5 -96.501s-13.5 -58.167 -13.5 -79.5v-996
c78 0 149.833 7.83301 215.5 23.5s130.5 42.167 194.5 79.5z" />
    <glyph glyph-name="M" unicode="M" horiz-adv-x="1708" 
d="M1708 1475l-117.001 -157.999v-1098c0 -86 26 -159 78 -219h-563c26 27.333 44.5 57 55.5 89s16.5 76 16.5 132v600l-322 -424l-326 430v-604c0 -46 9.66699 -93.667 29 -143c4 -9.33301 9.5 -20.833 16.5 -34.5s16.5 -28.834 28.5 -45.501h-567c30 26 50.833 55 62.5 87
s17.5 77.333 17.5 136v1096l-117 156h453c2.66699 -23.333 7.33398 -42.666 14.001 -57.999l4 -6l21 -27l360 -485l375 498l16 20c12.667 15.333 19 34.666 19 57.999h446z" />
    <glyph glyph-name="N" unicode="N" horiz-adv-x="1552" 
d="M1507 1475l-24.001 -36.999c-33.333 -57.333 -50 -116 -50 -176v-1018c0 -58.667 4.16699 -105.5 12.5 -140.5s22.833 -69.5 43.5 -103.5h-473l-482 731v-510c0 -83.333 24.667 -157 74 -221h-557c46.667 56 70 129.667 70 221v1041l-113 213h432l25 -76
c8 -20.667 14.667 -36.334 20 -47.001c2.66699 -6 10.334 -18.333 23.001 -37l512 -758v707c0 84.667 -24.667 155 -74 211h561z" />
    <glyph glyph-name="O" unicode="O" horiz-adv-x="1630" 
d="M1540 950c20 -82 30.002 -161.667 30.002 -239c0 -210.667 -69.833 -384.5 -209.5 -521.5s-323.5 -205.5 -551.5 -205.5c-218.667 0 -398.334 68.833 -539.001 206.5s-211 319.167 -211 544.5c0 229.333 68.333 413 205 551s321 207 553 207
c188 0 344.167 -46.5 468.5 -139.5s209.166 -227.5 254.499 -403.5zM1132 596c0 126.667 -17.333 236.169 -52 328.502s-85 167.166 -151 224.499c-47.333 40.667 -94.333 70.667 -141 90s-87.667 29 -123 29c-31.333 0 -56.5 -4.83301 -75.5 -14.5
s-31.167 -22.834 -36.5 -39.501c-10 -24 -18.333 -50 -25 -78s-12.5 -64.167 -17.5 -108.5s-7.5 -91.833 -7.5 -142.5c0 -170.667 34.167 -312 102.5 -424s160.5 -186.333 276.5 -223c30 -10 50.667 -16.333 62 -19c31.333 -9.33301 54.333 -14 69 -14
c36 0 67 53.333 93 160c17.333 68 26 145 26 231z" />
    <glyph glyph-name="P" unicode="P" horiz-adv-x="1153" 
d="M1080 1307c30.667 -36 52.668 -74.498 66.001 -115.498s20 -85.167 20 -132.5c0 -74 -18.333 -144.833 -55 -212.5s-87.667 -119.834 -153 -156.501c-41.333 -23.333 -88.333 -41.833 -141 -55.5s-111 -20.5 -175 -20.5h-61l-21 2v-397c0 -40.667 3.16699 -74 9.5 -100
s18.166 -53.333 35.499 -82l27 -37h-596c31.333 27.333 52.833 56 64.5 86s17.5 74.333 17.5 133v1043c0 88.667 -26 159.667 -78 213h549c126.667 0 228 -13.333 304 -40s138.333 -69.334 187 -128.001zM716.001 1081c-18 112 -66.335 168.001 -145.002 168.001
c-11.333 0 -19.666 -0.666992 -24.999 -2v-549c50.667 -4 93.334 15.833 128.001 59.5s52 110.5 52 200.5c0 18 -0.666992 37.667 -2 59s-4 42.666 -8 63.999z" />
    <glyph glyph-name="Q" unicode="Q" horiz-adv-x="1628" 
d="M1968 -193c-32.667 -14.667 -66.166 -26.166 -100.499 -34.499s-69.166 -12.5 -104.499 -12.5c-65.333 0 -135 13 -209 39s-166.667 70.333 -278 133c-22 11.333 -41.333 22.333 -58 33c-6.66699 4 -24.334 16.333 -53.001 37l-19 16l-26 21
c-49.333 -19.333 -93.5 -32.333 -132.5 -39s-72.5 -11.334 -100.5 -14.001s-57.667 -4 -89 -4c-216.667 0 -394 69.5 -532 208.5s-207 320.5 -207 544.5c0 228 68 411.333 204 550s320.667 208 554 208c186.667 0 342.834 -47.167 468.501 -141.5
s211.167 -228.833 256.5 -403.5c10.667 -38 18 -74.167 22 -108.5s6 -72.5 6 -114.5c0 -98 -17 -192.5 -51 -283.5s-81 -169.833 -141 -236.5l29 -35c83.333 -100 159.666 -174.5 228.999 -223.5s158.666 -89.833 267.999 -122.5zM1132 596.001
c0 126.667 -17.333 236.169 -52 328.502s-85 167.166 -151 224.499c-47.333 40.667 -94.333 70.667 -141 90s-87.667 29 -123 29c-31.333 0 -56.5 -4.83301 -75.5 -14.5s-31.167 -22.834 -36.5 -39.501c-10 -24 -18.333 -50 -25 -78s-12.5 -64.167 -17.5 -108.5
s-7.5 -91.833 -7.5 -142.5c0 -170.667 34.167 -312 102.5 -424s160.5 -186.333 276.5 -223c30 -10 50.667 -16.333 62 -19c31.333 -9.33301 54.333 -14 69 -14c36 0 67 53.333 93 160c17.333 68 26 145 26 231z" />
    <glyph glyph-name="R" unicode="R" horiz-adv-x="1318" 
d="M1392 0l-398.002 0.000976562c-94 86 -178.5 184.333 -253.5 295s-136.5 232 -184.5 364v-440c0 -88.667 24 -161.667 72 -219h-592c52 48 78 121 78 219v1043c0 47.333 -6.16699 87.833 -18.5 121.5s-32.166 64.167 -59.499 91.5h610h66
c19.333 -4.66699 33 -7.66699 41 -9c140.667 -20 247.834 -69 321.501 -147s110.5 -173 110.5 -285c0 -68 -18.5 -131.667 -55.5 -191s-84.833 -105.333 -143.5 -138c48 -130 105.167 -252.333 171.5 -367s144.5 -227.334 234.5 -338.001zM709.998 920.001
c9.33301 36.667 14 73.333 14 110c0 70 -18 125 -54 165s-78.667 57.333 -128 52v-497c82 0 138 56.667 168 170z" />
    <glyph glyph-name="S" unicode="S" horiz-adv-x="1142" 
d="M1032 1047l-80.001 65.001c-56 39.333 -113 70.666 -171 93.999s-106.667 35 -146 35c-94.667 0 -142 -35.333 -142 -106c0 -12.667 2.16699 -26.5 6.5 -41.5s13.333 -30 27 -45s34.167 -30.833 61.5 -47.5l114 -67l11 -4c80 -45.333 143.333 -88.166 190 -128.499
s85.667 -86.166 117 -137.499c42 -68.667 63 -143.334 63 -224.001c0 -90 -26.667 -172.833 -80 -248.5s-126.333 -130.5 -219 -164.5c-40.667 -14 -85 -25 -133 -33s-102.667 -12 -164 -12c-20 0 -43.667 1 -71 3s-48.666 3.66699 -63.999 5c-72 8 -145.667 25 -221 51v399
l61 -63c45.333 -40 94.333 -70.5 147 -91.5s100.667 -31.5 144 -31.5c11.333 0 23 1 35 3s21 3.66699 27 5c51.333 15.333 77 48.666 77 99.999c0 19.333 -3.66699 37.833 -11 55.5s-19.833 35.167 -37.5 52.5s-48.5 41 -92.5 71l-51 30
c-88.667 53.333 -154.167 98.166 -196.5 134.499s-79.833 79.833 -112.5 130.5c-22 34 -39.167 71.5 -51.5 112.5s-18.5 79.167 -18.5 114.5c0 86 27.333 163.833 82 233.5s131.667 120.834 231 153.501c45.333 13.333 89.166 23.833 131.499 31.5s83.833 11.5 124.5 11.5
c80.667 0 150.334 -5.16699 209.001 -15.5s118.667 -28.5 180 -54.5z" />
    <glyph glyph-name="T" unicode="T" horiz-adv-x="1173" 
d="M1203 1475l-88.001 -340c-16.667 10.667 -29.667 18.667 -39 24s-21 11.666 -35 18.999c-39.333 18.667 -78.166 33.167 -116.499 43.5s-77.166 15.5 -116.499 15.5v-1014c0 -92.667 25.667 -167 77 -223h-591c25.333 28.667 43.5 59 54.5 91s16.5 75.333 16.5 130v1008
c-50.667 0 -100.834 -6.16699 -150.501 -18.5s-99.167 -30.166 -148.5 -53.499c-34 -16 -65.333 -35 -94 -57l102 375h1129z" />
    <glyph glyph-name="U" unicode="U" horiz-adv-x="1413" 
d="M1367 0l-512.001 -0.000976562c5.33301 15.333 9.33301 30.833 12 46.5s4 32.167 4 49.5c-68 -61.333 -147 -97.333 -237 -108c-16.667 -1.33301 -31.167 -2.33301 -43.5 -3s-22.5 -1 -30.5 -1c-136.667 0 -244.834 46 -324.501 138s-119.5 220.667 -119.5 386v754
c0 86 -25.333 157 -76 213h588c-18 -26 -31.667 -52 -41 -78c-19.333 -49.333 -29 -93.666 -29 -132.999v-822l2 -43c14 -99.333 59 -149 135 -149c8.66699 0 21.834 1.33301 39.501 4s37.334 9.16699 59.001 19.5s36.667 18.833 45 25.5s12.5 12.667 12.5 18v945
c0 84.667 -24.667 155.667 -74 213h586l-20 -35c-33.333 -61.333 -50 -120.666 -50 -177.999v-1041c0 -42 10.333 -89 31 -141c10.667 -28.667 25 -55.334 43 -80.001z" />
    <glyph glyph-name="V" unicode="V" horiz-adv-x="1320" 
d="M1432 1475l-49 -27.001c-34 -23.333 -61.667 -51 -83 -83s-39.333 -75.333 -54 -130l-363 -1235h-469l-344 1245c-16 58.667 -33 102 -51 130s-43.333 52.333 -76 73c-13.333 10.667 -31 19.667 -53 27h600c-12 -33.333 -18 -65 -18 -95
c0 -35.333 8.66699 -83.666 26 -144.999l193 -698l207 708c20 68.667 30 115.667 30 141c0 14 -2 30.667 -6 50l-12 39h522z" />
    <glyph glyph-name="W" unicode="W" horiz-adv-x="1763" 
d="M1808 1475c-28.667 -37.333 -51.501 -75.832 -68.501 -115.499s-34.167 -97.5 -51.5 -173.5l-289 -1186h-367l-139 563l-131 -563h-367l-307 1182c-20.667 82 -40.167 142.333 -58.5 181s-43.166 76 -74.499 112h580c-22 -44 -33 -90.667 -33 -140
c0 -28.667 2.66699 -56 8 -82l115 -624l268 864l272 -866l101 626c2.66699 23.333 6 46.666 10 69.999v35c0 36.667 -9.66699 75.667 -29 117h561z" />
    <glyph glyph-name="X" unicode="X" horiz-adv-x="1386" 
d="M1432 0l-590 -0.000976562v39c-2.66699 16 -4.66699 28.333 -6 37l-43 96l-103 231l-100 -233l-41 -92c-5.33301 -12.667 -8.33301 -26.5 -9 -41.5s-1 -27.167 -1 -36.5h-531l64 78c34 40.667 65.333 80.334 94 119.001c23.333 32.667 43 62 59 88l250 409l-309 510
c-40.667 67.333 -100.667 146.666 -180 237.999l-31 33h594c0 -23.333 3.33301 -48.666 10 -75.999l41 -86l123 -283l131 283c18 40.667 30 71.334 36 92.001s9 44 9 70h520l-16 -21l-43 -55l-96.5 -130c-19 -26.667 -33.167 -48.334 -42.5 -65.001l-277 -456l281 -463
c36.667 -61.333 85 -131 145 -209l35 -41z" />
    <glyph glyph-name="Y" unicode="Y" horiz-adv-x="1144" 
d="M1233 1475c-38 -34.667 -70.332 -70.999 -96.999 -108.999s-55.667 -92 -87 -162l-263 -573v-412c0 -61.333 17.333 -122 52 -182l24 -37h-592c48 53.333 72 125.666 72 216.999v416l-256 569c-30 65.333 -58.333 118.5 -85 159.5s-56.334 78.833 -89.001 113.5h584
c-12.667 -24.667 -19 -50 -19 -76c0 -22 5.66699 -48 17 -78l147 -426l154 426c9.33301 24.667 14 48.667 14 72c0 28.667 -11 56 -33 82h457z" />
    <glyph glyph-name="Z" unicode="Z" horiz-adv-x="1169" 
d="M1147 412l-115.001 -412.001h-958l497 1196c-88.667 0 -169.5 -6.5 -242.5 -19.5s-145.833 -36.5 -218.5 -70.5l-102 -55l92 424h1018l-489 -1201c28.667 -4 57.334 -6 86.001 -6h36c16.667 2.66699 29 4 37 4c131.333 12.667 251 59.334 359 140.001z" />
    <glyph glyph-name="bracketleft" unicode="[" horiz-adv-x="667" 
d="M638 1358h-147c0 -165.333 -1 -306.333 -3 -423s-4.16699 -258 -6.5 -424s-3.5 -282.333 -3.5 -349l9 -402h149v-217h-518l4 2038h516v-223z" />
    <glyph glyph-name="backslash" unicode="\" horiz-adv-x="671" 
d="M612 0h-295l-258 1475h295z" />
    <glyph glyph-name="bracketright" unicode="]" horiz-adv-x="667" 
d="M548 1581l-4 -2038h-516v224l150 -3l2 1600h-150v217h518z" />
    <glyph glyph-name="asciicircum" unicode="^" horiz-adv-x="1075" 
d="M1015 305h-335l-144 299l-141 -299h-336l477 864z" />
    <glyph glyph-name="underscore" unicode="_" horiz-adv-x="954" 
d="M959 -246h-963v82h963v-82z" />
    <glyph glyph-name="grave" unicode="`" horiz-adv-x="663" 
d="M514 1122h-195l-268 264h330z" />
    <glyph glyph-name="a" unicode="a" horiz-adv-x="1058" 
d="M1020 0l-445.002 0.00488281l15 102l-37 -32l-39 -31l-33 -29l-33 -28c-5.33301 -1.33301 -15.166 -2 -29.499 -2h-33.5h-23c-99.333 0 -176.333 25.167 -231 75.5s-82 115.166 -82 194.499c0 17.333 2 36.333 6 57l17 58c18.667 44.667 46.5 82.334 83.5 113.001
s90.167 59.667 159.5 87l144 56l6 2l69 28c30 15.333 45 38.666 45 69.999c0 27.333 -12.5 53.666 -37.5 78.999s-59.5 38 -103.5 38c-28.667 0 -63.167 -5.83301 -103.5 -17.5s-85.5 -29.167 -135.5 -52.5l-48 -23l-28 -14c18.667 45.333 33 89.666 43 132.999l24 125
c38.667 11.333 67.334 19 86.001 23c49.333 10.667 96.666 16 141.999 16c199.333 0 339.5 -20.833 420.5 -62.5s121.5 -115.834 121.5 -222.501v-524c0 -62.667 3.83301 -108.334 11.5 -137.001s23.834 -56 48.501 -82zM576.998 217.005v258h-96
c-17.333 0 -29 -0.666992 -35 -2c-12 -2.66699 -20.667 -15 -26 -37c-4 -8 -6 -19.667 -6 -35c0 -84.667 7.16699 -141.667 21.5 -171s43.833 -44 88.5 -44c12.667 -1.33301 21 -2 25 -2c18.667 0 28 11 28 33z" />
    <glyph glyph-name="b" unicode="b" horiz-adv-x="1208" 
d="M1128 373c-48 -162.667 -166.333 -276.665 -355 -341.998c-36.667 -12.667 -73.167 -21 -109.5 -25s-100.833 -6 -193.5 -6h-432c22 27.333 37 55.666 45 84.999s12 74 12 134v944c0 101.333 -3.33301 169.666 -10 204.999s-23 71 -49 107h500l-13 -27
c-16 -34 -27.5 -71.5 -34.5 -112.5s-10.5 -97.833 -10.5 -170.5v-319l76 78l72 92c16 4 30.167 7.33301 42.5 10s23.5 4 33.5 4c10.667 1.33301 21.5 2 32.5 2h24.5c120 0 217.5 -37.5 292.5 -112.5s112.5 -178.833 112.5 -311.5c0 -70.667 -12 -149 -36 -235zM781 477.002
c0 56 -2.33203 102.832 -6.99902 140.499s-14.167 72.834 -28.5 105.501s-33.5 58.167 -57.5 76.5s-49.667 27.5 -77 27.5c-28.667 0 -56.334 -10 -83.001 -30l-19 -13l-16 -14l-15 -12v-559l21 -4c9.33301 -1.33301 18 -2 26 -2h15c70.667 0 126.5 23.167 167.5 69.5
s65.5 117.833 73.5 214.5z" />
    <glyph glyph-name="c" unicode="c" horiz-adv-x="987" 
d="M973 217l-36.9951 -55.001l-45 -78c-8.66699 -14 -21.667 -40 -39 -78l-41 -8l-70.5 -10c-19.667 -2.66699 -39.834 -4 -60.501 -4c-194 0 -348 44.333 -462 133s-171 206.667 -171 354c0 56 9.66699 116.667 29 182c35.333 122 110.666 215.667 225.999 281
s261.666 98 438.999 98c53.333 0 115 -11.667 185 -35c-1.33301 -17.333 -2.5 -36 -3.5 -56s-1.5 -35.333 -1.5 -46c0 -57.333 4.33301 -114 13 -170l-21 20c-95.333 86 -181.333 129 -258 129c-56 0 -108.833 -24.833 -158.5 -74.5s-74.5 -126.5 -74.5 -230.5
c0 -32.667 1 -56.167 3 -70.5s6.33301 -35.166 13 -62.499c45.333 -174.667 162.666 -262 351.999 -262c37.333 0 69.666 3.5 96.999 10.5s56 17.833 86 32.5z" />
    <glyph glyph-name="d" unicode="d" horiz-adv-x="1214" 
d="M1175 1475c-20 -38.667 -34.835 -77.833 -44.502 -117.5s-14.5 -88.834 -14.5 -147.501v-991c0 -64 3.83301 -110.333 11.5 -139s22.834 -55.334 45.501 -80.001h-444l16 123c-68 -94 -162.667 -141 -284 -141c-41.333 0 -86.666 7.33301 -135.999 22
c-86 28.667 -153.5 80.834 -202.5 156.501s-73.5 168.834 -73.5 279.501c0 40 1 68.5 3 85.5s6.33301 41.167 13 72.5c12.667 62.667 36 120 70 172c54.667 86 119.5 150.833 194.5 194.5s158.167 65.5 249.5 65.5c44 0 80.333 -2.66699 109 -8l20 -4l25 -8v198
c0 84.667 -3.33301 141.667 -10 171s-23 61.333 -49 96h501zM732.998 311.001l-0.000976562 439.001c-10.667 22.667 -26.334 43.667 -47.001 63c-27.333 26 -53.333 40.333 -78 43s-44.334 4 -59.001 4c-48 0 -83 -15 -105 -45s-36.333 -83.333 -43 -160
c-1.33301 -10.667 -2 -25.667 -2 -45v-43c0 -60 9.33301 -111.833 28 -155.5s43.334 -80.834 74.001 -111.501s58.834 -53.167 84.501 -67.5s48.834 -21.5 69.501 -21.5c34 0 58 16.333 72 49c4 10.667 6 27.667 6 51z" />
    <glyph glyph-name="e" unicode="e" horiz-adv-x="1017" 
d="M965 487l-2.99902 -38.001h-520l4 -46c12.667 -64 37.667 -112.667 75 -146s90.333 -50 159 -50c61.333 0 137 16.333 227 49l47 18c-14.667 -21.333 -28.167 -42.333 -40.5 -63s-23.333 -42.167 -33 -64.5s-16.5 -38.5 -20.5 -48.5c-12 -27.333 -21.667 -53.333 -29 -78
c-27.333 -8 -56.333 -15 -87 -21s-58.334 -9 -83.001 -9c-196.667 0 -346.667 38.667 -450 116c-109.333 82 -164 204.333 -164 367c0 52 6 110 18 174c19.333 92.667 56.666 170.834 111.999 234.501s123.333 107.167 204 130.5c34 10.667 65.667 18 95 22s60.333 6 93 6
c128.667 0 226.834 -47.333 294.501 -142s101.5 -231.667 101.5 -411zM661.001 650.999c0 76.667 -7.83301 131.332 -23.5 163.999s-40.5 49 -74.5 49c-38 2.66699 -68 -11.666 -90 -42.999s-33 -88 -33 -170l-2 -26h221z" />
    <glyph glyph-name="f" unicode="f" horiz-adv-x="659" 
d="M756 1454l-16.001 -49.002c-11.333 -39.333 -19.666 -72.666 -24.999 -99.999s-8 -54.666 -8 -81.999l-12 26c-22 34 -48.667 56.667 -80 68c-12.667 5.33301 -26.334 8 -41.001 8c-20.667 0 -37.5 -6.5 -50.5 -19.5s-19.5 -31.167 -19.5 -54.5l-2 -45v-188h195v-162
h-195v-637c0 -62.667 4.16699 -108.334 12.5 -137.001s23.833 -56 46.5 -82h-501c21.333 26 36.5 54.333 45.5 85s13.5 75.334 13.5 134.001v637h-133c46.667 48 91 102 133 162v86c0 114.667 39 208.167 117 280.5s184.333 108.5 319 108.5h33
c16.667 -2.66699 38.334 -5 65.001 -7s61 -12.667 103 -32z" />
    <glyph glyph-name="g" unicode="g" horiz-adv-x="1099" 
d="M1136 823l-162.002 -0.00195312c31.333 -47.333 47 -99 47 -155c0 -66 -21.833 -127.667 -65.5 -185s-102.167 -98.333 -175.5 -123c-32.667 -9.33301 -70.167 -16.333 -112.5 -21s-83.5 -7 -123.5 -7c-16 0 -29.667 0.666992 -41 2c-5.33301 1.33301 -18.333 4 -39 8
l-12 -18l-10 -15l-8 -14c-4 -6.66699 -6 -13 -6 -19c0 -20 17 -33.333 51 -40l49 -7h117h36l68 -2c50.667 0 86.834 -1.66699 108.501 -5s52.667 -11.833 93 -25.5s73.5 -38.167 99.5 -73.5s39 -76.333 39 -123c0 -35.333 -9.66699 -73.666 -29 -114.999
c-27.333 -58.667 -77.166 -108.5 -149.499 -149.5s-164.5 -66.833 -276.5 -77.5c-18.667 -1.33301 -35.5 -2.33301 -50.5 -3s-27.5 -1 -37.5 -1c-18.667 0 -37.667 0.333008 -57 1s-38.333 1 -57 1c-156 13.333 -255.833 34.666 -299.5 63.999s-65.5 85 -65.5 167l2 23
c38 8 77.167 22.333 117.5 43s74.833 44.667 103.5 72l-51 4c-117.333 24.667 -176 75.667 -176 153c0 12.667 0.666992 22.334 2 29.001l10 37c97.333 22 184 58.667 260 110l-34 9c-70 18.667 -125.5 55 -166.5 109s-61.5 117.333 -61.5 190c0 44.667 7.66699 87 23 127
c23.333 64 62.5 116.833 117.5 158.5s124.833 67.834 209.5 78.501c15.333 2.66699 38.333 5 69 7s59.667 3 87 3c70 0 129.5 -7.16699 178.5 -21.5s91.833 -36.5 128.5 -66.5h250l-4 -59zM644.998 638.998l-11 57c-14.667 58.667 -29 99.667 -43 123
c-8 16.667 -17.333 30.334 -28 41.001c-19.333 19.333 -37.333 29 -54 29c-16 0 -27.833 -7.83301 -35.5 -23.5s-13.5 -32.5 -17.5 -50.5s-6 -34.333 -6 -49c0 -28.667 8.33301 -73 25 -133l20 -53c11.333 -22 21.666 -38.833 30.999 -50.5s20.333 -22.834 33 -33.501
c10.667 -7.33301 21.334 -11 32.001 -11c20.667 0 35.667 9 45 27c6 9.33301 9 29 9 59v68zM695.998 -82.002c6.66699 12.667 10 27.001 10 43.001c0 24.667 -10.333 41.667 -31 51l-26 6l-37 2l-25 3h-88c-27.333 0 -54 -1.66699 -80 -5l-16 -26
c-2.66699 -6.66699 -4.66699 -13.667 -6 -21c-1.33301 -6.66699 -2 -13.334 -2 -20.001c0 -49.333 35.333 -80 106 -92l33 -4c86 0 140 21 162 63z" />
    <glyph glyph-name="h" unicode="h" horiz-adv-x="1138" 
d="M1101 0l-498.001 -0.00195312c20.667 26 35.167 54.333 43.5 85s12.5 75.334 12.5 134.001v520c0 27.333 -6.16699 48.833 -18.5 64.5s-28.833 23.5 -49.5 23.5c-9.33301 0 -20.333 -2 -33 -6l-16 -10l-31 -23l-31 -26v-543c0 -58.667 4.16699 -103 12.5 -133
s24.166 -58.667 47.499 -86h-502c23.333 24.667 38.666 51.334 45.999 80.001s11 75 11 139v944c0 76.667 -11.333 143 -34 199l-23 47c62.667 0 119.334 3.83301 170.001 11.5s119 21.5 205 41.5l125 31l-29 -88c-20.667 -86 -31 -156.333 -31 -211
c0 -19.333 0.666992 -33 2 -41l23 -293c49.333 49.333 91 102 125 158c31.333 9.33301 58 14 80 14c110.667 0 194.334 -24.167 251.001 -72.5s85 -122.5 85 -222.5v-520c0 -68 3.33301 -115.333 10 -142s22.334 -51.667 47.001 -75z" />
    <glyph glyph-name="i" unicode="i" horiz-adv-x="575" 
d="M444 1149c-41.333 -41.333 -93.333 -61.9971 -156 -61.9971c-58.667 0 -108.5 21.167 -149.5 63.5s-61.5 92.166 -61.5 149.499s20.5 107.166 61.5 149.499s90.833 63.5 149.5 63.5c62.667 0 115.167 -20.333 157.5 -61s63.5 -91.334 63.5 -152.001
c0 -60 -21.667 -110.333 -65 -151zM538 0.00292969l-502.001 0.000976562c20.667 24.667 35.334 54 44.001 88s13 78.333 13 133v602c0 82 -19 147 -57 195h502l-15 -25c-31.333 -54.667 -47 -111.334 -47 -170.001v-604c0 -54.667 4.83301 -98 14.5 -130
s25.5 -61.667 47.5 -89z" />
    <glyph glyph-name="j" unicode="j" horiz-adv-x="581" 
d="M449 1151c-40 -42.667 -90.668 -63.999 -152.001 -63.999s-112.5 20.5 -153.5 61.5s-61.5 92.5 -61.5 154.5c0 58.667 20.833 108 62.5 148s92.5 60 152.5 60c58.667 0 108.834 -20.333 150.501 -61s62.5 -90.667 62.5 -150c0 -58.667 -20.333 -108.334 -61 -149.001z
M544.999 1018c-39.333 -52 -59 -117.667 -59 -197v-616c0 -130 -24.333 -239.333 -73 -328s-118 -155.667 -208 -201h-256c50.667 49.333 88.667 110.5 114 183.5s38 163.5 38 271.5v690c0 74 -13.667 131.333 -41 172l-19 25h504z" />
    <glyph glyph-name="k" unicode="k" horiz-adv-x="1083" 
d="M1134 0l-504.001 -0.00390625c6.66699 18 10 34.333 10 49c1.33301 6.66699 2 13.667 2 21v16c0 18 -3.33301 33.667 -10 47l-170 348v-262c0 -69.333 4.83301 -118 14.5 -146s28.834 -52.333 57.501 -73h-502c22 24.667 37.667 52.667 47 84s14 76.333 14 135v946
c0 98.667 -4 166.334 -12 203.001s-25 72.334 -51 107.001h502l-15 -25c-16 -31.333 -26.833 -64.166 -32.5 -98.499s-8.5 -97.833 -8.5 -190.5v-526l109 213c31.333 62.667 47 106.334 47 131.001c0 6.66699 -1.33301 19.667 -4 39h412l-49 -49
c-26 -28.667 -48 -58 -66 -88l-164 -263l225 -391l61.5 -100l51.5 -80l14 -18z" />
    <glyph glyph-name="l" unicode="l" horiz-adv-x="575" 
d="M538 0h-501.998c22 24.667 37.333 52.667 46 84s13 76.333 13 135v944c0 120 -2.33301 193 -7 219s-20.667 57 -48 93h498c-20.667 -42.667 -35.834 -87.5 -45.501 -134.5s-14.5 -106.833 -14.5 -179.5v-944c0 -58.667 4.16699 -103 12.5 -133s24.166 -58 47.499 -84z
" />
    <glyph glyph-name="m" unicode="m" horiz-adv-x="1683" 
d="M1646 0l-503.997 -0.00195312c39.333 56 59 129 59 219v520l-2 21c-8 44.667 -31 67 -69 67c-8.66699 0 -18.334 -1 -29.001 -3s-20.334 -5 -29.001 -9c-32.667 -14.667 -49 -32.334 -49 -53.001v-541c0 -53.333 2.83301 -92.5 8.5 -117.5s16.5 -51.833 32.5 -80.5
l14 -23h-483c23.333 27.333 39 55.666 47 84.999s12 74 12 134v520l-2 33c-4 35.333 -27 53 -69 53c-14 0 -26.333 -2.66699 -37 -8l-10 -6l-23 -18l-35 -25v-549c0 -50.667 3.16699 -89.667 9.5 -117s18.166 -53.666 35.499 -78.999l17 -23h-504c22 26 37.333 55.333 46 88
s13 76.334 13 131.001v606c0 87.333 -19.667 151.666 -59 192.999h440v-170c60 44.667 108.667 101.334 146 170.001c34 9.33301 60 14 78 14c81.333 0 145 -10.167 191 -30.5s89.333 -61.166 130 -122.499l19 -35c48.667 57.333 91.667 115.333 129 174
c32.667 10.667 62 16 88 16c218 0 327 -98.333 327 -295v-522c0 -65.333 3.83301 -111.666 11.5 -138.999s24.5 -53.333 50.5 -78z" />
    <glyph glyph-name="n" unicode="n" horiz-adv-x="1146" 
d="M1109 0l-504.002 -0.000976562c20.667 27.333 36.167 58 46.5 92s15.5 76.333 15.5 127v518l-2 15c-11.333 48.667 -41.333 73 -90 73c-10 0 -22.333 -5.33301 -37 -16l-21 -21l-37 -28v-541c0 -57.333 4.16699 -101.333 12.5 -132s23.5 -59.667 45.5 -87h-500
c20.667 26 35.334 55.333 44.001 88s13 76.334 13 131.001v604c0 71.333 -14.333 128 -43 170l-16 25h442v-174c60 52 109.333 110 148 174c18.667 4 35.334 7.33301 50.001 10s26.667 4 36 4c225.333 0 338 -97.667 338 -293v-520c0 -58.667 4 -103 12 -133
s23.667 -58.667 47 -86z" />
    <glyph glyph-name="o" unicode="o" horiz-adv-x="1204" 
d="M1134 385c-26 -106.667 -76.501 -194.833 -151.501 -264.5s-162.167 -111.834 -261.5 -126.501c-52 -8 -101.333 -12 -148 -12c-159.333 0 -286.166 42.333 -380.499 127s-141.5 196.334 -141.5 335.001c0 63.333 6.5 120.833 19.5 172.5s35.167 103.5 66.5 155.5
c109.333 176 281.333 264 516 264c144.667 0 264.5 -46 359.5 -138s142.5 -210.333 142.5 -355c0 -52 -7 -104.667 -21 -158zM779.999 244.001l0.00195312 95.998l-2 51c-8 84.667 -24 156.667 -48 216s-55.667 109.666 -95 150.999c-48 47.333 -83.333 73.5 -106 78.5
s-37.334 7.5 -44.001 7.5h-18c-24.667 0 -40.834 -9.66699 -48.501 -29s-11.5 -63.666 -11.5 -132.999l2 -47c0 -80.667 15 -155 45 -223c26 -60 62.333 -110.667 109 -152c20.667 -19.333 39.5 -34.666 56.5 -45.999s33 -20.166 48 -26.499s31.5 -9.5 49.5 -9.5
c35.333 0 56.333 22 63 66z" />
    <glyph glyph-name="p" unicode="p" horiz-adv-x="1193" 
d="M1142 506c0 -161.333 -39.998 -289.833 -119.998 -385.5s-176 -143.5 -288 -143.5c-54.667 0 -106.334 11 -155.001 33c-20.667 10 -37.834 19 -51.501 27s-30.167 20.333 -49.5 37v-174c0 -68.667 4.16699 -116.667 12.5 -144s25.5 -54 51.5 -80h-506
c23.333 26 39 54 47 84s12 76.667 12 140v923c0 66 -14.333 122.667 -43 170l-16 25h444v-144l41 52c72.667 73.333 156 110 250 110c66 0 126.167 -18.333 180.5 -55s96.5 -88.667 126.5 -156c42.667 -94 64 -200.333 64 -319zM741.002 596l-17 66
c-13.333 40.667 -31.333 71.5 -54 92.5s-49 31.5 -79 31.5c-26 0 -52.667 -9.33301 -80 -28l-33 -27v-438l4 -37c11.333 -50.667 42.333 -76 93 -76c20 0 41.667 6.33301 65 19c35.333 20 63 51.5 83 94.5s30 98.833 30 167.5c0 40.667 -4 85.667 -12 135z" />
    <glyph glyph-name="q" unicode="q" horiz-adv-x="1181" 
d="M1145 -324l-504 -0.000976562l16 23c15.333 22 26.333 47.333 33 76s10 71 10 127v209l-34 -37c-4.66699 -5.33301 -11 -14.166 -19 -26.499s-14.667 -23.5 -20 -33.5c-22 -8 -38.667 -13.333 -50 -16c-30 -8 -59.333 -12 -88 -12c-130.667 0 -235.667 35.333 -315 106
c-86 78 -129 187.333 -129 328c0 30 2 61.667 6 95s11 70 21 110c28.667 116 93.334 208 194.001 276c113.333 76.667 263 115 449 115l69 2h359l-23 -49c-23.333 -57.333 -35 -106 -35 -146v-921c0 -66 4.16699 -113.667 12.5 -143s24.166 -57 47.499 -83zM700 288.999
l0.000976562 548.998l-41 12c-5.33301 1.33301 -14 2 -26 2c-56 0 -102.5 -23.5 -139.5 -70.5s-55.5 -117.167 -55.5 -210.5c0 -60 9 -127.333 27 -202c9.33301 -41.333 24.666 -75.666 45.999 -102.999s44.833 -45.666 70.5 -54.999s47.5 -14 65.5 -14
c35.333 0 53 30.667 53 92z" />
    <glyph glyph-name="r" unicode="r" horiz-adv-x="800" 
d="M837 995c-16.667 -56 -28.333 -106.332 -35 -150.999c-8 -40 -13.833 -72.833 -17.5 -98.5s-5.5 -54.5 -5.5 -86.5c-21.333 30.667 -52.666 58.667 -93.999 84c-9.33301 6 -18.5 11.333 -27.5 16s-20.333 9 -34 13s-28.5 6 -44.5 6c-66 0 -99 -38 -99 -114v-447
c0 -58.667 4.16699 -102.667 12.5 -132s24.166 -57.666 47.499 -84.999h-504c20.667 27.333 36 58.666 46 93.999s15 77 15 125v602c0 79.333 -20.333 145 -61 197h442v-180c11.333 30 24.333 53.667 39 71c30 41.333 64.167 72.166 102.5 92.499s75.833 30.5 112.5 30.5
c23.333 0 45.333 -4 66 -12z" />
    <glyph glyph-name="s" unicode="s" horiz-adv-x="827" 
d="M782 299c0 -99.333 -35.5 -176.665 -106.5 -231.998s-175.5 -83 -313.5 -83c-35.333 0 -76.833 2.33301 -124.5 7s-104.5 16.667 -170.5 36v36v33v29v25c0 24 -0.333008 48.333 -1 73s-1 50 -1 76v23l21 -31c10.667 -14 21.667 -27 33 -39
c5.33301 -6.66699 18.333 -18.334 39 -35.001c52.667 -46.667 105.667 -74.667 159 -84c6 -1.33301 13.667 -2 23 -2c26 0 46.167 8.5 60.5 25.5s19.5 39.167 15.5 66.5c-2.66699 11.333 -6.33398 20.333 -11.001 27c-5.33301 8 -15.333 19.667 -30 35l-125 94
c-61.333 48 -110.5 101.667 -147.5 161s-55.5 118.333 -55.5 177c0 76 26.667 143.5 80 202.5s124.333 95.833 213 110.5c31.333 5.33301 69 8 113 8c30 0 67.833 -2 113.5 -6s70.5 -6.66699 74.5 -8c24.667 -6.66699 42.334 -10.667 53.001 -12l43 -11
c-1.33301 -17.333 -2.33301 -32.5 -3 -45.5s-1 -24.167 -1 -33.5c0 -62 6.33301 -123.667 19 -185l-33 35c-52 48 -104 83 -156 105c-20.667 9.33301 -41.667 14 -63 14c-23.333 0 -43.166 -6.83301 -59.499 -20.5s-24.5 -30.834 -24.5 -51.501
c0 -13.333 2.66699 -25.5 8 -36.5s17.666 -26.167 36.999 -45.5l127 -102c73.333 -58.667 124 -112.667 152 -162s42 -107.333 42 -174z" />
    <glyph glyph-name="t" unicode="t" horiz-adv-x="749" 
d="M795 223l-25 -49c-20 -43.333 -39 -92.333 -57 -147l-49 -15c-45.333 -12 -87.5 -20.333 -126.5 -25s-72.833 -7 -101.5 -7c-104.667 0 -184.667 22.833 -240 68.5s-83 107.167 -83 184.5v623h-164c146 84.667 288 188.334 426 311.001l61 56
c8.66699 8 28.667 28.333 60 61v-266h254v-162h-254v-573c0 -44 8.83301 -74.167 26.5 -90.5s51.167 -24.5 100.5 -24.5c22 0 41.5 1.66699 58.5 5s38.5 10.666 64.5 21.999z" />
    <glyph glyph-name="u" unicode="u" horiz-adv-x="1126" 
d="M1093 0l-447.001 0.00195312v150l-26 -35l-27 -35l-67 -80c-18 -4 -36.5 -7.33301 -55.5 -10s-37.5 -4 -55.5 -4c-57.333 0 -105.5 4.66699 -144.5 14s-72.833 26.333 -101.5 51c-47.333 41.333 -73.333 85.666 -78 132.999v9v43l4 120v467c0 82 -21 147 -63 195h502
l-13 -23c-28.667 -60 -43 -117.333 -43 -172v-551c0 -34 4.83301 -57.833 14.5 -71.5s26.834 -20.5 51.501 -20.5c44 0 72 6.16699 84 18.5s18 40.5 18 84.5v540c0 82 -19.667 147 -59 195h504l-25 -49c-13.333 -27.333 -22.833 -53 -28.5 -77s-8.5 -47 -8.5 -69v-604
c0 -58.667 4.83301 -103.334 14.5 -134.001s26.167 -59 49.5 -85z" />
    <glyph glyph-name="v" unicode="v" horiz-adv-x="966" 
d="M1018 1018l-21.999 -32.999c-20.667 -31.333 -37.5 -59.333 -50.5 -84s-24.167 -50.667 -33.5 -78l-275 -823h-321l-261 834c-18.667 57.333 -44.334 107 -77.001 149l-29 35h496c-14 -24.667 -21 -47.334 -21 -68.001c0 -17.333 4 -38.333 12 -63l91 -346l98 356
c6.66699 27.333 10 46.333 10 57c0 7.33301 -1.33301 19 -4 35l-12 29h399z" />
    <glyph glyph-name="w" unicode="w" horiz-adv-x="1464" 
d="M1473 1018c-41.333 -60 -73.002 -140.667 -95.002 -242l-172 -776h-305l-155 575l-170 -575h-316l-162 737c-9.33301 38.667 -20.166 77 -32.499 115s-27.166 75 -44.499 111l-15 28l-14 27h473c-5.33301 -12.667 -9.33301 -24.667 -12 -36s-4 -25.333 -4 -42
c0 -8 1.33301 -23 4 -45l76 -418l147 541h219l148 -541l90 408c5.33301 20 8 32.333 8 37c1.33301 8 2 18.667 2 32c0 12.667 -0.666992 23 -2 31c-1.33301 4 -4 15 -8 33h340z" />
    <glyph glyph-name="x" unicode="x" horiz-adv-x="1024" 
d="M1062 0l-496 -0.00390625l4 16c4 24.667 0 48.667 -12 72l-94 195l-105 -189c-12 -23.333 -18 -41.666 -18 -54.999c0 -15.333 4.66699 -28.333 14 -39h-391l16 16l33 37c23.333 26 42.166 47.833 56.499 65.5s25.5 32.834 33.5 45.501l217 332l-188 338
c-44 76 -95.333 137.333 -154 184h484l-2 -10c-1.33301 -8.66699 -1.33301 -17.667 0 -27c1.33301 -8 6.66602 -22.333 15.999 -43l61 -141l58 125c16 34 24 57.667 24 71c0 2.66699 -1.33301 11 -4 25h396l-31 -25c-48 -39.333 -86.333 -81.666 -115 -126.999l-186 -286
l235 -412c32.667 -56 58.334 -94.167 77.001 -114.5s42.334 -38.166 71.001 -53.499z" />
    <glyph glyph-name="y" unicode="y" horiz-adv-x="1085" 
d="M1137 1018c-31.333 -31.333 -59.334 -67.501 -84.001 -108.501s-51.334 -97.833 -80.001 -170.5l-293 -739c-35.333 -90 -70.833 -158.167 -106.5 -204.5s-81.5 -86.166 -137.5 -119.499h-327c66.667 46.667 124.334 102.5 173.001 167.5s84.334 136.167 107.001 213.5
l-268 682c-42 105.333 -99.333 198.333 -172 279h512c-4 -19.333 -6 -35.666 -6 -48.999c0 -18 6 -47.333 18 -88l113 -387l119 409c5.33301 16.667 8 33.667 8 51c0 23.333 -4.66699 44.666 -14 63.999h438z" />
    <glyph glyph-name="z" unicode="z" horiz-adv-x="876" 
d="M862 254c-26 -57.333 -48.001 -122.999 -66.001 -196.999l-10 -57h-772c23.333 23.333 44.333 59.666 63 108.999l287 739c-13.333 1.33301 -25.166 2.33301 -35.499 3s-18.833 1 -25.5 1c-44 0 -83 -4.66699 -117 -14c-57.333 -15.333 -108 -38.666 -152 -69.999l17 68
c13.333 65.333 23 126 29 182h763l-12 -14l-10 -17c-4 -5.33301 -11.833 -21 -23.5 -47s-22.167 -50.667 -31.5 -74l-267 -690h97c46 0 89.5 6.16699 130.5 18.5s86.167 32.166 135.5 59.499z" />
    <glyph glyph-name="braceleft" unicode="{" horiz-adv-x="751" 
d="M692 -250h-292.999c-64 0 -113.833 17.833 -149.5 53.5s-53.5 86.167 -53.5 151.5v635c0 40.667 -13 75.334 -39 104.001s-58.667 43 -98 43c39.333 0 72 13.667 98 41s39 63 39 107v635c0 65.333 17.833 115.666 53.5 150.999s85.5 53 149.5 53h293v-176h-27
c-40.667 0 -69.834 -7.5 -87.501 -22.5s-26.5 -40.167 -26.5 -75.5v-520c0 -87.333 -42.333 -147.333 -127 -180l-56 -13l56 -12c38 -15.333 68.667 -39.333 92 -72s35 -68.667 35 -108v-520c0 -66 38 -99 114 -99h27v-176z" />
    <glyph glyph-name="bar" unicode="|" horiz-adv-x="413" 
d="M354 0h-295v1475h295v-1475z" />
    <glyph glyph-name="braceright" unicode="}" horiz-adv-x="751" 
d="M692 737c-38.667 0 -71.1689 -14.001 -97.502 -42.001s-39.5 -63 -39.5 -105v-635c0 -65.333 -17.833 -115.833 -53.5 -151.5s-85.5 -53.5 -149.5 -53.5h-293v176h27c40.667 0 69.834 7.5 87.501 22.5s26.5 40.5 26.5 76.5v520c0 39.333 11.667 75 35 107
s54.666 56.333 93.999 73l54 12l-54 13c-39.333 16 -70.666 40 -93.999 72s-35 68 -35 108v520c0 35.333 -8.16699 60.5 -24.5 75.5s-46.166 22.5 -89.499 22.5h-27v176h293c64 0 113.833 -17.667 149.5 -53s53.5 -85.666 53.5 -150.999v-635
c0 -42.667 13.167 -78 39.5 -106s58.833 -42 97.5 -42z" />
    <glyph glyph-name="asciitilde" unicode="~" horiz-adv-x="1062" 
d="M1003 950l-4.00293 -55c-9.33301 -114.667 -38 -201.334 -86 -260.001s-110.667 -88 -188 -88c-24.667 0 -47.667 2.33301 -69 7s-43 11 -65 19l-172 64l-43 16c-16 6 -26.667 9 -32 9c-26 0 -46 -21.333 -60 -64c-5.33301 -13.333 -8 -25 -8 -35l-2 -20h-215l2 57
c10.667 114.667 40.334 201.334 89.001 260.001s111.334 88 188.001 88c36.667 0 80.334 -8.66699 131.001 -26l174 -66l41 -14c12 -5.33301 24.333 -8 37 -8c24 0 43 21 57 63l8 35l2 18h215z" />
    <glyph glyph-name="dieresis" unicode="&#xa8;" horiz-adv-x="1024" 
 />
    <glyph glyph-name="copyright" unicode="&#xa9;" horiz-adv-x="1765" 
d="M1646 737c0 -211.333 -74.5 -391.5 -223.5 -540.5s-329.167 -223.5 -540.5 -223.5c-212 0 -392.333 74.5 -541 223.5s-223 329.167 -223 540.5c0 210.667 74.333 391 223 541s329 225 541 225c211.333 0 391.5 -74.333 540.5 -223s223.5 -329.667 223.5 -543zM1320 289
c122.667 125.333 183.999 274.666 183.999 447.999c0 84.667 -15.333 165.334 -46 242.001s-76 145.667 -136 207s-127.5 107.333 -202.5 138s-154.167 46 -237.5 46c-82 0 -160.5 -15.333 -235.5 -46s-141.833 -76 -200.5 -136s-104.5 -129.333 -137.5 -208
s-49.5 -159.667 -49.5 -243c0 -172 61.667 -321.333 185 -448c58.667 -58.667 126.5 -104.167 203.5 -136.5s155.167 -48.5 234.5 -48.5c82 0 160.833 15.5 236.5 46.5s142.834 77.167 201.501 138.5zM1208 1087l-91.002 -132.998c-38 31.333 -73.667 50.166 -107 56.499
s-59.666 9.5 -78.999 9.5c-69.333 0 -130 -22.167 -182 -66.5s-83.333 -101.5 -94 -171.5c-3.33301 -24.667 -5 -42.334 -5 -53.001c0 -74 21.667 -136.833 65 -188.5s101 -83.167 173 -94.5c22 -2.66699 37.667 -4 47 -4c36.667 0 73.667 7.66699 111 23l35.5 20.5
c11.667 7 23.5 15.833 35.5 26.5l88 -135c-54 -42.667 -114.667 -72 -182 -88c-39.333 -8.66699 -77.333 -13 -114 -13c-109.333 0 -203 31.5 -281 94.5s-128 149.167 -150 258.5c-8 32.667 -12 66.667 -12 102c0 14 1 29.5 3 46.5s3.66699 30.167 5 39.5
c20.667 110.667 71.334 200.167 152.001 268.5s177 102.5 289 102.5c26 0 53.333 -2 82 -6c80 -15.333 150.333 -47 211 -95z" />
    <glyph glyph-name="registered" unicode="&#xae;" horiz-adv-x="1765" 
d="M1646 737c0 -211.333 -74.5 -391.5 -223.5 -540.5s-329.167 -223.5 -540.5 -223.5c-212 0 -392.333 74.5 -541 223.5s-223 329.167 -223 540.5c0 210.667 74.333 391 223 541s329 225 541 225c211.333 0 391.5 -74.333 540.5 -223s223.5 -329.667 223.5 -543zM1320 289
c122.667 125.333 183.999 274.666 183.999 447.999c0 84.667 -15.333 165.334 -46 242.001s-76 145.667 -136 207s-127.5 107.333 -202.5 138s-154.167 46 -237.5 46c-82 0 -160.5 -15.333 -235.5 -46s-141.833 -76 -200.5 -136s-104.5 -129.333 -137.5 -208
s-49.5 -159.667 -49.5 -243c0 -172 61.667 -321.333 185 -448c58.667 -58.667 126.5 -104.167 203.5 -136.5s155.167 -48.5 234.5 -48.5c82 0 160.833 15.5 236.5 46.5s142.834 77.167 201.501 138.5zM1238 309l-209.001 -0.000976562l-245 396v-396h-179v875h275
c57.333 0 99.333 -3.5 126 -10.5s54.334 -21.5 83.001 -43.5c46 -34 75.333 -81 88 -141c2.66699 -9.33301 4.66699 -21.166 6 -35.499s2 -27.166 2 -38.499c0 -57.333 -15 -105.333 -45 -144s-73.667 -66.334 -131 -83.001l-17 -4zM998.998 878.999
c2.66699 18.667 4.00098 31.667 4.00098 39c0 38 -12.667 67.5 -38 88.5s-61.333 31.5 -108 31.5h-73v-262h67c83.333 0 132.666 34.333 147.999 103z" />
    <glyph glyph-name="acute" unicode="&#xb4;" horiz-adv-x="1024" 
 />
    <glyph glyph-name="paragraph" unicode="&#xb6;" horiz-adv-x="1024" 
d="M929 1435l-0.000976562 -70h-127v-1365h-82v1365h-166v-1365h-84v738c-116 5.33301 -207.833 39.5 -275.5 102.5s-101.5 144.833 -101.5 245.5c0 104.667 35.833 189 107.5 253s166.834 96 285.501 96h443z" />
    <glyph glyph-name="onequarter" unicode="&#xbc;" horiz-adv-x="1780" 
 />
    <glyph glyph-name="onehalf" unicode="&#xbd;" horiz-adv-x="1780" 
 />
    <glyph glyph-name="threequarters" unicode="&#xbe;" horiz-adv-x="1780" 
 />
    <glyph glyph-name="Agrave" unicode="&#xc0;" 
d="M867 1579h-195l-268 264h330zM1443 0h-590c10.667 32.667 16 71 16 115c0 30 -4 61.333 -12 94l-41 162h-258l-33 -107c-6.66699 -26 -11 -57 -13 -93s-3 -67.667 -3 -95l10 -76h-592c84.667 78 148 175 190 291l320 883c23.333 65.333 41.5 121.5 54.5 168.5
s22.167 91.167 27.5 132.5h428l6 -41l8 -39c14 -64.667 33.333 -137.667 58 -219l249 -834c28.667 -94 69.667 -183.333 123 -268zM797 635l-100 442l-108 -442h208z" />
    <glyph glyph-name="Aacute" unicode="&#xc1;" 
d="M1051 1845l-282 -262h-191l144 262h329zM1443 0h-590c10.667 32.667 16 71 16 115c0 30 -4 61.333 -12 94l-41 162h-258l-33 -107c-6.66699 -26 -11 -57 -13 -93s-3 -67.667 -3 -95l10 -76h-592c84.667 78 148 175 190 291l320 883c23.333 65.333 41.5 121.5 54.5 168.5
s22.167 91.167 27.5 132.5h428l6 -41l8 -39c14 -64.667 33.333 -137.667 58 -219l249 -834c28.667 -94 69.667 -183.333 123 -268zM797 635l-100 442l-108 -442h208z" />
    <glyph glyph-name="Acircumflex" unicode="&#xc2;" 
d="M1065 1581h-220l-112 107l-111 -105h-223l176 246h344zM1443 0h-590c10.667 32.667 16 71 16 115c0 30 -4 61.333 -12 94l-41 162h-258l-33 -107c-6.66699 -26 -11 -57 -13 -93s-3 -67.667 -3 -95l10 -76h-592c84.667 78 148 175 190 291l320 883
c23.333 65.333 41.5 121.5 54.5 168.5s22.167 91.167 27.5 132.5h428l6 -41l8 -39c14 -64.667 33.333 -137.667 58 -219l249 -834c28.667 -94 69.667 -183.333 123 -268zM797 635l-100 442l-108 -442h208z" />
    <glyph glyph-name="Atilde" unicode="&#xc3;" 
d="M1090 1851c5.33301 -24 8 -43 8 -57c0 -58.667 -21.5 -108.834 -64.5 -150.501s-95.833 -62.5 -158.5 -62.5c-12.667 1.33301 -21.667 2 -27 2l-55 8l-20 4l-66 13l-57 12l-11 2c-10.667 2.66699 -18 4 -22 4c-26 0 -36.333 -12.333 -31 -37h-196
c-3.33301 19.333 -5 34.333 -5 45c0 15.333 2.33301 31 7 47c26 120.667 102.333 181 229 181c10.667 0 22.167 -1.16699 34.5 -3.5s24.833 -4.16602 37.5 -5.49902l77 -16l9 -2l82 -14l22 -2c18 5.33301 23.667 16 17 32h190zM1443 0h-590c10.667 32.667 16 71 16 115
c0 30 -4 61.333 -12 94l-41 162h-258l-33 -107c-6.66699 -26 -11 -57 -13 -93s-3 -67.667 -3 -95l10 -76h-592c84.667 78 148 175 190 291l320 883c23.333 65.333 41.5 121.5 54.5 168.5s22.167 91.167 27.5 132.5h428l6 -41l8 -39c14 -64.667 33.333 -137.667 58 -219
l249 -834c28.667 -94 69.667 -183.333 123 -268zM797 635l-100 442l-108 -442h208z" />
    <glyph glyph-name="Egrave" unicode="&#xc8;" horiz-adv-x="1013" 
d="M687 1579h-194l-269 264h330zM1042 330l-147.997 -330h-856c27.333 27.333 47.5 58.333 60.5 93s19.5 77.334 19.5 128.001v1039c0 81.333 -25.333 153 -76 215h895l-141 -324l-53 23c-32 10.667 -62.333 18.667 -91 24s-59.334 8 -92.001 8v-338h348l-178 -299
c-13.333 6 -23.333 10.333 -30 13c-22 9.33301 -38.167 15.666 -48.5 18.999s-24.333 7.5 -42 12.5s-34.167 8.83301 -49.5 11.5v-353c97.333 0 182.166 3.83301 254.499 11.5s148.166 23.167 227.499 46.5z" />
    <glyph glyph-name="Eacute" unicode="&#xc9;" horiz-adv-x="1013" 
d="M872 1845l-283 -262h-191l144 262h330zM1042 330l-147.997 -330h-856c27.333 27.333 47.5 58.333 60.5 93s19.5 77.334 19.5 128.001v1039c0 81.333 -25.333 153 -76 215h895l-141 -324l-53 23c-32 10.667 -62.333 18.667 -91 24s-59.334 8 -92.001 8v-338h348l-178 -299
c-13.333 6 -23.333 10.333 -30 13c-22 9.33301 -38.167 15.666 -48.5 18.999s-24.333 7.5 -42 12.5s-34.167 8.83301 -49.5 11.5v-353c97.333 0 182.166 3.83301 254.499 11.5s148.166 23.167 227.499 46.5z" />
    <glyph glyph-name="Ecircumflex" unicode="&#xca;" horiz-adv-x="1013" 
d="M839 1581h-219l-113 107l-111 -105h-223l176 246h344zM1042 330l-147.997 -330h-856c27.333 27.333 47.5 58.333 60.5 93s19.5 77.334 19.5 128.001v1039c0 81.333 -25.333 153 -76 215h895l-141 -324l-53 23c-32 10.667 -62.333 18.667 -91 24s-59.334 8 -92.001 8v-338
h348l-178 -299c-13.333 6 -23.333 10.333 -30 13c-22 9.33301 -38.167 15.666 -48.5 18.999s-24.333 7.5 -42 12.5s-34.167 8.83301 -49.5 11.5v-353c97.333 0 182.166 3.83301 254.499 11.5s148.166 23.167 227.499 46.5z" />
    <glyph glyph-name="Igrave" unicode="&#xcc;" horiz-adv-x="675" 
d="M519 1579h-194l-269 264h330zM638 1475c-16 -20.667 -32.333 -48 -49 -82c-20.667 -48 -31 -92.333 -31 -133v-1041c0 -87.333 25.333 -160.333 76 -219h-594c50.667 58.667 76 131.667 76 219v1043c0 90 -26.667 161 -80 213h602z" />
    <glyph glyph-name="Iacute" unicode="&#xcd;" horiz-adv-x="675" 
d="M704 1845l-283 -262h-190l143 262h330zM638 1475c-16 -20.667 -32.333 -48 -49 -82c-20.667 -48 -31 -92.333 -31 -133v-1041c0 -87.333 25.333 -160.333 76 -219h-594c50.667 58.667 76 131.667 76 219v1043c0 90 -26.667 161 -80 213h602z" />
    <glyph glyph-name="Ograve" unicode="&#xd2;" horiz-adv-x="1630" 
d="M997 1579h-195l-268 264h330zM1540 950c20 -82 30.002 -161.667 30.002 -239c0 -210.667 -69.833 -384.5 -209.5 -521.5s-323.5 -205.5 -551.5 -205.5c-218.667 0 -398.334 68.833 -539.001 206.5s-211 319.167 -211 544.5c0 229.333 68.333 413 205 551s321 207 553 207
c188 0 344.167 -46.5 468.5 -139.5s209.166 -227.5 254.499 -403.5zM1132 596c0 126.667 -17.333 236.169 -52 328.502s-85 167.166 -151 224.499c-47.333 40.667 -94.333 70.667 -141 90s-87.667 29 -123 29c-31.333 0 -56.5 -4.83301 -75.5 -14.5
s-31.167 -22.834 -36.5 -39.501c-10 -24 -18.333 -50 -25 -78s-12.5 -64.167 -17.5 -108.5s-7.5 -91.833 -7.5 -142.5c0 -170.667 34.167 -312 102.5 -424s160.5 -186.333 276.5 -223c30 -10 50.667 -16.333 62 -19c31.333 -9.33301 54.333 -14 69 -14
c36 0 67 53.333 93 160c17.333 68 26 145 26 231z" />
    <glyph glyph-name="Oacute" unicode="&#xd3;" horiz-adv-x="1630" 
d="M1181 1845l-282 -262h-191l144 262h329zM1540 950c20 -82 30.002 -161.667 30.002 -239c0 -210.667 -69.833 -384.5 -209.5 -521.5s-323.5 -205.5 -551.5 -205.5c-218.667 0 -398.334 68.833 -539.001 206.5s-211 319.167 -211 544.5c0 229.333 68.333 413 205 551
s321 207 553 207c188 0 344.167 -46.5 468.5 -139.5s209.166 -227.5 254.499 -403.5zM1132 596c0 126.667 -17.333 236.169 -52 328.502s-85 167.166 -151 224.499c-47.333 40.667 -94.333 70.667 -141 90s-87.667 29 -123 29c-31.333 0 -56.5 -4.83301 -75.5 -14.5
s-31.167 -22.834 -36.5 -39.501c-10 -24 -18.333 -50 -25 -78s-12.5 -64.167 -17.5 -108.5s-7.5 -91.833 -7.5 -142.5c0 -170.667 34.167 -312 102.5 -424s160.5 -186.333 276.5 -223c30 -10 50.667 -16.333 62 -19c31.333 -9.33301 54.333 -14 69 -14
c36 0 67 53.333 93 160c17.333 68 26 145 26 231z" />
    <glyph glyph-name="Ocircumflex" unicode="&#xd4;" horiz-adv-x="1630" 
d="M1149 1581h-220l-112 107l-111 -105h-223l176 246h344zM1540 950c20 -82 30.002 -161.667 30.002 -239c0 -210.667 -69.833 -384.5 -209.5 -521.5s-323.5 -205.5 -551.5 -205.5c-218.667 0 -398.334 68.833 -539.001 206.5s-211 319.167 -211 544.5
c0 229.333 68.333 413 205 551s321 207 553 207c188 0 344.167 -46.5 468.5 -139.5s209.166 -227.5 254.499 -403.5zM1132 596c0 126.667 -17.333 236.169 -52 328.502s-85 167.166 -151 224.499c-47.333 40.667 -94.333 70.667 -141 90s-87.667 29 -123 29
c-31.333 0 -56.5 -4.83301 -75.5 -14.5s-31.167 -22.834 -36.5 -39.501c-10 -24 -18.333 -50 -25 -78s-12.5 -64.167 -17.5 -108.5s-7.5 -91.833 -7.5 -142.5c0 -170.667 34.167 -312 102.5 -424s160.5 -186.333 276.5 -223c30 -10 50.667 -16.333 62 -19
c31.333 -9.33301 54.333 -14 69 -14c36 0 67 53.333 93 160c17.333 68 26 145 26 231z" />
    <glyph glyph-name="Otilde" unicode="&#xd5;" horiz-adv-x="1630" 
d="M1165 1851c5.33301 -24 8.00098 -43 8.00098 -57c0 -58.667 -21.5 -108.834 -64.5 -150.501s-95.833 -62.5 -158.5 -62.5c-12.667 1.33301 -21.667 2 -27 2l-55 8l-21 4l-65 13l-57 12l-11 2c-10.667 2.66699 -18 4 -22 4c-26 0 -36.333 -12.333 -31 -37h-196
c-3.33301 19.333 -5 34.333 -5 45c0 15.333 2.33301 31 7 47c25.333 120.667 101.666 181 228.999 181c10.667 0 22.167 -1.16699 34.5 -3.5s24.833 -4.16602 37.5 -5.49902l77 -16l9 -2l82 -14l22 -2c18 5.33301 23.333 16 16 32h191zM1540 950
c20 -82 30.002 -161.667 30.002 -239c0 -210.667 -69.833 -384.5 -209.5 -521.5s-323.5 -205.5 -551.5 -205.5c-218.667 0 -398.334 68.833 -539.001 206.5s-211 319.167 -211 544.5c0 229.333 68.333 413 205 551s321 207 553 207c188 0 344.167 -46.5 468.5 -139.5
s209.166 -227.5 254.499 -403.5zM1132 596c0 126.667 -17.333 236.169 -52 328.502s-85 167.166 -151 224.499c-47.333 40.667 -94.333 70.667 -141 90s-87.667 29 -123 29c-31.333 0 -56.5 -4.83301 -75.5 -14.5s-31.167 -22.834 -36.5 -39.501
c-10 -24 -18.333 -50 -25 -78s-12.5 -64.167 -17.5 -108.5s-7.5 -91.833 -7.5 -142.5c0 -170.667 34.167 -312 102.5 -424s160.5 -186.333 276.5 -223c30 -10 50.667 -16.333 62 -19c31.333 -9.33301 54.333 -14 69 -14c36 0 67 53.333 93 160c17.333 68 26 145 26 231z" />
    <glyph glyph-name="Ugrave" unicode="&#xd9;" horiz-adv-x="1413" 
d="M888 1579h-195l-268 264h330zM1367 0l-512.001 -0.000976562c5.33301 15.333 9.33301 30.833 12 46.5s4 32.167 4 49.5c-68 -61.333 -147 -97.333 -237 -108c-16.667 -1.33301 -31.167 -2.33301 -43.5 -3s-22.5 -1 -30.5 -1c-136.667 0 -244.834 46 -324.501 138
s-119.5 220.667 -119.5 386v754c0 86 -25.333 157 -76 213h588c-18 -26 -31.667 -52 -41 -78c-19.333 -49.333 -29 -93.666 -29 -132.999v-822l2 -43c14 -99.333 59 -149 135 -149c8.66699 0 21.834 1.33301 39.501 4s37.334 9.16699 59.001 19.5s36.667 18.833 45 25.5
s12.5 12.667 12.5 18v945c0 84.667 -24.667 155.667 -74 213h586l-20 -35c-33.333 -61.333 -50 -120.666 -50 -177.999v-1041c0 -42 10.333 -89 31 -141c10.667 -28.667 25 -55.334 43 -80.001z" />
    <glyph glyph-name="Uacute" unicode="&#xda;" horiz-adv-x="1413" 
d="M1072 1845l-282 -262h-191l143 262h330zM1367 0l-512.001 -0.000976562c5.33301 15.333 9.33301 30.833 12 46.5s4 32.167 4 49.5c-68 -61.333 -147 -97.333 -237 -108c-16.667 -1.33301 -31.167 -2.33301 -43.5 -3s-22.5 -1 -30.5 -1
c-136.667 0 -244.834 46 -324.501 138s-119.5 220.667 -119.5 386v754c0 86 -25.333 157 -76 213h588c-18 -26 -31.667 -52 -41 -78c-19.333 -49.333 -29 -93.666 -29 -132.999v-822l2 -43c14 -99.333 59 -149 135 -149c8.66699 0 21.834 1.33301 39.501 4
s37.334 9.16699 59.001 19.5s36.667 18.833 45 25.5s12.5 12.667 12.5 18v945c0 84.667 -24.667 155.667 -74 213h586l-20 -35c-33.333 -61.333 -50 -120.666 -50 -177.999v-1041c0 -42 10.333 -89 31 -141c10.667 -28.667 25 -55.334 43 -80.001z" />
    <glyph glyph-name="Yacute" unicode="&#xdd;" horiz-adv-x="1144" 
d="M1233 1475c-38 -34.667 -70.332 -70.999 -96.999 -108.999s-55.667 -92 -87 -162l-263 -573v-412c0 -61.333 17.333 -122 52 -182l24 -37h-592c48 53.333 72 125.666 72 216.999v416l-256 569c-30 65.333 -58.333 118.5 -85 159.5s-56.334 78.833 -89.001 113.5h584
c-12.667 -24.667 -19 -50 -19 -76c0 -22 5.66699 -48 17 -78l147 -426l154 426c9.33301 24.667 14 48.667 14 72c0 28.667 -11 56 -33 82h457zM1025 1845l-282 -262h-191l144 262h329z" />
    <glyph glyph-name="agrave" unicode="&#xe0;" horiz-adv-x="1058" 
d="M711 1122h-195l-268 264h329zM1020 0l-445.002 0.00488281l15 102l-37 -32l-39 -31l-33 -29l-33 -28c-5.33301 -1.33301 -15.166 -2 -29.499 -2h-33.5h-23c-99.333 0 -176.333 25.167 -231 75.5s-82 115.166 -82 194.499c0 17.333 2 36.333 6 57l17 58
c18.667 44.667 46.5 82.334 83.5 113.001s90.167 59.667 159.5 87l144 56l6 2l69 28c30 15.333 45 38.666 45 69.999c0 27.333 -12.5 53.666 -37.5 78.999s-59.5 38 -103.5 38c-28.667 0 -63.167 -5.83301 -103.5 -17.5s-85.5 -29.167 -135.5 -52.5l-48 -23l-28 -14
c18.667 45.333 33 89.666 43 132.999l24 125c38.667 11.333 67.334 19 86.001 23c49.333 10.667 96.666 16 141.999 16c199.333 0 339.5 -20.833 420.5 -62.5s121.5 -115.834 121.5 -222.501v-524c0 -62.667 3.83301 -108.334 11.5 -137.001s23.834 -56 48.501 -82z
M576.998 217.005v258h-96c-17.333 0 -29 -0.666992 -35 -2c-12 -2.66699 -20.667 -15 -26 -37c-4 -8 -6 -19.667 -6 -35c0 -84.667 7.16699 -141.667 21.5 -171s43.833 -44 88.5 -44c12.667 -1.33301 21 -2 25 -2c18.667 0 28 11 28 33z" />
    <glyph glyph-name="aacute" unicode="&#xe1;" horiz-adv-x="1058" 
d="M895 1389l-283 -263h-190l143 263h330zM1020 0l-445.002 0.00488281l15 102l-37 -32l-39 -31l-33 -29l-33 -28c-5.33301 -1.33301 -15.166 -2 -29.499 -2h-33.5h-23c-99.333 0 -176.333 25.167 -231 75.5s-82 115.166 -82 194.499c0 17.333 2 36.333 6 57l17 58
c18.667 44.667 46.5 82.334 83.5 113.001s90.167 59.667 159.5 87l144 56l6 2l69 28c30 15.333 45 38.666 45 69.999c0 27.333 -12.5 53.666 -37.5 78.999s-59.5 38 -103.5 38c-28.667 0 -63.167 -5.83301 -103.5 -17.5s-85.5 -29.167 -135.5 -52.5l-48 -23l-28 -14
c18.667 45.333 33 89.666 43 132.999l24 125c38.667 11.333 67.334 19 86.001 23c49.333 10.667 96.666 16 141.999 16c199.333 0 339.5 -20.833 420.5 -62.5s121.5 -115.834 121.5 -222.501v-524c0 -62.667 3.83301 -108.334 11.5 -137.001s23.834 -56 48.501 -82z
M576.998 217.005v258h-96c-17.333 0 -29 -0.666992 -35 -2c-12 -2.66699 -20.667 -15 -26 -37c-4 -8 -6 -19.667 -6 -35c0 -84.667 7.16699 -141.667 21.5 -171s43.833 -44 88.5 -44c12.667 -1.33301 21 -2 25 -2c18.667 0 28 11 28 33z" />
    <glyph glyph-name="acircumflex" unicode="&#xe2;" horiz-adv-x="1058" 
d="M862 1124h-219l-113 107l-110 -105h-224l177 246h344zM1020 0l-445.002 0.00488281l15 102l-37 -32l-39 -31l-33 -29l-33 -28c-5.33301 -1.33301 -15.166 -2 -29.499 -2h-33.5h-23c-99.333 0 -176.333 25.167 -231 75.5s-82 115.166 -82 194.499c0 17.333 2 36.333 6 57
l17 58c18.667 44.667 46.5 82.334 83.5 113.001s90.167 59.667 159.5 87l144 56l6 2l69 28c30 15.333 45 38.666 45 69.999c0 27.333 -12.5 53.666 -37.5 78.999s-59.5 38 -103.5 38c-28.667 0 -63.167 -5.83301 -103.5 -17.5s-85.5 -29.167 -135.5 -52.5l-48 -23l-28 -14
c18.667 45.333 33 89.666 43 132.999l24 125c38.667 11.333 67.334 19 86.001 23c49.333 10.667 96.666 16 141.999 16c199.333 0 339.5 -20.833 420.5 -62.5s121.5 -115.834 121.5 -222.501v-524c0 -62.667 3.83301 -108.334 11.5 -137.001s23.834 -56 48.501 -82z
M576.998 217.005v258h-96c-17.333 0 -29 -0.666992 -35 -2c-12 -2.66699 -20.667 -15 -26 -37c-4 -8 -6 -19.667 -6 -35c0 -84.667 7.16699 -141.667 21.5 -171s43.833 -44 88.5 -44c12.667 -1.33301 21 -2 25 -2c18.667 0 28 11 28 33z" />
    <glyph glyph-name="atilde" unicode="&#xe3;" horiz-adv-x="1058" 
d="M878 1395c6 -24.667 9.00195 -44 9.00195 -58c0 -58.667 -21.5 -108.834 -64.5 -150.501s-96.167 -62.5 -159.5 -62.5c-12 1.33301 -20.667 2 -26 2l-56 9l-20 4l-66 12l-57 12l-10 2c-11.333 2.66699 -19 4 -23 4c-26 0 -36 -12 -30 -36h-197
c-2.66699 18.667 -4 33.667 -4 45c0 14.667 2 30.334 6 47.001c26 120 102.333 180 229 180c11.333 0 23.166 -1 35.499 -3s24.5 -3.66699 36.5 -5l78 -17l8 -2l82 -14l23 -2c17.333 5.33301 22.666 16.333 15.999 33h190zM1020 0l-445.002 0.00488281l15 102l-37 -32
l-39 -31l-33 -29l-33 -28c-5.33301 -1.33301 -15.166 -2 -29.499 -2h-33.5h-23c-99.333 0 -176.333 25.167 -231 75.5s-82 115.166 -82 194.499c0 17.333 2 36.333 6 57l17 58c18.667 44.667 46.5 82.334 83.5 113.001s90.167 59.667 159.5 87l144 56l6 2l69 28
c30 15.333 45 38.666 45 69.999c0 27.333 -12.5 53.666 -37.5 78.999s-59.5 38 -103.5 38c-28.667 0 -63.167 -5.83301 -103.5 -17.5s-85.5 -29.167 -135.5 -52.5l-48 -23l-28 -14c18.667 45.333 33 89.666 43 132.999l24 125c38.667 11.333 67.334 19 86.001 23
c49.333 10.667 96.666 16 141.999 16c199.333 0 339.5 -20.833 420.5 -62.5s121.5 -115.834 121.5 -222.501v-524c0 -62.667 3.83301 -108.334 11.5 -137.001s23.834 -56 48.501 -82zM577 217.005v258h-96c-17.333 0 -29 -0.666992 -35 -2c-12 -2.66699 -20.667 -15 -26 -37
c-4 -8 -6 -19.667 -6 -35c0 -84.667 7.16699 -141.667 21.5 -171s43.833 -44 88.5 -44c12.667 -1.33301 21 -2 25 -2c18.667 0 28 11 28 33z" />
    <glyph glyph-name="egrave" unicode="&#xe8;" horiz-adv-x="1017" 
d="M690 1122h-194l-269 264h330zM965 487l-2.99902 -38.001h-520l4 -46c12.667 -64 37.667 -112.667 75 -146s90.333 -50 159 -50c61.333 0 137 16.333 227 49l47 18c-14.667 -21.333 -28.167 -42.333 -40.5 -63s-23.333 -42.167 -33 -64.5s-16.5 -38.5 -20.5 -48.5
c-12 -27.333 -21.667 -53.333 -29 -78c-27.333 -8 -56.333 -15 -87 -21s-58.334 -9 -83.001 -9c-196.667 0 -346.667 38.667 -450 116c-109.333 82 -164 204.333 -164 367c0 52 6 110 18 174c19.333 92.667 56.666 170.834 111.999 234.501s123.333 107.167 204 130.5
c34 10.667 65.667 18 95 22s60.333 6 93 6c128.667 0 226.834 -47.333 294.501 -142s101.5 -231.667 101.5 -411zM661.001 650.999c0 76.667 -7.83301 131.332 -23.5 163.999s-40.5 49 -74.5 49c-38 2.66699 -68 -11.666 -90 -42.999s-33 -88 -33 -170l-2 -26h221z" />
    <glyph glyph-name="eacute" unicode="&#xe9;" horiz-adv-x="1017" 
d="M874 1389l-282 -263h-191l144 263h329zM965 487l-2.99902 -38.001h-520l4 -46c12.667 -64 37.667 -112.667 75 -146s90.333 -50 159 -50c61.333 0 137 16.333 227 49l47 18c-14.667 -21.333 -28.167 -42.333 -40.5 -63s-23.333 -42.167 -33 -64.5
s-16.5 -38.5 -20.5 -48.5c-12 -27.333 -21.667 -53.333 -29 -78c-27.333 -8 -56.333 -15 -87 -21s-58.334 -9 -83.001 -9c-196.667 0 -346.667 38.667 -450 116c-109.333 82 -164 204.333 -164 367c0 52 6 110 18 174c19.333 92.667 56.666 170.834 111.999 234.501
s123.333 107.167 204 130.5c34 10.667 65.667 18 95 22s60.333 6 93 6c128.667 0 226.834 -47.333 294.501 -142s101.5 -231.667 101.5 -411zM661.001 650.999c0 76.667 -7.83301 131.332 -23.5 163.999s-40.5 49 -74.5 49c-38 2.66699 -68 -11.666 -90 -42.999
s-33 -88 -33 -170l-2 -26h221z" />
    <glyph glyph-name="ecircumflex" unicode="&#xea;" horiz-adv-x="1017" 
d="M897 1124h-220l-112 107l-111 -105h-223l176 246h344zM965 487l-2.99902 -38.001h-520l4 -46c12.667 -64 37.667 -112.667 75 -146s90.333 -50 159 -50c61.333 0 137 16.333 227 49l47 18c-14.667 -21.333 -28.167 -42.333 -40.5 -63s-23.333 -42.167 -33 -64.5
s-16.5 -38.5 -20.5 -48.5c-12 -27.333 -21.667 -53.333 -29 -78c-27.333 -8 -56.333 -15 -87 -21s-58.334 -9 -83.001 -9c-196.667 0 -346.667 38.667 -450 116c-109.333 82 -164 204.333 -164 367c0 52 6 110 18 174c19.333 92.667 56.666 170.834 111.999 234.501
s123.333 107.167 204 130.5c34 10.667 65.667 18 95 22s60.333 6 93 6c128.667 0 226.834 -47.333 294.501 -142s101.5 -231.667 101.5 -411zM661.001 650.999c0 76.667 -7.83301 131.332 -23.5 163.999s-40.5 49 -74.5 49c-38 2.66699 -68 -11.666 -90 -42.999
s-33 -88 -33 -170l-2 -26h221z" />
    <glyph glyph-name="igrave" unicode="&#xec;" horiz-adv-x="575" 
d="M469 1122h-195l-268 264h330zM538 0h-501c20 24.667 34.5 54 43.5 88s13.5 78.333 13.5 133v602c0 82 -19 147 -57 195h501l-26 -51c-22 -49.333 -33 -97.333 -33 -144v-604c0 -49.333 4.83301 -91 14.5 -125s24.5 -65.333 44.5 -94z" />
    <glyph glyph-name="iacute" unicode="&#xed;" horiz-adv-x="575" 
d="M652 1389l-282 -263h-191l144 263h329zM538 0h-502.002c20.667 24.667 35.334 54 44.001 88s13 78.333 13 133v602c0 82 -19 147 -57 195h502l-27 -51c-22 -49.333 -33 -97.333 -33 -144v-604c0 -49.333 4.83301 -91 14.5 -125s24.834 -65.333 45.501 -94z" />
    <glyph glyph-name="ograve" unicode="&#xf2;" horiz-adv-x="1204" 
d="M784 1122h-194l-269 264h330zM1134 385c-26 -106.667 -76.501 -194.833 -151.501 -264.5s-162.167 -111.834 -261.5 -126.501c-52 -8 -101.333 -12 -148 -12c-159.333 0 -286.166 42.333 -380.499 127s-141.5 196.334 -141.5 335.001c0 63.333 6.5 120.833 19.5 172.5
s35.167 103.5 66.5 155.5c109.333 176 281.333 264 516 264c144.667 0 264.5 -46 359.5 -138s142.5 -210.333 142.5 -355c0 -52 -7 -104.667 -21 -158zM779.999 244.001l0.00195312 95.998l-2 51c-8 84.667 -24 156.667 -48 216s-55.667 109.666 -95 150.999
c-48 47.333 -83.333 73.5 -106 78.5s-37.334 7.5 -44.001 7.5h-18c-24.667 0 -40.834 -9.66699 -48.501 -29s-11.5 -63.666 -11.5 -132.999l2 -47c0 -80.667 15 -155 45 -223c26 -60 62.333 -110.667 109 -152c20.667 -19.333 39.5 -34.666 56.5 -45.999
s33 -20.166 48 -26.499s31.5 -9.5 49.5 -9.5c35.333 0 56.333 22 63 66z" />
    <glyph glyph-name="oacute" unicode="&#xf3;" horiz-adv-x="1204" 
d="M969 1389l-283 -263h-191l144 263h330zM1134 385c-26 -106.667 -76.501 -194.833 -151.501 -264.5s-162.167 -111.834 -261.5 -126.501c-52 -8 -101.333 -12 -148 -12c-159.333 0 -286.166 42.333 -380.499 127s-141.5 196.334 -141.5 335.001
c0 63.333 6.5 120.833 19.5 172.5s35.167 103.5 66.5 155.5c109.333 176 281.333 264 516 264c144.667 0 264.5 -46 359.5 -138s142.5 -210.333 142.5 -355c0 -52 -7 -104.667 -21 -158zM779.999 244.001l0.00195312 95.998l-2 51c-8 84.667 -24 156.667 -48 216
s-55.667 109.666 -95 150.999c-48 47.333 -83.333 73.5 -106 78.5s-37.334 7.5 -44.001 7.5h-18c-24.667 0 -40.834 -9.66699 -48.501 -29s-11.5 -63.666 -11.5 -132.999l2 -47c0 -80.667 15 -155 45 -223c26 -60 62.333 -110.667 109 -152
c20.667 -19.333 39.5 -34.666 56.5 -45.999s33 -20.166 48 -26.499s31.5 -9.5 49.5 -9.5c35.333 0 56.333 22 63 66z" />
    <glyph glyph-name="ocircumflex" unicode="&#xf4;" horiz-adv-x="1204" 
d="M936 1124h-219l-113 107l-111 -105h-223l176 246h344zM1134 385c-26 -106.667 -76.501 -194.833 -151.501 -264.5s-162.167 -111.834 -261.5 -126.501c-52 -8 -101.333 -12 -148 -12c-159.333 0 -286.166 42.333 -380.499 127s-141.5 196.334 -141.5 335.001
c0 63.333 6.5 120.833 19.5 172.5s35.167 103.5 66.5 155.5c109.333 176 281.333 264 516 264c144.667 0 264.5 -46 359.5 -138s142.5 -210.333 142.5 -355c0 -52 -7 -104.667 -21 -158zM779.999 244.001l0.00195312 95.998l-2 51c-8 84.667 -24 156.667 -48 216
s-55.667 109.666 -95 150.999c-48 47.333 -83.333 73.5 -106 78.5s-37.334 7.5 -44.001 7.5h-18c-24.667 0 -40.834 -9.66699 -48.501 -29s-11.5 -63.666 -11.5 -132.999l2 -47c0 -80.667 15 -155 45 -223c26 -60 62.333 -110.667 109 -152
c20.667 -19.333 39.5 -34.666 56.5 -45.999s33 -20.166 48 -26.499s31.5 -9.5 49.5 -9.5c35.333 0 56.333 22 63 66z" />
    <glyph glyph-name="otilde" unicode="&#xf5;" horiz-adv-x="1204" 
d="M952 1395c5.33301 -24.667 8 -44 8 -58c0 -58.667 -21.5 -108.834 -64.5 -150.501s-95.833 -62.5 -158.5 -62.5c-12 1.33301 -21 2 -27 2l-55 9l-20 4l-66 12l-57 12l-10 2c-11.333 2.66699 -19 4 -23 4c-26 0 -36.333 -12 -31 -36h-196c-2.66699 18.667 -4 33.667 -4 45
c0 14.667 2 30.334 6 47.001c26 120 102.333 180 229 180c11.333 0 23 -1 35 -3s24.333 -3.66699 37 -5l78 -17l8 -2l82 -14l22 -2c18 5.33301 23.667 16.333 17 33h190zM1134 385c-26 -106.667 -76.501 -194.833 -151.501 -264.5s-162.167 -111.834 -261.5 -126.501
c-52 -8 -101.333 -12 -148 -12c-159.333 0 -286.166 42.333 -380.499 127s-141.5 196.334 -141.5 335.001c0 63.333 6.5 120.833 19.5 172.5s35.167 103.5 66.5 155.5c109.333 176 281.333 264 516 264c144.667 0 264.5 -46 359.5 -138s142.5 -210.333 142.5 -355
c0 -52 -7 -104.667 -21 -158zM779.999 244.001l0.00195312 95.998l-2 51c-8 84.667 -24 156.667 -48 216s-55.667 109.666 -95 150.999c-48 47.333 -83.333 73.5 -106 78.5s-37.334 7.5 -44.001 7.5h-18c-24.667 0 -40.834 -9.66699 -48.501 -29
s-11.5 -63.666 -11.5 -132.999l2 -47c0 -80.667 15 -155 45 -223c26 -60 62.333 -110.667 109 -152c20.667 -19.333 39.5 -34.666 56.5 -45.999s33 -20.166 48 -26.499s31.5 -9.5 49.5 -9.5c35.333 0 56.333 22 63 66z" />
    <glyph glyph-name="divide" unicode="&#xf7;" horiz-adv-x="1706" 
 />
    <glyph glyph-name="glyph216" unicode="&#xf9;" horiz-adv-x="1126" 
d="M745 1122h-195l-268 264h330zM1093 0l-447.001 0.00195312v150l-26 -35l-27 -35l-67 -80c-18 -4 -36.5 -7.33301 -55.5 -10s-37.5 -4 -55.5 -4c-57.333 0 -105.5 4.66699 -144.5 14s-72.833 26.333 -101.5 51c-47.333 41.333 -73.333 85.666 -78 132.999v9v43l4 120v467
c0 82 -21 147 -63 195h502l-13 -23c-28.667 -60 -43 -117.333 -43 -172v-551c0 -34 4.83301 -57.833 14.5 -71.5s26.834 -20.5 51.501 -20.5c44 0 72 6.16699 84 18.5s18 40.5 18 84.5v540c0 82 -19.667 147 -59 195h504l-25 -49c-13.333 -27.333 -22.833 -53 -28.5 -77
s-8.5 -47 -8.5 -69v-604c0 -58.667 4.83301 -103.334 14.5 -134.001s26.167 -59 49.5 -85z" />
    <glyph glyph-name="glyph217" unicode="&#xfa;" horiz-adv-x="1126" 
d="M929 1389l-283 -263h-190l143 263h330zM1093 0l-447.001 0.00195312v150l-26 -35l-27 -35l-67 -80c-18 -4 -36.5 -7.33301 -55.5 -10s-37.5 -4 -55.5 -4c-57.333 0 -105.5 4.66699 -144.5 14s-72.833 26.333 -101.5 51c-47.333 41.333 -73.333 85.666 -78 132.999v9v43
l4 120v467c0 82 -21 147 -63 195h502l-13 -23c-28.667 -60 -43 -117.333 -43 -172v-551c0 -34 4.83301 -57.833 14.5 -71.5s26.834 -20.5 51.501 -20.5c44 0 72 6.16699 84 18.5s18 40.5 18 84.5v540c0 82 -19.667 147 -59 195h504l-25 -49
c-13.333 -27.333 -22.833 -53 -28.5 -77s-8.5 -47 -8.5 -69v-604c0 -58.667 4.83301 -103.334 14.5 -134.001s26.167 -59 49.5 -85z" />
    <glyph glyph-name="glyph234" unicode="&#xfd;" horiz-adv-x="1085" 
d="M1137 1018c-31.333 -31.333 -59.334 -67.501 -84.001 -108.501s-51.334 -97.833 -80.001 -170.5l-293 -739c-35.333 -90 -70.833 -158.167 -106.5 -204.5s-81.5 -86.166 -137.5 -119.499h-327c66.667 46.667 124.334 102.5 173.001 167.5s84.334 136.167 107.001 213.5
l-268 682c-42 105.333 -99.333 198.333 -172 279h512c-4 -19.333 -6 -35.666 -6 -48.999c0 -18 6 -47.333 18 -88l113 -387l119 409c5.33301 16.667 8 33.667 8 51c0 23.333 -4.66699 44.666 -14 63.999h438zM968.999 1389l-283 -263h-190l143 263h330z" />
    <glyph glyph-name="Abreve" unicode="&#x102;" 
d="M1443 0h-590c10.667 32.667 16 71 16 115c0 30 -4 61.333 -12 94l-41 162h-258l-33 -107c-6.66699 -26 -11 -57 -13 -93s-3 -67.667 -3 -95l10 -76h-592c84.667 78 148 175 190 291l320 883c23.333 65.333 41.5 121.5 54.5 168.5s22.167 91.167 27.5 132.5h428l6 -41
l8 -39c14 -64.667 33.333 -137.667 58 -219l249 -834c28.667 -94 69.667 -183.333 123 -268zM797 635l-100 442l-108 -442h208zM1047 1797c-18.667 -98.667 -71.666 -173 -158.999 -223c-50.667 -28 -104.334 -42 -161.001 -42c-76.667 0 -142.834 25.333 -198.501 76
s-83.5 113.667 -83.5 189h196c0 -26 10.333 -48.333 31 -67s44.334 -28 71.001 -28c27.333 0 50.833 9.33301 70.5 28s29.5 41 29.5 67h204z" />
    <glyph glyph-name="abreve" unicode="&#x103;" horiz-adv-x="1058" 
d="M1020 0l-445.002 0.00488281l15 102l-37 -32l-39 -31l-33 -29l-33 -28c-5.33301 -1.33301 -15.166 -2 -29.499 -2h-33.5h-23c-99.333 0 -176.333 25.167 -231 75.5s-82 115.166 -82 194.499c0 17.333 2 36.333 6 57l17 58c18.667 44.667 46.5 82.334 83.5 113.001
s90.167 59.667 159.5 87l144 56l6 2l69 28c30 15.333 45 38.666 45 69.999c0 27.333 -12.5 53.666 -37.5 78.999s-59.5 38 -103.5 38c-28.667 0 -63.167 -5.83301 -103.5 -17.5s-85.5 -29.167 -135.5 -52.5l-48 -23l-28 -14c18.667 45.333 33 89.666 43 132.999l24 125
c38.667 11.333 67.334 19 86.001 23c49.333 10.667 96.666 16 141.999 16c199.333 0 339.5 -20.833 420.5 -62.5s121.5 -115.834 121.5 -222.501v-524c0 -62.667 3.83301 -108.334 11.5 -137.001s23.834 -56 48.501 -82zM576.998 217.005v258h-96
c-17.333 0 -29 -0.666992 -35 -2c-12 -2.66699 -20.667 -15 -26 -37c-4 -8 -6 -19.667 -6 -35c0 -84.667 7.16699 -141.667 21.5 -171s43.833 -44 88.5 -44c12.667 -1.33301 21 -2 25 -2c18.667 0 28 11 28 33zM846.998 1339c-18 -97.333 -70.334 -170.667 -157.001 -220
c-50.667 -28 -104 -42 -160 -42c-75.333 0 -140.5 25 -195.5 75s-82.5 112.333 -82.5 187h194c0 -25.333 10 -47.166 30 -65.499s43.667 -27.5 71 -27.5c26.667 0 49.834 9.16699 69.501 27.5s29.5 40.166 29.5 65.499h201z" />
    <glyph glyph-name="Ccaron" unicode="&#x10c;" horiz-adv-x="1274" 
 />
    <glyph glyph-name="ccaron" unicode="&#x10d;" horiz-adv-x="922" 
 />
    <glyph glyph-name="Dslash" unicode="&#x110;" horiz-adv-x="1345" 
d="M558 753l0.00195312 -532.001l27 10c82 41.333 143.333 99.833 184 175.5s61 176.5 61 302.5c0 20 -1 43.667 -3 71s-3.66699 49.333 -5 66c-13.333 116 -37.833 203.667 -73.5 263s-88.834 104 -159.501 134l-31 12v-329h100c24.667 0 40.667 1.83301 48 5.5
s13 12.834 17 27.501v-230c-6.66699 10 -14.334 16.5 -23.001 19.5s-22.667 4.5 -42 4.5h-100zM116.002 925.999v338c0 84.667 -25.333 155 -76 211h459l94 -7c222.667 -30 393.667 -108.5 513 -235.5s179 -289.5 179 -487.5c0 -211.333 -60.333 -382.833 -181 -514.5
s-289.667 -207.167 -507 -226.5l-78 -4h-479c27.333 28.667 46.833 60 58.5 94s17.5 76.333 17.5 127v532h-54c-20 0 -33 -0.666992 -39 -2s-12 -5 -18 -11l-6 -7v230c6 -13.333 13.5 -22.833 22.5 -28.5s22.833 -8.5 41.5 -8.5h53z" />
    <glyph glyph-name="dcroat" unicode="&#x111;" horiz-adv-x="1214" 
d="M733 311l0.000976562 439.001c-10.667 22.667 -26.334 43.667 -47.001 63c-27.333 26 -53.333 40.333 -78 43s-44.334 4 -59.001 4c-48 0 -82.833 -15 -104.5 -45s-36.167 -83.333 -43.5 -160c-1.33301 -10.667 -2 -25.667 -2 -45v-43c0 -60 9.33301 -111.833 28 -155.5
s43.334 -80.834 74.001 -111.501s59 -53.167 85 -67.5s49 -21.5 69 -21.5c34.667 0 58.667 16.333 72 49c4 10.667 6 27.667 6 51zM732.001 1275c-1.33301 48.667 -4.33301 83.333 -9 104c-6.66699 29.333 -23 61.333 -49 96h502c-20.667 -38.667 -35.667 -77.667 -45 -117
c-6 -24.667 -10.333 -52.334 -13 -83.001h111v-129h-113v-927c0 -64 3.83301 -110.333 11.5 -139s23.167 -55.334 46.5 -80.001h-445l16 123c-68 -94 -162.667 -141 -284 -141c-41.333 0 -86.333 7.33301 -135 22c-86 28.667 -153.667 80.834 -203 156.501
s-74 168.834 -74 279.501c0 40 1 68.5 3 85.5s6.66699 41.167 14 72.5c12 62.667 35 120 69 172c54.667 86 119.5 150.833 194.5 194.5s158.5 65.5 250.5 65.5c43.333 0 79.333 -2.66699 108 -8l21 -4l24 -8v136h-210v129h209z" />
    <glyph glyph-name="Itilde" unicode="&#x128;" horiz-adv-x="675" 
d="M638 1475c-16 -20.667 -32.333 -48 -49 -82c-20.667 -48 -31 -92.333 -31 -133v-1041c0 -87.333 25.333 -160.333 76 -219h-594c50.667 58.667 76 131.667 76 219v1043c0 90 -26.667 161 -80 213h602zM716 1851c5.33301 -24 8.00195 -43 8.00195 -57
c0 -58.667 -21.5 -108.834 -64.5 -150.501s-96.167 -62.5 -159.5 -62.5c-12 1.33301 -20.667 2 -26 2l-55 8l-21 4l-65 13l-58 12l-10 2c-10.667 2.66699 -18.334 4 -23.001 4c-25.333 0 -35.333 -12.333 -30 -37h-197c-2.66699 19.333 -4 34.333 -4 45c0 15.333 2 31 6 47
c26 120.667 102.667 181 230 181c10.667 0 22.167 -1.16699 34.5 -3.5s24.5 -4.16602 36.5 -5.49902l78 -16l8 -2l82 -14l23 -2c17.333 5.33301 22.666 16 15.999 32h191z" />
    <glyph glyph-name="itilde" unicode="&#x129;" horiz-adv-x="575" 
d="M538 0l-502.001 0.000976562c20.667 24.667 35.334 54 44.001 88s13 78.333 13 133v602c0 82 -19 147 -57 195h502l-15 -25c-31.333 -54.667 -47 -111.334 -47 -170.001v-604c0 -54.667 4.83301 -98 14.5 -130s25.5 -61.667 47.5 -89zM675.999 1395
c5.33301 -24.667 8.00195 -44 8.00195 -58c0 -58.667 -21.5 -108.834 -64.5 -150.501s-96.167 -62.5 -159.5 -62.5c-12 1.33301 -20.667 2 -26 2l-55 9l-21 4l-65 12l-58 12l-10 2c-10.667 2.66699 -18.334 4 -23.001 4c-25.333 0 -35.333 -12 -30 -36h-197
c-2.66699 18.667 -4 33.667 -4 45c0 14.667 2 30.334 6 47.001c26 120 102.667 180 230 180c10.667 0 22.167 -1 34.5 -3s24.5 -3.66699 36.5 -5l78 -17l8 -2l82 -14l23 -2c17.333 5.33301 22.666 16.333 15.999 33h191z" />
    <glyph glyph-name="Utilde" unicode="&#x168;" horiz-adv-x="1413" 
d="M1367 0l-512.001 -0.000976562c5.33301 15.333 9.33301 30.833 12 46.5s4 32.167 4 49.5c-68 -61.333 -147 -97.333 -237 -108c-16.667 -1.33301 -31.167 -2.33301 -43.5 -3s-22.5 -1 -30.5 -1c-136.667 0 -244.834 46 -324.501 138s-119.5 220.667 -119.5 386v754
c0 86 -25.333 157 -76 213h588c-18 -26 -31.667 -52 -41 -78c-19.333 -49.333 -29 -93.666 -29 -132.999v-822l2 -43c14 -99.333 59 -149 135 -149c8.66699 0 21.834 1.33301 39.501 4s37.334 9.16699 59.001 19.5s36.667 18.833 45 25.5s12.5 12.667 12.5 18v945
c0 84.667 -24.667 155.667 -74 213h586l-20 -35c-33.333 -61.333 -50 -120.666 -50 -177.999v-1041c0 -42 10.333 -89 31 -141c10.667 -28.667 25 -55.334 43 -80.001zM1164 1851c5.33301 -24 8 -43 8 -57c0 -58.667 -21.5 -108.834 -64.5 -150.501
s-95.833 -62.5 -158.5 -62.5c-12.667 1.33301 -21.667 2 -27 2l-55 8l-20 4l-66 13l-57 12l-11 2c-10.667 2.66699 -18 4 -22 4c-26 0 -36.333 -12.333 -31 -37h-196c-3.33301 19.333 -5 34.333 -5 45c0 15.333 2.33301 31 7 47c26 120.667 102.333 181 229 181
c10.667 0 22.167 -1.16699 34.5 -3.5s24.833 -4.16602 37.5 -5.49902l77 -16l9 -2l82 -14l22 -2c18 5.33301 23.333 16 16 32h191z" />
    <glyph glyph-name="utilde" unicode="&#x169;" horiz-adv-x="1126" 
d="M1093 0l-447.001 0.00195312v150l-26 -35l-27 -35l-67 -80c-18 -4 -36.5 -7.33301 -55.5 -10s-37.5 -4 -55.5 -4c-57.333 0 -105.5 4.66699 -144.5 14s-72.833 26.333 -101.5 51c-47.333 41.333 -73.333 85.666 -78 132.999v9v43l4 120v467c0 82 -21 147 -63 195h502
l-13 -23c-28.667 -60 -43 -117.333 -43 -172v-551c0 -34 4.83301 -57.833 14.5 -71.5s26.834 -20.5 51.501 -20.5c44 0 72 6.16699 84 18.5s18 40.5 18 84.5v540c0 82 -19.667 147 -59 195h504l-25 -49c-13.333 -27.333 -22.833 -53 -28.5 -77s-8.5 -47 -8.5 -69v-604
c0 -58.667 4.83301 -103.334 14.5 -134.001s26.167 -59 49.5 -85zM950.999 1395c6 -24.667 9.00195 -44 9.00195 -58c0 -58.667 -21.5 -108.834 -64.5 -150.501s-96.167 -62.5 -159.5 -62.5c-12 1.33301 -20.667 2 -26 2l-56 9l-20 4l-66 12l-57 12l-10 2
c-11.333 2.66699 -19 4 -23 4c-26 0 -36 -12 -30 -36h-197c-2.66699 18.667 -4 33.667 -4 45c0 14.667 2 30.334 6 47.001c26 120 102.333 180 229 180c11.333 0 23.166 -1 35.499 -3s24.5 -3.66699 36.5 -5l78 -17l8 -2l82 -14l23 -2
c17.333 5.33301 22.666 16.333 15.999 33h190z" />
    <glyph glyph-name="Ohorn" unicode="&#x1a0;" horiz-adv-x="1630" 
d="M1540 950c20 -82 30.002 -161.667 30.002 -239c0 -210.667 -69.833 -384.5 -209.5 -521.5s-323.5 -205.5 -551.5 -205.5c-218.667 0 -398.334 68.833 -539.001 206.5s-211 319.167 -211 544.5c0 229.333 68.333 413 205 551s321 207 553 207
c188 0 344.167 -46.5 468.5 -139.5s209.166 -227.5 254.499 -403.5zM1132 596c0 126.667 -17.333 236.169 -52 328.502s-85 167.166 -151 224.499c-47.333 40.667 -94.333 70.667 -141 90s-87.667 29 -123 29c-31.333 0 -56.5 -4.83301 -75.5 -14.5
s-31.167 -22.834 -36.5 -39.501c-10 -24 -18.333 -50 -25 -78s-12.5 -64.167 -17.5 -108.5s-7.5 -91.833 -7.5 -142.5c0 -170.667 34.167 -312 102.5 -424s160.5 -186.333 276.5 -223c30 -10 50.667 -16.333 62 -19c31.333 -9.33301 54.333 -14 69 -14
c36 0 67 53.333 93 160c17.333 68 26 145 26 231zM1628 1596c-14.667 -70 -40.3359 -133.002 -77.0029 -189.002c-18 -29.333 -39.333 -57.166 -64 -83.499s-50.667 -49.833 -78 -70.5h-191c24 16 43.333 32.667 58 50c38.667 42 66.834 79.167 84.501 111.5
s26.5 62.5 26.5 90.5c0 26 -7.33301 49.667 -22 71l-15 19c24.667 -3.33301 47.834 -5.5 69.501 -6.5s47.167 -1.5 76.5 -1.5c18.667 0 38.834 0.833008 60.501 2.5s45.5 3.83398 71.5 6.50098z" />
    <glyph glyph-name="ohorn" unicode="&#x1a1;" horiz-adv-x="1204" 
d="M780 244l-0.000976562 95.998l-2 51c-8 84.667 -24 156.667 -48 216s-55.667 109.666 -95 150.999c-48 47.333 -83.167 73.5 -105.5 78.5s-37.166 7.5 -44.499 7.5h-18c-24.667 0 -40.667 -9.66699 -48 -29s-11 -63.666 -11 -132.999l2 -47c0 -80.667 15 -155 45 -223
c26 -60 62 -110.667 108 -152c20.667 -19.333 39.5 -34.666 56.5 -45.999s33 -20.166 48 -26.499s31.5 -9.5 49.5 -9.5c35.333 0 56.333 22 63 66zM1096 789.998c39.333 -71.333 58.9971 -153.667 58.9971 -247c0 -52 -6.66699 -104.667 -20 -158
c-26 -106.667 -76.667 -194.834 -152 -264.501s-162.666 -111.834 -261.999 -126.501c-52 -8 -101.333 -12 -148 -12c-159.333 0 -286.166 42.333 -380.499 127s-141.5 196.334 -141.5 335.001c0 63.333 6.5 120.833 19.5 172.5s35.167 103.5 66.5 155.5
c109.333 176 281.333 264 516 264c142.667 0 261 -44.667 355 -134c8.66699 12.667 16 24.667 22 36c17.333 32 26 62 26 90c0 26 -7.33301 49.667 -22 71l-15 19c24.667 -3.33301 47.834 -5.5 69.501 -6.5s47.167 -1.5 76.5 -1.5c18.667 0 38.834 0.833008 60.501 2.5
s45.5 3.83398 71.5 6.50098c-14.667 -70 -40.334 -133 -77.001 -189c-18 -29.333 -39.333 -57 -64 -83c-19.333 -20.667 -39.333 -39.667 -60 -57z" />
    <glyph glyph-name="Uhorn" unicode="&#x1af;" horiz-adv-x="1413" 
d="M1367 0l-512.001 -0.000976562c5.33301 15.333 9.33301 30.833 12 46.5s4 32.167 4 49.5c-68 -61.333 -147 -97.333 -237 -108c-16.667 -1.33301 -31.167 -2.33301 -43.5 -3s-22.5 -1 -30.5 -1c-136.667 0 -244.834 46 -324.501 138s-119.5 220.667 -119.5 386v754
c0 86 -25.333 157 -76 213h588c-18 -26 -31.667 -52 -41 -78c-19.333 -49.333 -29 -93.666 -29 -132.999v-822l2 -43c14 -99.333 59 -149 135 -149c8.66699 0 21.834 1.33301 39.501 4s37.334 9.16699 59.001 19.5s36.667 18.833 45 25.5s12.5 12.667 12.5 18v945
c0 84.667 -24.667 155.667 -74 213h586l-20 -35c-33.333 -61.333 -50 -120.666 -50 -177.999v-1041c0 -42 10.333 -89 31 -141c10.667 -28.667 25 -55.334 43 -80.001zM1627 1596c-14.667 -70 -40.334 -133.002 -77.001 -189.002c-18 -29.333 -39.333 -57.166 -64 -83.499
s-50.667 -49.833 -78 -70.5h-191c24 16 43.333 32.667 58 50c39.333 42 67.666 79.167 84.999 111.5s26 62.5 26 90.5c0 26 -7.33301 49.667 -22 71l-15 19c24.667 -3.33301 47.834 -5.5 69.501 -6.5s47.167 -1.5 76.5 -1.5c18.667 0 38.834 0.833008 60.501 2.5
s45.5 3.83398 71.5 6.50098z" />
    <glyph glyph-name="uhorn" unicode="&#x1b0;" horiz-adv-x="1126" 
d="M1029 776l-0.00390625 -557c0 -58.667 4.83301 -103.334 14.5 -134.001s26.167 -59 49.5 -85h-447v150l-26 -35l-27 -35l-68 -80c-17.333 -4 -35.666 -7.33301 -54.999 -10s-37.666 -4 -54.999 -4c-57.333 0 -105.5 4.66699 -144.5 14s-72.833 26.333 -101.5 51
c-48 41.333 -74 85.666 -78 132.999v52l4 120v467c0 82 -21 147 -63 195h502l-13 -23c-28.667 -60 -43 -117.333 -43 -172v-551c0 -34 4.83301 -57.833 14.5 -71.5s26.834 -20.5 51.501 -20.5c43.333 0 71.166 6.16699 83.499 18.5s18.5 40.5 18.5 84.5v540
c0 82 -19.667 147 -59 195h504l-25 -49c-13.333 -27.333 -22.666 -53 -27.999 -77c-2.66699 -10 -4.66699 -19.667 -6 -29c22.667 27.333 40 52.333 52 75c17.333 32 26 62 26 90c0 26 -7.33301 49.667 -22 71l-15 19c24.667 -3.33301 47.834 -5.5 69.501 -6.5
s47.167 -1.5 76.5 -1.5c18.667 0 38.834 0.833008 60.501 2.5s45.5 3.83398 71.5 6.50098c-14.667 -70 -40.334 -133 -77.001 -189c-18 -29.333 -39.333 -57.166 -64 -83.499s-50.667 -49.833 -78 -70.5h-103z" />
    <glyph glyph-name="uni1EA0" unicode="&#x1ea0;" 
d="M788 -327c-27.333 -30 -60.667 -45.001 -100 -45.001c-41.333 0 -76.333 14.333 -105 43s-43 63.334 -43 104.001c0 38 14.333 70.667 43 98s63 41 103 41c39.333 0 73 -14 101 -42s42 -61.667 42 -101c0 -38 -13.667 -70.667 -41 -98zM1443 -0.000976562h-590
c10.667 32.667 16 71 16 115c0 30 -4 61.333 -12 94l-41 162h-258l-33 -107c-6.66699 -26 -11 -57 -13 -93s-3 -67.667 -3 -95l10 -76h-592c84.667 78 148 175 190 291l320 883c23.333 65.333 41.5 121.5 54.5 168.5s22.167 91.167 27.5 132.5h428l6 -41l8 -39
c14 -64.667 33.333 -137.667 58 -219l249 -834c28.667 -94 69.667 -183.333 123 -268zM796.999 634.999l-100 442l-108 -442h208z" />
    <glyph glyph-name="uni1EA1" unicode="&#x1ea1;" horiz-adv-x="1058" 
d="M1020 0l-445.002 0.00488281l15 102l-37 -32l-39 -31l-33 -29l-33 -28c-5.33301 -1.33301 -15.166 -2 -29.499 -2h-33.5h-23c-99.333 0 -176.333 25.167 -231 75.5s-82 115.166 -82 194.499c0 17.333 2 36.333 6 57l17 58c18.667 44.667 46.5 82.334 83.5 113.001
s90.167 59.667 159.5 87l144 56l6 2l69 28c30 15.333 45 38.666 45 69.999c0 27.333 -12.5 53.666 -37.5 78.999s-59.5 38 -103.5 38c-28.667 0 -63.167 -5.83301 -103.5 -17.5s-85.5 -29.167 -135.5 -52.5l-48 -23l-28 -14c18.667 45.333 33 89.666 43 132.999l24 125
c38.667 11.333 67.334 19 86.001 23c49.333 10.667 96.666 16 141.999 16c199.333 0 339.5 -20.833 420.5 -62.5s121.5 -115.834 121.5 -222.501v-524c0 -62.667 3.83301 -108.334 11.5 -137.001s23.834 -56 48.501 -82zM576.998 217.005v258h-96
c-17.333 0 -29 -0.666992 -35 -2c-12 -2.66699 -20.667 -15 -26 -37c-4 -8 -6 -19.667 -6 -35c0 -84.667 7.16699 -141.667 21.5 -171s43.833 -44 88.5 -44c12.667 -1.33301 21 -2 25 -2c18.667 0 28 11 28 33zM632.998 -326.995
c-27.333 -30 -60.999 -45.001 -100.999 -45.001c-40.667 0 -75.334 14.333 -104.001 43s-43 63.334 -43 104.001c0 38 14.333 70.667 43 98s62.667 41 102 41c40 0 74 -14 102 -42s42 -61.667 42 -101c0 -38 -13.667 -70.667 -41 -98z" />
    <glyph glyph-name="uni1EA2" unicode="&#x1ea2;" 
d="M1443 0h-590c10.667 32.667 16 71 16 115c0 30 -4 61.333 -12 94l-41 162h-258l-33 -107c-6.66699 -26 -11 -57 -13 -93s-3 -67.667 -3 -95l10 -76h-592c84.667 78 148 175 190 291l320 883c23.333 65.333 41.5 121.5 54.5 168.5s22.167 91.167 27.5 132.5h428l6 -41
l8 -39c14 -64.667 33.333 -137.667 58 -219l249 -834c28.667 -94 69.667 -183.333 123 -268zM797 635l-100 442l-108 -442h208zM963 1883c4 -15.333 5.99902 -30 5.99902 -44c0 -31.333 -8.5 -62.166 -25.5 -92.499s-42.833 -58.833 -77.5 -85.5c-4 -4 -11 -9 -21 -15
c-6 -4 -24.333 -15 -55 -33c-5.33301 -3.33301 -9 -6 -11 -8c-4.66699 -4 -12 -11 -22 -21c-6.66699 -6.66699 -12.167 -13.5 -16.5 -20.5s-7.5 -14.5 -9.5 -22.5c-18.667 13.333 -32 29.666 -40 48.999c-3.33301 7.33301 -6 15.333 -8 24s-3 17 -3 25
c0 28 14.667 57.667 44 89l3 3l15 16c3.33301 4 8.5 11 15.5 21s12.167 17.667 15.5 23c6 11.333 9 23 9 35c0 16.667 -5.5 31.5 -16.5 44.5s-26.5 21.5 -46.5 25.5c-3.33301 0.666992 -8.66602 1 -15.999 1c-19.333 0 -40 -5.33301 -62 -16s-44.333 -27 -67 -49l-13 -15
c6 34 9 68.333 9 103c0 20.667 -1 41 -3 61c20.667 10 40.167 18 58.5 24s40 10.833 65 14.5s48.833 5.5 71.5 5.5c108 0 175 -47.333 201 -142z" />
    <glyph glyph-name="uni1EA3" unicode="&#x1ea3;" horiz-adv-x="1058" 
d="M1020 0l-445.002 0.00488281l15 102l-37 -32l-39 -31l-33 -29l-33 -28c-5.33301 -1.33301 -15.166 -2 -29.499 -2h-33.5h-23c-99.333 0 -176.333 25.167 -231 75.5s-82 115.166 -82 194.499c0 17.333 2 36.333 6 57l17 58c18.667 44.667 46.5 82.334 83.5 113.001
s90.167 59.667 159.5 87l144 56l6 2l69 28c30 15.333 45 38.666 45 69.999c0 27.333 -12.5 53.666 -37.5 78.999s-59.5 38 -103.5 38c-28.667 0 -63.167 -5.83301 -103.5 -17.5s-85.5 -29.167 -135.5 -52.5l-48 -23l-28 -14c18.667 45.333 33 89.666 43 132.999l24 125
c38.667 11.333 67.334 19 86.001 23c49.333 10.667 96.666 16 141.999 16c199.333 0 339.5 -20.833 420.5 -62.5s121.5 -115.834 121.5 -222.501v-524c0 -62.667 3.83301 -108.334 11.5 -137.001s23.834 -56 48.501 -82zM576.998 217.005v258h-96
c-17.333 0 -29 -0.666992 -35 -2c-12 -2.66699 -20.667 -15 -26 -37c-4 -8 -6 -19.667 -6 -35c0 -84.667 7.16699 -141.667 21.5 -171s43.833 -44 88.5 -44c12.667 -1.33301 21 -2 25 -2c18.667 0 28 11 28 33zM745.998 1361c4 -12.667 5.99902 -24.666 5.99902 -35.999
c0 -25.333 -8.5 -50.333 -25.5 -75s-42.833 -48 -77.5 -70c-4 -3.33301 -11 -7.33301 -21 -12c-6 -3.33301 -24 -12.333 -54 -27c-5.33301 -2.66699 -9 -4.66699 -11 -6c-4.66699 -3.33301 -12 -9 -22 -17c-6.66699 -5.33301 -12.167 -10.833 -16.5 -16.5
s-7.5 -11.834 -9.5 -18.501c-18.667 10.667 -32 24 -40 40c-3.33301 5.33301 -6 11.666 -8 18.999s-3 14 -3 20c0 22.667 14.667 46.667 44 72l3 3l15 14c3.33301 3.33301 8.5 9 15.5 17l15.5 18c6 9.33301 9 19 9 29c0 13.333 -5.5 25.333 -16.5 36
s-26.5 17.334 -46.5 20.001c-3.33301 0.666992 -8.66602 1 -15.999 1c-19.333 0 -40 -4.33301 -62 -13s-44.333 -21.667 -67 -39l-13 -13c6 28 9 56 9 84c0 16.667 -1 33 -3 49c20.667 8 40.167 14.5 58.5 19.5s40 9 65 12s48.833 4.5 71.5 4.5
c107.333 0 174 -38.333 200 -115z" />
    <glyph glyph-name="uni1EA4" unicode="&#x1ea4;" 
d="M1065 1581h-220l-112 107l-111 -105h-223l176 246h344zM1443 0h-590c10.667 32.667 16 71 16 115c0 30 -4 61.333 -12 94l-41 162h-258l-33 -107c-6.66699 -26 -11 -57 -13 -93s-3 -67.667 -3 -95l10 -76h-592c84.667 78 148 175 190 291l320 883
c23.333 65.333 41.5 121.5 54.5 168.5s22.167 91.167 27.5 132.5h428l6 -41l8 -39c14 -64.667 33.333 -137.667 58 -219l249 -834c28.667 -94 69.667 -183.333 123 -268zM797 635l-100 442l-108 -442h208zM1482 2001l-282 -262h-191l144 262h329z" />
    <glyph glyph-name="uni1EA5" unicode="&#x1ea5;" horiz-adv-x="1058" 
d="M862 1124h-219l-113 107l-110 -105h-224l177 246h344zM1020 0l-445.002 0.00488281l15 102l-37 -32l-39 -31l-33 -29l-33 -28c-5.33301 -1.33301 -15.166 -2 -29.499 -2h-33.5h-23c-99.333 0 -176.333 25.167 -231 75.5s-82 115.166 -82 194.499c0 17.333 2 36.333 6 57
l17 58c18.667 44.667 46.5 82.334 83.5 113.001s90.167 59.667 159.5 87l144 56l6 2l69 28c30 15.333 45 38.666 45 69.999c0 27.333 -12.5 53.666 -37.5 78.999s-59.5 38 -103.5 38c-28.667 0 -63.167 -5.83301 -103.5 -17.5s-85.5 -29.167 -135.5 -52.5l-48 -23l-28 -14
c18.667 45.333 33 89.666 43 132.999l24 125c38.667 11.333 67.334 19 86.001 23c49.333 10.667 96.666 16 141.999 16c199.333 0 339.5 -20.833 420.5 -62.5s121.5 -115.834 121.5 -222.501v-524c0 -62.667 3.83301 -108.334 11.5 -137.001s23.834 -56 48.501 -82z
M576.998 217.005v258h-96c-17.333 0 -29 -0.666992 -35 -2c-12 -2.66699 -20.667 -15 -26 -37c-4 -8 -6 -19.667 -6 -35c0 -84.667 7.16699 -141.667 21.5 -171s43.833 -44 88.5 -44c12.667 -1.33301 21 -2 25 -2c18.667 0 28 11 28 33zM939.998 1560h330l-269 -264h-194z
" />
    <glyph glyph-name="uni1EA6" unicode="&#x1ea6;" 
d="M1065 1581h-220l-112 107l-111 -105h-223l176 246h344zM1443 0h-590c10.667 32.667 16 71 16 115c0 30 -4 61.333 -12 94l-41 162h-258l-33 -107c-6.66699 -26 -11 -57 -13 -93s-3 -67.667 -3 -95l10 -76h-592c84.667 78 148 175 190 291l320 883
c23.333 65.333 41.5 121.5 54.5 168.5s22.167 91.167 27.5 132.5h428l6 -41l8 -39c14 -64.667 33.333 -137.667 58 -219l249 -834c28.667 -94 69.667 -183.333 123 -268zM797 635l-100 442l-108 -442h208zM1252 1744h-195l-268 264h330z" />
    <glyph glyph-name="uni1EA7" unicode="&#x1ea7;" horiz-adv-x="1058" 
d="M862 1124h-219l-113 107l-110 -105h-224l177 246h344zM1020 0l-445.002 0.00488281l15 102l-37 -32l-39 -31l-33 -29l-33 -28c-5.33301 -1.33301 -15.166 -2 -29.499 -2h-33.5h-23c-99.333 0 -176.333 25.167 -231 75.5s-82 115.166 -82 194.499c0 17.333 2 36.333 6 57
l17 58c18.667 44.667 46.5 82.334 83.5 113.001s90.167 59.667 159.5 87l144 56l6 2l69 28c30 15.333 45 38.666 45 69.999c0 27.333 -12.5 53.666 -37.5 78.999s-59.5 38 -103.5 38c-28.667 0 -63.167 -5.83301 -103.5 -17.5s-85.5 -29.167 -135.5 -52.5l-48 -23l-28 -14
c18.667 45.333 33 89.666 43 132.999l24 125c38.667 11.333 67.334 19 86.001 23c49.333 10.667 96.666 16 141.999 16c199.333 0 339.5 -20.833 420.5 -62.5s121.5 -115.834 121.5 -222.501v-524c0 -62.667 3.83301 -108.334 11.5 -137.001s23.834 -56 48.501 -82z
M576.998 217.005v258h-96c-17.333 0 -29 -0.666992 -35 -2c-12 -2.66699 -20.667 -15 -26 -37c-4 -8 -6 -19.667 -6 -35c0 -84.667 7.16699 -141.667 21.5 -171s43.833 -44 88.5 -44c12.667 -1.33301 21 -2 25 -2c18.667 0 28 11 28 33zM1041 1296h-195l-268 264h329z" />
    <glyph glyph-name="uni1EA8" unicode="&#x1ea8;" 
d="M1065 1581h-220l-112 107l-111 -105h-223l176 246h344zM1443 0h-590c10.667 32.667 16 71 16 115c0 30 -4 61.333 -12 94l-41 162h-258l-33 -107c-6.66699 -26 -11 -57 -13 -93s-3 -67.667 -3 -95l10 -76h-592c84.667 78 148 175 190 291l320 883
c23.333 65.333 41.5 121.5 54.5 168.5s22.167 91.167 27.5 132.5h428l6 -41l8 -39c14 -64.667 33.333 -137.667 58 -219l249 -834c28.667 -94 69.667 -183.333 123 -268zM797 635l-100 442l-108 -442h208zM1293 2030c4 -15.333 5.99902 -30 5.99902 -44
c0 -31.333 -8.5 -62.166 -25.5 -92.499s-42.833 -58.833 -77.5 -85.5c-4 -4 -11 -9 -21 -15c-6 -4 -24.333 -15 -55 -33c-5.33301 -3.33301 -9 -6 -11 -8c-4.66699 -4 -12 -11 -22 -21c-6.66699 -6.66699 -12.167 -13.5 -16.5 -20.5s-7.5 -14.5 -9.5 -22.5
c-18.667 13.333 -32 29.666 -40 48.999c-3.33301 7.33301 -6 15.333 -8 24s-3 17 -3 25c0 28 14.667 57.667 44 89l3 3l15 16c3.33301 4 8.5 11 15.5 21s12.167 17.667 15.5 23c6 11.333 9 23 9 35c0 16.667 -5.5 31.5 -16.5 44.5s-26.5 21.5 -46.5 25.5
c-3.33301 0.666992 -8.66602 1 -15.999 1c-19.333 0 -40 -5.33301 -62 -16s-44.333 -27 -67 -49l-13 -15c6 34 9 68.333 9 103c0 20.667 -1 41 -3 61c20.667 10 40.167 18 58.5 24s40 10.833 65 14.5s48.833 5.5 71.5 5.5c108 0 175 -47.333 201 -142z" />
    <glyph glyph-name="uni1EA9" unicode="&#x1ea9;" horiz-adv-x="1058" 
d="M862 1124h-219l-113 107l-110 -105h-224l177 246h344zM1020 0l-445.002 0.00488281l15 102l-37 -32l-39 -31l-33 -29l-33 -28c-5.33301 -1.33301 -15.166 -2 -29.499 -2h-33.5h-23c-99.333 0 -176.333 25.167 -231 75.5s-82 115.166 -82 194.499c0 17.333 2 36.333 6 57
l17 58c18.667 44.667 46.5 82.334 83.5 113.001s90.167 59.667 159.5 87l144 56l6 2l69 28c30 15.333 45 38.666 45 69.999c0 27.333 -12.5 53.666 -37.5 78.999s-59.5 38 -103.5 38c-28.667 0 -63.167 -5.83301 -103.5 -17.5s-85.5 -29.167 -135.5 -52.5l-48 -23l-28 -14
c18.667 45.333 33 89.666 43 132.999l24 125c38.667 11.333 67.334 19 86.001 23c49.333 10.667 96.666 16 141.999 16c199.333 0 339.5 -20.833 420.5 -62.5s121.5 -115.834 121.5 -222.501v-524c0 -62.667 3.83301 -108.334 11.5 -137.001s23.834 -56 48.501 -82z
M576.998 217.005v258h-96c-17.333 0 -29 -0.666992 -35 -2c-12 -2.66699 -20.667 -15 -26 -37c-4 -8 -6 -19.667 -6 -35c0 -84.667 7.16699 -141.667 21.5 -171s43.833 -44 88.5 -44c12.667 -1.33301 21 -2 25 -2c18.667 0 28 11 28 33zM1057 1563
c4 -12.667 5.99902 -24.666 5.99902 -35.999c0 -25.333 -8.5 -50.333 -25.5 -75s-42.833 -48 -77.5 -70c-4 -3.33301 -11 -7.33301 -21 -12c-6 -3.33301 -24 -12.333 -54 -27c-5.33301 -2.66699 -9 -4.66699 -11 -6c-4.66699 -3.33301 -12 -9 -22 -17
c-6.66699 -5.33301 -12.167 -10.833 -16.5 -16.5s-7.5 -11.834 -9.5 -18.501c-18.667 10.667 -32 24 -40 40c-3.33301 5.33301 -6 11.666 -8 18.999s-3 14 -3 20c0 22.667 14.667 46.667 44 72l3 3l15 14c3.33301 3.33301 8.5 9 15.5 17l15.5 18c6 9.33301 9 19 9 29
c0 13.333 -5.5 25.333 -16.5 36s-26.5 17.334 -46.5 20.001c-3.33301 0.666992 -8.66602 1 -15.999 1c-19.333 0 -40 -4.33301 -62 -13s-44.333 -21.667 -67 -39l-13 -13c6 28 9 56 9 84c0 16.667 -1 33 -3 49c20.667 8 40.167 14.5 58.5 19.5s40 9 65 12
s48.833 4.5 71.5 4.5c107.333 0 174 -38.333 200 -115z" />
    <glyph glyph-name="uni1EAA" unicode="&#x1eaa;" 
d="M1065 1581h-220l-112 107l-111 -105h-223l176 246h344zM1443 0h-590c10.667 32.667 16 71 16 115c0 30 -4 61.333 -12 94l-41 162h-258l-33 -107c-6.66699 -26 -11 -57 -13 -93s-3 -67.667 -3 -95l10 -76h-592c84.667 78 148 175 190 291l320 883
c23.333 65.333 41.5 121.5 54.5 168.5s22.167 91.167 27.5 132.5h428l6 -41l8 -39c14 -64.667 33.333 -137.667 58 -219l249 -834c28.667 -94 69.667 -183.333 123 -268zM797 635l-100 442l-108 -442h208zM1145 2154c5.33301 -24 8 -42.999 8 -56.999
c0 -58.667 -21.5 -108.834 -64.5 -150.501s-95.833 -62.5 -158.5 -62.5c-12.667 1.33301 -21.667 2 -27 2l-55 8l-20 4l-66 13l-57 12l-11 2c-10.667 2.66699 -18 4 -22 4c-26 0 -36.333 -12.333 -31 -37h-196c-3.33301 19.333 -5 34.333 -5 45c0 15.333 2.33301 31 7 47
c26 120.667 102.333 181 229 181c10.667 0 22.167 -1.16699 34.5 -3.5s24.833 -4.16602 37.5 -5.5l77 -16l9 -2l82 -14l22 -2c18 5.33301 23.667 16 17 32h190z" />
    <glyph glyph-name="uni1EAB" unicode="&#x1eab;" horiz-adv-x="1058" 
d="M862 1124h-219l-113 107l-110 -105h-224l177 246h344zM1020 0l-445.002 0.00488281l15 102l-37 -32l-39 -31l-33 -29l-33 -28c-5.33301 -1.33301 -15.166 -2 -29.499 -2h-33.5h-23c-99.333 0 -176.333 25.167 -231 75.5s-82 115.166 -82 194.499c0 17.333 2 36.333 6 57
l17 58c18.667 44.667 46.5 82.334 83.5 113.001s90.167 59.667 159.5 87l144 56l6 2l69 28c30 15.333 45 38.666 45 69.999c0 27.333 -12.5 53.666 -37.5 78.999s-59.5 38 -103.5 38c-28.667 0 -63.167 -5.83301 -103.5 -17.5s-85.5 -29.167 -135.5 -52.5l-48 -23l-28 -14
c18.667 45.333 33 89.666 43 132.999l24 125c38.667 11.333 67.334 19 86.001 23c49.333 10.667 96.666 16 141.999 16c199.333 0 339.5 -20.833 420.5 -62.5s121.5 -115.834 121.5 -222.501v-524c0 -62.667 3.83301 -108.334 11.5 -137.001s23.834 -56 48.501 -82z
M576.998 217.005v258h-96c-17.333 0 -29 -0.666992 -35 -2c-12 -2.66699 -20.667 -15 -26 -37c-4 -8 -6 -19.667 -6 -35c0 -84.667 7.16699 -141.667 21.5 -171s43.833 -44 88.5 -44c12.667 -1.33301 21 -2 25 -2c18.667 0 28 11 28 33zM951.998 1670
c6 -24.667 9.00195 -44 9.00195 -58c0 -58.667 -21.5 -108.834 -64.5 -150.501s-96.167 -62.5 -159.5 -62.5c-12 1.33301 -20.667 2 -26 2l-56 9l-20 4l-66 12l-57 12l-10 2c-11.333 2.66699 -19 4 -23 4c-26 0 -36 -12 -30 -36h-197c-2.66699 18.667 -4 33.667 -4 45
c0 14.667 2 30.334 6 47.001c26 120 102.333 180 229 180c11.333 0 23.166 -1 35.499 -3s24.5 -3.66699 36.5 -5l78 -17l8 -2l82 -14l23 -2c17.333 5.33301 22.666 16.333 15.999 33h190z" />
    <glyph glyph-name="uni1EAC" unicode="&#x1eac;" 
d="M1065 1581h-220l-112 107l-111 -105h-223l176 246h344zM1443 0h-590c10.667 32.667 16 71 16 115c0 30 -4 61.333 -12 94l-41 162h-258l-33 -107c-6.66699 -26 -11 -57 -13 -93s-3 -67.667 -3 -95l10 -76h-592c84.667 78 148 175 190 291l320 883
c23.333 65.333 41.5 121.5 54.5 168.5s22.167 91.167 27.5 132.5h428l6 -41l8 -39c14 -64.667 33.333 -137.667 58 -219l249 -834c28.667 -94 69.667 -183.333 123 -268zM797 635l-100 442l-108 -442h208zM788 -327c-27.333 -30 -60.667 -45.001 -100 -45.001
c-41.333 0 -76.333 14.333 -105 43s-43 63.334 -43 104.001c0 38 14.333 70.667 43 98s63 41 103 41c39.333 0 73 -14 101 -42s42 -61.667 42 -101c0 -38 -13.667 -70.667 -41 -98z" />
    <glyph glyph-name="uni1EAD" unicode="&#x1ead;" horiz-adv-x="1058" 
d="M862 1124h-219l-113 107l-110 -105h-224l177 246h344zM1020 0l-445.002 0.00488281l15 102l-37 -32l-39 -31l-33 -29l-33 -28c-5.33301 -1.33301 -15.166 -2 -29.499 -2h-33.5h-23c-99.333 0 -176.333 25.167 -231 75.5s-82 115.166 -82 194.499c0 17.333 2 36.333 6 57
l17 58c18.667 44.667 46.5 82.334 83.5 113.001s90.167 59.667 159.5 87l144 56l6 2l69 28c30 15.333 45 38.666 45 69.999c0 27.333 -12.5 53.666 -37.5 78.999s-59.5 38 -103.5 38c-28.667 0 -63.167 -5.83301 -103.5 -17.5s-85.5 -29.167 -135.5 -52.5l-48 -23l-28 -14
c18.667 45.333 33 89.666 43 132.999l24 125c38.667 11.333 67.334 19 86.001 23c49.333 10.667 96.666 16 141.999 16c199.333 0 339.5 -20.833 420.5 -62.5s121.5 -115.834 121.5 -222.501v-524c0 -62.667 3.83301 -108.334 11.5 -137.001s23.834 -56 48.501 -82z
M576.998 217.005v258h-96c-17.333 0 -29 -0.666992 -35 -2c-12 -2.66699 -20.667 -15 -26 -37c-4 -8 -6 -19.667 -6 -35c0 -84.667 7.16699 -141.667 21.5 -171s43.833 -44 88.5 -44c12.667 -1.33301 21 -2 25 -2c18.667 0 28 11 28 33zM632.998 -326.995
c-27.333 -30 -60.667 -45.001 -100 -45.001c-41.333 0 -76.333 14.333 -105 43s-43 63.334 -43 104.001c0 38 14.333 70.667 43 98s63 41 103 41c39.333 0 73 -14 101 -42s42 -61.667 42 -101c0 -38 -13.667 -70.667 -41 -98z" />
    <glyph glyph-name="uni1EAE" unicode="&#x1eae;" 
d="M1443 0h-590c10.667 32.667 16 71 16 115c0 30 -4 61.333 -12 94l-41 162h-258l-33 -107c-6.66699 -26 -11 -57 -13 -93s-3 -67.667 -3 -95l10 -76h-592c84.667 78 148 175 190 291l320 883c23.333 65.333 41.5 121.5 54.5 168.5s22.167 91.167 27.5 132.5h428l6 -41
l8 -39c14 -64.667 33.333 -137.667 58 -219l249 -834c28.667 -94 69.667 -183.333 123 -268zM797 635l-100 442l-108 -442h208zM1047 1797c-18.667 -98.667 -71.666 -173 -158.999 -223c-50.667 -28 -104.334 -42 -161.001 -42c-76.667 0 -142.834 25.333 -198.501 76
s-83.5 113.667 -83.5 189h196c0 -26 10.333 -48.333 31 -67s44.334 -28 71.001 -28c27.333 0 50.833 9.33301 70.5 28s29.5 41 29.5 67h204zM1125 2088l-283 -262h-190l143 262h330z" />
    <glyph glyph-name="uni1EAF" unicode="&#x1eaf;" horiz-adv-x="1058" 
d="M1020 0l-445.002 0.00488281l15 102l-37 -32l-39 -31l-33 -29l-33 -28c-5.33301 -1.33301 -15.166 -2 -29.499 -2h-33.5h-23c-99.333 0 -176.333 25.167 -231 75.5s-82 115.166 -82 194.499c0 17.333 2 36.333 6 57l17 58c18.667 44.667 46.5 82.334 83.5 113.001
s90.167 59.667 159.5 87l144 56l6 2l69 28c30 15.333 45 38.666 45 69.999c0 27.333 -12.5 53.666 -37.5 78.999s-59.5 38 -103.5 38c-28.667 0 -63.167 -5.83301 -103.5 -17.5s-85.5 -29.167 -135.5 -52.5l-48 -23l-28 -14c18.667 45.333 33 89.666 43 132.999l24 125
c38.667 11.333 67.334 19 86.001 23c49.333 10.667 96.666 16 141.999 16c199.333 0 339.5 -20.833 420.5 -62.5s121.5 -115.834 121.5 -222.501v-524c0 -62.667 3.83301 -108.334 11.5 -137.001s23.834 -56 48.501 -82zM576.998 217.005v258h-96
c-17.333 0 -29 -0.666992 -35 -2c-12 -2.66699 -20.667 -15 -26 -37c-4 -8 -6 -19.667 -6 -35c0 -84.667 7.16699 -141.667 21.5 -171s43.833 -44 88.5 -44c12.667 -1.33301 21 -2 25 -2c18.667 0 28 11 28 33zM846.998 1339c-18 -97.333 -70.334 -170.667 -157.001 -220
c-50.667 -28 -104 -42 -160 -42c-75.333 0 -140.5 25 -195.5 75s-82.5 112.333 -82.5 187h194c0 -25.333 10 -47.166 30 -65.499s43.667 -27.5 71 -27.5c26.667 0 49.834 9.16699 69.501 27.5s29.5 40.166 29.5 65.499h201zM572.997 1624h329l-268 -264h-194z" />
    <glyph glyph-name="uni1EB0" unicode="&#x1eb0;" 
d="M1443 0h-590c10.667 32.667 16 71 16 115c0 30 -4 61.333 -12 94l-41 162h-258l-33 -107c-6.66699 -26 -11 -57 -13 -93s-3 -67.667 -3 -95l10 -76h-592c84.667 78 148 175 190 291l320 883c23.333 65.333 41.5 121.5 54.5 168.5s22.167 91.167 27.5 132.5h428l6 -41
l8 -39c14 -64.667 33.333 -137.667 58 -219l249 -834c28.667 -94 69.667 -183.333 123 -268zM797 635l-100 442l-108 -442h208zM1047 1797c-18.667 -98.667 -71.666 -173 -158.999 -223c-50.667 -28 -104.334 -42 -161.001 -42c-76.667 0 -142.834 25.333 -198.501 76
s-83.5 113.667 -83.5 189h196c0 -26 10.333 -48.333 31 -67s44.334 -28 71.001 -28c27.333 0 50.833 9.33301 70.5 28s29.5 41 29.5 67h204zM849.001 1826h-195l-268 264h330z" />
    <glyph glyph-name="uni1EB1" unicode="&#x1eb1;" horiz-adv-x="1058" 
d="M1020 0l-445.002 0.00488281l15 102l-37 -32l-39 -31l-33 -29l-33 -28c-5.33301 -1.33301 -15.166 -2 -29.499 -2h-33.5h-23c-99.333 0 -176.333 25.167 -231 75.5s-82 115.166 -82 194.499c0 17.333 2 36.333 6 57l17 58c18.667 44.667 46.5 82.334 83.5 113.001
s90.167 59.667 159.5 87l144 56l6 2l69 28c30 15.333 45 38.666 45 69.999c0 27.333 -12.5 53.666 -37.5 78.999s-59.5 38 -103.5 38c-28.667 0 -63.167 -5.83301 -103.5 -17.5s-85.5 -29.167 -135.5 -52.5l-48 -23l-28 -14c18.667 45.333 33 89.666 43 132.999l24 125
c38.667 11.333 67.334 19 86.001 23c49.333 10.667 96.666 16 141.999 16c199.333 0 339.5 -20.833 420.5 -62.5s121.5 -115.834 121.5 -222.501v-524c0 -62.667 3.83301 -108.334 11.5 -137.001s23.834 -56 48.501 -82zM576.998 217.005v258h-96
c-17.333 0 -29 -0.666992 -35 -2c-12 -2.66699 -20.667 -15 -26 -37c-4 -8 -6 -19.667 -6 -35c0 -84.667 7.16699 -141.667 21.5 -171s43.833 -44 88.5 -44c12.667 -1.33301 21 -2 25 -2c18.667 0 28 11 28 33zM846.998 1339c-18 -97.333 -70.334 -170.667 -157.001 -220
c-50.667 -28 -104 -42 -160 -42c-75.333 0 -140.5 25 -195.5 75s-82.5 112.333 -82.5 187h194c0 -25.333 10 -47.166 30 -65.499s43.667 -27.5 71 -27.5c26.667 0 49.834 9.16699 69.501 27.5s29.5 40.166 29.5 65.499h201zM653.997 1370h-194l-268 264h329z" />
    <glyph glyph-name="uni1EB2" unicode="&#x1eb2;" 
d="M1443 0h-590c10.667 32.667 16 71 16 115c0 30 -4 61.333 -12 94l-41 162h-258l-33 -107c-6.66699 -26 -11 -57 -13 -93s-3 -67.667 -3 -95l10 -76h-592c84.667 78 148 175 190 291l320 883c23.333 65.333 41.5 121.5 54.5 168.5s22.167 91.167 27.5 132.5h428l6 -41
l8 -39c14 -64.667 33.333 -137.667 58 -219l249 -834c28.667 -94 69.667 -183.333 123 -268zM797 635l-100 442l-108 -442h208zM1047 1797c-18.667 -98.667 -71.666 -173 -158.999 -223c-50.667 -28 -104.334 -42 -161.001 -42c-76.667 0 -142.834 25.333 -198.501 76
s-83.5 113.667 -83.5 189h196c0 -26 10.333 -48.333 31 -67s44.334 -28 71.001 -28c27.333 0 50.833 9.33301 70.5 28s29.5 41 29.5 67h204zM972.001 2122c4 -15.333 5.99902 -30 5.99902 -44c0 -31.333 -8.5 -62.166 -25.5 -92.499s-42.5 -58.833 -76.5 -85.5
c-4 -4 -11 -9 -21 -15c-6 -4 -24.333 -15 -55 -33c-5.33301 -3.33301 -9 -6 -11 -8c-4.66699 -4 -12 -11 -22 -21c-6.66699 -6.66699 -12.167 -13.5 -16.5 -20.5s-7.5 -14.5 -9.5 -22.5c-18.667 13.333 -32 29.666 -40 48.999c-3.33301 7.33301 -6 15.333 -8 24s-3 17 -3 25
c0 28 14.667 57.667 44 89l3 3l15 16c3.33301 4 8.5 11 15.5 21s12.167 17.667 15.5 23c6 11.333 9 23 9 35c0 16.667 -5.5 31.5 -16.5 44.5s-26.5 21.5 -46.5 25.5c-3.33301 0.666992 -8.66602 1 -15.999 1c-19.333 0 -40 -5.33301 -62 -16s-44.333 -27 -67 -49l-13 -15
c6 34 9 68.333 9 103c0 20.667 -1 41 -3 61c20.667 10 40.167 18 58.5 24s40 10.833 65 14.5s48.833 5.5 71.5 5.5c107.333 0 174 -47.333 200 -142z" />
    <glyph glyph-name="uni1EB3" unicode="&#x1eb3;" horiz-adv-x="1058" 
d="M1020 0l-445.002 0.00488281l15 102l-37 -32l-39 -31l-33 -29l-33 -28c-5.33301 -1.33301 -15.166 -2 -29.499 -2h-33.5h-23c-99.333 0 -176.333 25.167 -231 75.5s-82 115.166 -82 194.499c0 17.333 2 36.333 6 57l17 58c18.667 44.667 46.5 82.334 83.5 113.001
s90.167 59.667 159.5 87l144 56l6 2l69 28c30 15.333 45 38.666 45 69.999c0 27.333 -12.5 53.666 -37.5 78.999s-59.5 38 -103.5 38c-28.667 0 -63.167 -5.83301 -103.5 -17.5s-85.5 -29.167 -135.5 -52.5l-48 -23l-28 -14c18.667 45.333 33 89.666 43 132.999l24 125
c38.667 11.333 67.334 19 86.001 23c49.333 10.667 96.666 16 141.999 16c199.333 0 339.5 -20.833 420.5 -62.5s121.5 -115.834 121.5 -222.501v-524c0 -62.667 3.83301 -108.334 11.5 -137.001s23.834 -56 48.501 -82zM576.998 217.005v258h-96
c-17.333 0 -29 -0.666992 -35 -2c-12 -2.66699 -20.667 -15 -26 -37c-4 -8 -6 -19.667 -6 -35c0 -84.667 7.16699 -141.667 21.5 -171s43.833 -44 88.5 -44c12.667 -1.33301 21 -2 25 -2c18.667 0 28 11 28 33zM846.998 1339c-18 -97.333 -70.334 -170.667 -157.001 -220
c-50.667 -28 -104 -42 -160 -42c-75.333 0 -140.5 25 -195.5 75s-82.5 112.333 -82.5 187h194c0 -25.333 10 -47.166 30 -65.499s43.667 -27.5 71 -27.5c26.667 0 49.834 9.16699 69.501 27.5s29.5 40.166 29.5 65.499h201zM781.997 1609
c4 -12.667 5.99902 -24.666 5.99902 -35.999c0 -25.333 -8.5 -50.333 -25.5 -75s-42.833 -48 -77.5 -70c-4 -3.33301 -11 -7.33301 -21 -12c-6 -3.33301 -24.333 -12.333 -55 -27c-5.33301 -2.66699 -9 -4.66699 -11 -6c-4.66699 -3.33301 -12 -9 -22 -17
c-6.66699 -5.33301 -12.167 -10.833 -16.5 -16.5s-7.5 -11.834 -9.5 -18.501c-18 10.667 -31 24 -39 40c-3.33301 5.33301 -6 11.666 -8 18.999s-3 14 -3 20c0 22.667 14.333 46.667 43 72l3 3l15 14c3.33301 3.33301 8.5 9 15.5 17l15.5 18c6 9.33301 9 19 9 29
c0 13.333 -5.5 25.333 -16.5 36s-26.5 17.334 -46.5 20.001c-3.33301 0.666992 -8.33301 1 -15 1c-19.333 0 -40 -4.33301 -62 -13s-44.333 -21.667 -67 -39l-13 -13c6 28 9 56 9 84c0 16.667 -1 33 -3 49c20.667 8 40.167 14.5 58.5 19.5s39.833 9 64.5 12
s48.334 4.5 71.001 4.5c108 0 175 -38.333 201 -115z" />
    <glyph glyph-name="uni1EB4" unicode="&#x1eb4;" 
d="M1443 0h-590c10.667 32.667 16 71 16 115c0 30 -4 61.333 -12 94l-41 162h-258l-33 -107c-6.66699 -26 -11 -57 -13 -93s-3 -67.667 -3 -95l10 -76h-592c84.667 78 148 175 190 291l320 883c23.333 65.333 41.5 121.5 54.5 168.5s22.167 91.167 27.5 132.5h428l6 -41
l8 -39c14 -64.667 33.333 -137.667 58 -219l249 -834c28.667 -94 69.667 -183.333 123 -268zM797 635l-100 442l-108 -442h208zM1047 1797c-18.667 -98.667 -71.666 -173 -158.999 -223c-50.667 -28 -104.334 -42 -161.001 -42c-76.667 0 -142.834 25.333 -198.501 76
s-83.5 113.667 -83.5 189h196c0 -26 10.333 -48.333 31 -67s44.334 -28 71.001 -28c27.333 0 50.833 9.33301 70.5 28s29.5 41 29.5 67h204zM1146 2108c5.33301 -24 8.00098 -42.999 8.00098 -56.999c0 -58.667 -21.5 -108.834 -64.5 -150.501s-95.833 -62.5 -158.5 -62.5
c-12.667 1.33301 -21.667 2 -27 2l-55 8l-21 4l-65 13l-58 12l-10 2c-10.667 2.66699 -18 4 -22 4c-26 0 -36.333 -12.333 -31 -37h-197c-2.66699 19.333 -4 34.333 -4 45c0 15.333 2 31 6 47c26 120.667 102.667 181 230 181c10.667 0 22.167 -1.16699 34.5 -3.5
s24.5 -4.16602 36.5 -5.5l78 -16l8 -2l82 -14l23 -2c17.333 5.33301 22.666 16 15.999 32h191z" />
    <glyph glyph-name="uni1EB5" unicode="&#x1eb5;" horiz-adv-x="1058" 
d="M1020 0l-445.002 0.00488281l15 102l-37 -32l-39 -31l-33 -29l-33 -28c-5.33301 -1.33301 -15.166 -2 -29.499 -2h-33.5h-23c-99.333 0 -176.333 25.167 -231 75.5s-82 115.166 -82 194.499c0 17.333 2 36.333 6 57l17 58c18.667 44.667 46.5 82.334 83.5 113.001
s90.167 59.667 159.5 87l144 56l6 2l69 28c30 15.333 45 38.666 45 69.999c0 27.333 -12.5 53.666 -37.5 78.999s-59.5 38 -103.5 38c-28.667 0 -63.167 -5.83301 -103.5 -17.5s-85.5 -29.167 -135.5 -52.5l-48 -23l-28 -14c18.667 45.333 33 89.666 43 132.999l24 125
c38.667 11.333 67.334 19 86.001 23c49.333 10.667 96.666 16 141.999 16c199.333 0 339.5 -20.833 420.5 -62.5s121.5 -115.834 121.5 -222.501v-524c0 -62.667 3.83301 -108.334 11.5 -137.001s23.834 -56 48.501 -82zM576.998 217.005v258h-96
c-17.333 0 -29 -0.666992 -35 -2c-12 -2.66699 -20.667 -15 -26 -37c-4 -8 -6 -19.667 -6 -35c0 -84.667 7.16699 -141.667 21.5 -171s43.833 -44 88.5 -44c12.667 -1.33301 21 -2 25 -2c18.667 0 28 11 28 33zM846.998 1339c-18 -97.333 -70.334 -170.667 -157.001 -220
c-50.667 -28 -104 -42 -160 -42c-75.333 0 -140.5 25 -195.5 75s-82.5 112.333 -82.5 187h194c0 -25.333 10 -47.166 30 -65.499s43.667 -27.5 71 -27.5c26.667 0 49.834 9.16699 69.501 27.5s29.5 40.166 29.5 65.499h201zM960.997 1652
c5.33301 -24.667 8.00098 -44 8.00098 -58c0 -58.667 -21.5 -108.834 -64.5 -150.501s-95.833 -62.5 -158.5 -62.5c-12 1.33301 -20.667 2 -26 2l-56 9l-20 4l-66 12l-57 12l-10 2c-11.333 2.66699 -19 4 -23 4c-26 0 -36.333 -12 -31 -36h-196
c-2.66699 18.667 -4 33.667 -4 45c0 14.667 2 30.334 6 47.001c26 120 102.333 180 229 180c11.333 0 23.166 -1 35.499 -3s24.5 -3.66699 36.5 -5l78 -17l8 -2l82 -14l22 -2c18 5.33301 23.667 16.333 17 33h190z" />
    <glyph glyph-name="uni1EB6" unicode="&#x1eb6;" 
d="M1443 0h-590c10.667 32.667 16 71 16 115c0 30 -4 61.333 -12 94l-41 162h-258l-33 -107c-6.66699 -26 -11 -57 -13 -93s-3 -67.667 -3 -95l10 -76h-592c84.667 78 148 175 190 291l320 883c23.333 65.333 41.5 121.5 54.5 168.5s22.167 91.167 27.5 132.5h428l6 -41
l8 -39c14 -64.667 33.333 -137.667 58 -219l249 -834c28.667 -94 69.667 -183.333 123 -268zM797 635l-100 442l-108 -442h208zM1047 1797c-18.667 -98.667 -71.666 -173 -158.999 -223c-50.667 -28 -104.334 -42 -161.001 -42c-76.667 0 -142.834 25.333 -198.501 76
s-83.5 113.667 -83.5 189h196c0 -26 10.333 -48.333 31 -67s44.334 -28 71.001 -28c27.333 0 50.833 9.33301 70.5 28s29.5 41 29.5 67h204zM789.001 -327c-27.333 -30 -60.667 -45.001 -100 -45.001c-41.333 0 -76.333 14.333 -105 43s-43 63.334 -43 104.001
c0 38 14.333 70.667 43 98s63 41 103 41c39.333 0 73 -14 101 -42s42 -61.667 42 -101c0 -38 -13.667 -70.667 -41 -98z" />
    <glyph glyph-name="uni1EB7" unicode="&#x1eb7;" horiz-adv-x="1058" 
d="M1020 0l-445.002 0.00488281l15 102l-37 -32l-39 -31l-33 -29l-33 -28c-5.33301 -1.33301 -15.166 -2 -29.499 -2h-33.5h-23c-99.333 0 -176.333 25.167 -231 75.5s-82 115.166 -82 194.499c0 17.333 2 36.333 6 57l17 58c18.667 44.667 46.5 82.334 83.5 113.001
s90.167 59.667 159.5 87l144 56l6 2l69 28c30 15.333 45 38.666 45 69.999c0 27.333 -12.5 53.666 -37.5 78.999s-59.5 38 -103.5 38c-28.667 0 -63.167 -5.83301 -103.5 -17.5s-85.5 -29.167 -135.5 -52.5l-48 -23l-28 -14c18.667 45.333 33 89.666 43 132.999l24 125
c38.667 11.333 67.334 19 86.001 23c49.333 10.667 96.666 16 141.999 16c199.333 0 339.5 -20.833 420.5 -62.5s121.5 -115.834 121.5 -222.501v-524c0 -62.667 3.83301 -108.334 11.5 -137.001s23.834 -56 48.501 -82zM576.998 217.005v258h-96
c-17.333 0 -29 -0.666992 -35 -2c-12 -2.66699 -20.667 -15 -26 -37c-4 -8 -6 -19.667 -6 -35c0 -84.667 7.16699 -141.667 21.5 -171s43.833 -44 88.5 -44c12.667 -1.33301 21 -2 25 -2c18.667 0 28 11 28 33zM846.998 1339c-18 -97.333 -70.334 -170.667 -157.001 -220
c-50.667 -28 -104 -42 -160 -42c-75.333 0 -140.5 25 -195.5 75s-82.5 112.333 -82.5 187h194c0 -25.333 10 -47.166 30 -65.499s43.667 -27.5 71 -27.5c26.667 0 49.834 9.16699 69.501 27.5s29.5 40.166 29.5 65.499h201zM632.997 -326.996
c-27.333 -30 -60.999 -45.001 -100.999 -45.001c-40.667 0 -75.334 14.333 -104.001 43s-43 63.334 -43 104.001c0 38 14.333 70.667 43 98s62.667 41 102 41c40 0 74 -14 102 -42s42 -61.667 42 -101c0 -38 -13.667 -70.667 -41 -98z" />
    <glyph glyph-name="uni1EB8" unicode="&#x1eb8;" horiz-adv-x="1013" 
d="M1042 330l-147.997 -330h-856c27.333 27.333 47.5 58.333 60.5 93s19.5 77.334 19.5 128.001v1039c0 81.333 -25.333 153 -76 215h895l-141 -324l-53 23c-32 10.667 -62.333 18.667 -91 24s-59.334 8 -92.001 8v-338h348l-178 -299c-13.333 6 -23.333 10.333 -30 13
c-22 9.33301 -38.167 15.666 -48.5 18.999s-24.333 7.5 -42 12.5s-34.167 8.83301 -49.5 11.5v-353c97.333 0 182.166 3.83301 254.499 11.5s148.166 23.167 227.499 46.5zM585.003 -327c-27.333 -30 -60.667 -45.001 -100 -45.001c-41.333 0 -76.333 14.333 -105 43
s-43 63.334 -43 104.001c0 38 14.333 70.667 43 98s63 41 103 41c39.333 0 73 -14 101 -42s42 -61.667 42 -101c0 -38 -13.667 -70.667 -41 -98z" />
    <glyph glyph-name="uni1EB9" unicode="&#x1eb9;" horiz-adv-x="1017" 
d="M965 487l-2.99902 -38.001h-520l4 -46c12.667 -64 37.667 -112.667 75 -146s90.333 -50 159 -50c61.333 0 137 16.333 227 49l47 18c-14.667 -21.333 -28.167 -42.333 -40.5 -63s-23.333 -42.167 -33 -64.5s-16.5 -38.5 -20.5 -48.5c-12 -27.333 -21.667 -53.333 -29 -78
c-27.333 -8 -56.333 -15 -87 -21s-58.334 -9 -83.001 -9c-196.667 0 -346.667 38.667 -450 116c-109.333 82 -164 204.333 -164 367c0 52 6 110 18 174c19.333 92.667 56.666 170.834 111.999 234.501s123.333 107.167 204 130.5c34 10.667 65.667 18 95 22s60.333 6 93 6
c128.667 0 226.834 -47.333 294.501 -142s101.5 -231.667 101.5 -411zM661.001 650.999c0 76.667 -7.83301 131.332 -23.5 163.999s-40.5 49 -74.5 49c-38 2.66699 -68 -11.666 -90 -42.999s-33 -88 -33 -170l-2 -26h221zM633.001 -327.003
c-27.333 -30 -60.667 -45.001 -100 -45.001c-41.333 0 -76.333 14.333 -105 43s-43 63.334 -43 104.001c0 38 14.333 70.667 43 98s62.667 41 102 41c40 0 74 -14 102 -42s42 -61.667 42 -101c0 -38 -13.667 -70.667 -41 -98z" />
    <glyph glyph-name="uni1EBA" unicode="&#x1eba;" horiz-adv-x="1013" 
d="M1042 330l-147.997 -330h-856c27.333 27.333 47.5 58.333 60.5 93s19.5 77.334 19.5 128.001v1039c0 81.333 -25.333 153 -76 215h895l-141 -324l-53 23c-32 10.667 -62.333 18.667 -91 24s-59.334 8 -92.001 8v-338h348l-178 -299c-13.333 6 -23.333 10.333 -30 13
c-22 9.33301 -38.167 15.666 -48.5 18.999s-24.333 7.5 -42 12.5s-34.167 8.83301 -49.5 11.5v-353c97.333 0 182.166 3.83301 254.499 11.5s148.166 23.167 227.499 46.5zM742.003 1883c4 -15.333 5.99902 -30 5.99902 -44c0 -31.333 -8.5 -62.166 -25.5 -92.499
s-42.833 -58.833 -77.5 -85.5c-4 -4 -11 -9 -21 -15c-6 -4 -24.333 -15 -55 -33c-5.33301 -3.33301 -9 -6 -11 -8c-4.66699 -4 -12 -11 -22 -21c-6.66699 -6.66699 -12.167 -13.5 -16.5 -20.5s-7.5 -14.5 -9.5 -22.5c-18.667 13.333 -32 29.666 -40 48.999
c-3.33301 7.33301 -6 15.333 -8 24s-3 17 -3 25c0 28 14.667 57.667 44 89l3 3l15 16c3.33301 4 8.5 11 15.5 21s12.167 17.667 15.5 23c6 11.333 9 23 9 35c0 16.667 -5.5 31.5 -16.5 44.5s-26.5 21.5 -46.5 25.5c-3.33301 0.666992 -8.66602 1 -15.999 1
c-19.333 0 -40 -5.33301 -62 -16s-44.333 -27 -67 -49l-13 -15c6 34 9 68.333 9 103c0 20.667 -1 41 -3 61c20.667 10 40.167 18 58.5 24s40 10.833 65 14.5s48.833 5.5 71.5 5.5c108 0 175 -47.333 201 -142z" />
    <glyph glyph-name="uni1EBB" unicode="&#x1ebb;" horiz-adv-x="1017" 
d="M965 487l-2.99902 -38.001h-520l4 -46c12.667 -64 37.667 -112.667 75 -146s90.333 -50 159 -50c61.333 0 137 16.333 227 49l47 18c-14.667 -21.333 -28.167 -42.333 -40.5 -63s-23.333 -42.167 -33 -64.5s-16.5 -38.5 -20.5 -48.5c-12 -27.333 -21.667 -53.333 -29 -78
c-27.333 -8 -56.333 -15 -87 -21s-58.334 -9 -83.001 -9c-196.667 0 -346.667 38.667 -450 116c-109.333 82 -164 204.333 -164 367c0 52 6 110 18 174c19.333 92.667 56.666 170.834 111.999 234.501s123.333 107.167 204 130.5c34 10.667 65.667 18 95 22s60.333 6 93 6
c128.667 0 226.834 -47.333 294.501 -142s101.5 -231.667 101.5 -411zM661.001 650.999c0 76.667 -7.83301 131.332 -23.5 163.999s-40.5 49 -74.5 49c-38 2.66699 -68 -11.666 -90 -42.999s-33 -88 -33 -170l-2 -26h221zM792.001 1361
c4 -12.667 5.99902 -24.666 5.99902 -35.999c0 -25.333 -8.5 -50.333 -25.5 -75s-42.833 -48 -77.5 -70c-4 -3.33301 -11 -7.33301 -21 -12c-6 -3.33301 -24.333 -12.333 -55 -27c-5.33301 -2.66699 -9 -4.66699 -11 -6c-4.66699 -3.33301 -12 -9 -22 -17
c-6.66699 -5.33301 -12 -10.833 -16 -16.5s-7 -11.834 -9 -18.501c-18.667 10.667 -32 24 -40 40c-3.33301 5.33301 -6 11.666 -8 18.999s-3 14 -3 20c0 22.667 14.667 46.667 44 72l3 3l14 14c3.33301 3.33301 8.5 9 15.5 17l15.5 18c6 9.33301 9 19 9 29
c0 13.333 -5.5 25.333 -16.5 36s-26.167 17.334 -45.5 20.001c-3.33301 0.666992 -8.66602 1 -15.999 1c-19.333 0 -40 -4.33301 -62 -13s-44.333 -21.667 -67 -39l-13 -13c6 28 9 56 9 84c0 16.667 -1 33 -3 49c20.667 8 40.167 14.5 58.5 19.5s40 9 65 12
s48.5 4.5 70.5 4.5c108 0 175 -38.333 201 -115z" />
    <glyph glyph-name="uni1EBC" unicode="&#x1ebc;" horiz-adv-x="1013" 
d="M1042 330l-147.997 -330h-856c27.333 27.333 47.5 58.333 60.5 93s19.5 77.334 19.5 128.001v1039c0 81.333 -25.333 153 -76 215h895l-141 -324l-53 23c-32 10.667 -62.333 18.667 -91 24s-59.334 8 -92.001 8v-338h348l-178 -299c-13.333 6 -23.333 10.333 -30 13
c-22 9.33301 -38.167 15.666 -48.5 18.999s-24.333 7.5 -42 12.5s-34.167 8.83301 -49.5 11.5v-353c97.333 0 182.166 3.83301 254.499 11.5s148.166 23.167 227.499 46.5zM906.003 1851c5.33301 -24 8 -43 8 -57c0 -58.667 -21.5 -108.834 -64.5 -150.501
s-95.833 -62.5 -158.5 -62.5c-12 1.33301 -21 2 -27 2l-55 8l-20 4l-66 13l-57 12l-11 2c-10.667 2.66699 -18 4 -22 4c-26 0 -36.333 -12.333 -31 -37h-196c-2.66699 19.333 -4 34.333 -4 45c0 15.333 2 31 6 47c26 120.667 102.333 181 229 181
c10.667 0 22.167 -1.16699 34.5 -3.5s24.833 -4.16602 37.5 -5.49902l78 -16l8 -2l82 -14l22 -2c18 5.33301 23.667 16 17 32h190z" />
    <glyph glyph-name="uni1EBD" unicode="&#x1ebd;" horiz-adv-x="1017" 
d="M965 487l-2.99902 -38.001h-520l4 -46c12.667 -64 37.667 -112.667 75 -146s90.333 -50 159 -50c61.333 0 137 16.333 227 49l47 18c-14.667 -21.333 -28.167 -42.333 -40.5 -63s-23.333 -42.167 -33 -64.5s-16.5 -38.5 -20.5 -48.5c-12 -27.333 -21.667 -53.333 -29 -78
c-27.333 -8 -56.333 -15 -87 -21s-58.334 -9 -83.001 -9c-196.667 0 -346.667 38.667 -450 116c-109.333 82 -164 204.333 -164 367c0 52 6 110 18 174c19.333 92.667 56.666 170.834 111.999 234.501s123.333 107.167 204 130.5c34 10.667 65.667 18 95 22s60.333 6 93 6
c128.667 0 226.834 -47.333 294.501 -142s101.5 -231.667 101.5 -411zM661.001 650.999c0 76.667 -7.83301 131.332 -23.5 163.999s-40.5 49 -74.5 49c-38 2.66699 -68 -11.666 -90 -42.999s-33 -88 -33 -170l-2 -26h221zM878.001 1395c6 -24.667 9.00098 -44 9.00098 -58
c0 -58.667 -21.5 -108.834 -64.5 -150.501s-96.167 -62.5 -159.5 -62.5c-12 1.33301 -20.667 2 -26 2l-56 9l-20 4l-66 12l-57 12l-10 2c-11.333 2.66699 -19 4 -23 4c-26 0 -36 -12 -30 -36h-197c-2.66699 18.667 -4 33.667 -4 45c0 14.667 2 30.334 6 47.001
c26 120 102.333 180 229 180c11.333 0 23.166 -1 35.499 -3s24.5 -3.66699 36.5 -5l78 -17l8 -2l82 -14l22 -2c18 5.33301 23.667 16.333 17 33h190z" />
    <glyph glyph-name="uni1EBE" unicode="&#x1ebe;" horiz-adv-x="1013" 
d="M839 1581h-219l-113 107l-111 -105h-223l176 246h344zM1042 330l-147.997 -330h-856c27.333 27.333 47.5 58.333 60.5 93s19.5 77.334 19.5 128.001v1039c0 81.333 -25.333 153 -76 215h895l-141 -324l-53 23c-32 10.667 -62.333 18.667 -91 24s-59.334 8 -92.001 8v-338
h348l-178 -299c-13.333 6 -23.333 10.333 -30 13c-22 9.33301 -38.167 15.666 -48.5 18.999s-24.333 7.5 -42 12.5s-34.167 8.83301 -49.5 11.5v-353c97.333 0 182.166 3.83301 254.499 11.5s148.166 23.167 227.499 46.5zM1252 2001l-282 -262h-191l144 262h329z" />
    <glyph glyph-name="uni1EBF" unicode="&#x1ebf;" horiz-adv-x="1017" 
d="M897 1124h-220l-112 107l-111 -105h-223l176 246h344zM965 487l-2.99902 -38.001h-520l4 -46c12.667 -64 37.667 -112.667 75 -146s90.333 -50 159 -50c61.333 0 137 16.333 227 49l47 18c-14.667 -21.333 -28.167 -42.333 -40.5 -63s-23.333 -42.167 -33 -64.5
s-16.5 -38.5 -20.5 -48.5c-12 -27.333 -21.667 -53.333 -29 -78c-27.333 -8 -56.333 -15 -87 -21s-58.334 -9 -83.001 -9c-196.667 0 -346.667 38.667 -450 116c-109.333 82 -164 204.333 -164 367c0 52 6 110 18 174c19.333 92.667 56.666 170.834 111.999 234.501
s123.333 107.167 204 130.5c34 10.667 65.667 18 95 22s60.333 6 93 6c128.667 0 226.834 -47.333 294.501 -142s101.5 -231.667 101.5 -411zM661.001 650.999c0 76.667 -7.83301 131.332 -23.5 163.999s-40.5 49 -74.5 49c-38 2.66699 -68 -11.666 -90 -42.999
s-33 -88 -33 -170l-2 -26h221zM977.001 1560h330l-269 -264h-194z" />
    <glyph glyph-name="uni1EC0" unicode="&#x1ec0;" horiz-adv-x="1013" 
d="M839 1581h-219l-113 107l-111 -105h-223l176 246h344zM1042 330l-147.997 -330h-856c27.333 27.333 47.5 58.333 60.5 93s19.5 77.334 19.5 128.001v1039c0 81.333 -25.333 153 -76 215h895l-141 -324l-53 23c-32 10.667 -62.333 18.667 -91 24s-59.334 8 -92.001 8v-338
h348l-178 -299c-13.333 6 -23.333 10.333 -30 13c-22 9.33301 -38.167 15.666 -48.5 18.999s-24.333 7.5 -42 12.5s-34.167 8.83301 -49.5 11.5v-353c97.333 0 182.166 3.83301 254.499 11.5s148.166 23.167 227.499 46.5zM1022 1744h-194l-269 264h330z" />
    <glyph glyph-name="uni1EC1" unicode="&#x1ec1;" horiz-adv-x="1017" 
d="M897 1124h-220l-112 107l-111 -105h-223l176 246h344zM965 487l-2.99902 -38.001h-520l4 -46c12.667 -64 37.667 -112.667 75 -146s90.333 -50 159 -50c61.333 0 137 16.333 227 49l47 18c-14.667 -21.333 -28.167 -42.333 -40.5 -63s-23.333 -42.167 -33 -64.5
s-16.5 -38.5 -20.5 -48.5c-12 -27.333 -21.667 -53.333 -29 -78c-27.333 -8 -56.333 -15 -87 -21s-58.334 -9 -83.001 -9c-196.667 0 -346.667 38.667 -450 116c-109.333 82 -164 204.333 -164 367c0 52 6 110 18 174c19.333 92.667 56.666 170.834 111.999 234.501
s123.333 107.167 204 130.5c34 10.667 65.667 18 95 22s60.333 6 93 6c128.667 0 226.834 -47.333 294.501 -142s101.5 -231.667 101.5 -411zM661.001 650.999c0 76.667 -7.83301 131.332 -23.5 163.999s-40.5 49 -74.5 49c-38 2.66699 -68 -11.666 -90 -42.999
s-33 -88 -33 -170l-2 -26h221zM1078 1296h-195l-268 264h329z" />
    <glyph glyph-name="uni1EC2" unicode="&#x1ec2;" horiz-adv-x="1013" 
d="M839 1581h-219l-113 107l-111 -105h-223l176 246h344zM1042 330l-147.997 -330h-856c27.333 27.333 47.5 58.333 60.5 93s19.5 77.334 19.5 128.001v1039c0 81.333 -25.333 153 -76 215h895l-141 -324l-53 23c-32 10.667 -62.333 18.667 -91 24s-59.334 8 -92.001 8v-338
h348l-178 -299c-13.333 6 -23.333 10.333 -30 13c-22 9.33301 -38.167 15.666 -48.5 18.999s-24.333 7.5 -42 12.5s-34.167 8.83301 -49.5 11.5v-353c97.333 0 182.166 3.83301 254.499 11.5s148.166 23.167 227.499 46.5zM1072 2030c4 -15.333 5.99902 -30 5.99902 -44
c0 -31.333 -8.5 -62.166 -25.5 -92.499s-42.833 -58.833 -77.5 -85.5c-4 -4 -11 -9 -21 -15c-6 -4 -24.333 -15 -55 -33c-5.33301 -3.33301 -9 -6 -11 -8c-4.66699 -4 -12 -11 -22 -21c-6.66699 -6.66699 -12.167 -13.5 -16.5 -20.5s-7.5 -14.5 -9.5 -22.5
c-18.667 13.333 -32 29.666 -40 48.999c-3.33301 7.33301 -6 15.333 -8 24s-3 17 -3 25c0 28 14.667 57.667 44 89l3 3l15 16c3.33301 4 8.5 11 15.5 21s12.167 17.667 15.5 23c6 11.333 9 23 9 35c0 16.667 -5.5 31.5 -16.5 44.5s-26.5 21.5 -46.5 25.5
c-3.33301 0.666992 -8.66602 1 -15.999 1c-19.333 0 -40 -5.33301 -62 -16s-44.333 -27 -67 -49l-13 -15c6 34 9 68.333 9 103c0 20.667 -1 41 -3 61c20.667 10 40.167 18 58.5 24s40 10.833 65 14.5s48.833 5.5 71.5 5.5c108 0 175 -47.333 201 -142z" />
    <glyph glyph-name="uni1EC3" unicode="&#x1ec3;" horiz-adv-x="1017" 
d="M897 1124h-220l-112 107l-111 -105h-223l176 246h344zM965 487l-2.99902 -38.001h-520l4 -46c12.667 -64 37.667 -112.667 75 -146s90.333 -50 159 -50c61.333 0 137 16.333 227 49l47 18c-14.667 -21.333 -28.167 -42.333 -40.5 -63s-23.333 -42.167 -33 -64.5
s-16.5 -38.5 -20.5 -48.5c-12 -27.333 -21.667 -53.333 -29 -78c-27.333 -8 -56.333 -15 -87 -21s-58.334 -9 -83.001 -9c-196.667 0 -346.667 38.667 -450 116c-109.333 82 -164 204.333 -164 367c0 52 6 110 18 174c19.333 92.667 56.666 170.834 111.999 234.501
s123.333 107.167 204 130.5c34 10.667 65.667 18 95 22s60.333 6 93 6c128.667 0 226.834 -47.333 294.501 -142s101.5 -231.667 101.5 -411zM661.001 650.999c0 76.667 -7.83301 131.332 -23.5 163.999s-40.5 49 -74.5 49c-38 2.66699 -68 -11.666 -90 -42.999
s-33 -88 -33 -170l-2 -26h221zM1102 1563c4 -12.667 5.99902 -24.666 5.99902 -35.999c0 -25.333 -8.5 -50.333 -25.5 -75s-42.833 -48 -77.5 -70c-4 -3.33301 -11 -7.33301 -21 -12c-6 -3.33301 -24 -12.333 -54 -27c-5.33301 -2.66699 -9 -4.66699 -11 -6
c-4.66699 -3.33301 -12 -9 -22 -17c-6.66699 -5.33301 -12.167 -10.833 -16.5 -16.5s-7.5 -11.834 -9.5 -18.501c-18.667 10.667 -32 24 -40 40c-3.33301 5.33301 -6 11.666 -8 18.999s-3 14 -3 20c0 22.667 14.667 46.667 44 72l3 3l15 14c3.33301 3.33301 8.5 9 15.5 17
l15.5 18c6 9.33301 9 19 9 29c0 13.333 -5.5 25.333 -16.5 36s-26.5 17.334 -46.5 20.001c-3.33301 0.666992 -8.66602 1 -15.999 1c-19.333 0 -40 -4.33301 -62 -13s-44.333 -21.667 -67 -39l-13 -13c6 28 9 56 9 84c0 16.667 -1 33 -3 49c20.667 8 40.167 14.5 58.5 19.5
s40 9 65 12s48.833 4.5 71.5 4.5c107.333 0 174 -38.333 200 -115z" />
    <glyph glyph-name="uni1EC4" unicode="&#x1ec4;" horiz-adv-x="1013" 
d="M839 1581h-219l-113 107l-111 -105h-223l176 246h344zM1042 330l-147.997 -330h-856c27.333 27.333 47.5 58.333 60.5 93s19.5 77.334 19.5 128.001v1039c0 81.333 -25.333 153 -76 215h895l-141 -324l-53 23c-32 10.667 -62.333 18.667 -91 24s-59.334 8 -92.001 8v-338
h348l-178 -299c-13.333 6 -23.333 10.333 -30 13c-22 9.33301 -38.167 15.666 -48.5 18.999s-24.333 7.5 -42 12.5s-34.167 8.83301 -49.5 11.5v-353c97.333 0 182.166 3.83301 254.499 11.5s148.166 23.167 227.499 46.5zM933.003 2127c5.33301 -24 8 -42.999 8 -56.999
c0 -58.667 -21.5 -108.834 -64.5 -150.501s-95.833 -62.5 -158.5 -62.5c-12 1.33301 -21 2 -27 2l-55 8l-20 4l-66 13l-57 12l-11 2c-10.667 2.66699 -18 4 -22 4c-26 0 -36.333 -12.333 -31 -37h-196c-2.66699 19.333 -4 34.333 -4 45c0 15.333 2 31 6 47
c26 120.667 102.333 181 229 181c10.667 0 22.167 -1.16699 34.5 -3.5s24.833 -4.16602 37.5 -5.5l78 -16l8 -2l82 -14l22 -2c18 5.33301 23.667 16 17 32h190z" />
    <glyph glyph-name="uni1EC5" unicode="&#x1ec5;" horiz-adv-x="1017" 
d="M897 1124h-220l-112 107l-111 -105h-223l176 246h344zM965 487l-2.99902 -38.001h-520l4 -46c12.667 -64 37.667 -112.667 75 -146s90.333 -50 159 -50c61.333 0 137 16.333 227 49l47 18c-14.667 -21.333 -28.167 -42.333 -40.5 -63s-23.333 -42.167 -33 -64.5
s-16.5 -38.5 -20.5 -48.5c-12 -27.333 -21.667 -53.333 -29 -78c-27.333 -8 -56.333 -15 -87 -21s-58.334 -9 -83.001 -9c-196.667 0 -346.667 38.667 -450 116c-109.333 82 -164 204.333 -164 367c0 52 6 110 18 174c19.333 92.667 56.666 170.834 111.999 234.501
s123.333 107.167 204 130.5c34 10.667 65.667 18 95 22s60.333 6 93 6c128.667 0 226.834 -47.333 294.501 -142s101.5 -231.667 101.5 -411zM661.001 650.999c0 76.667 -7.83301 131.332 -23.5 163.999s-40.5 49 -74.5 49c-38 2.66699 -68 -11.666 -90 -42.999
s-33 -88 -33 -170l-2 -26h221zM952.001 1670c6 -24.667 9.00195 -44 9.00195 -58c0 -58.667 -21.5 -108.834 -64.5 -150.501s-96.167 -62.5 -159.5 -62.5c-12 1.33301 -20.667 2 -26 2l-56 9l-20 4l-66 12l-57 12l-10 2c-11.333 2.66699 -19 4 -23 4c-26 0 -36 -12 -30 -36
h-197c-2.66699 18.667 -4 33.667 -4 45c0 14.667 2 30.334 6 47.001c26 120 102.333 180 229 180c11.333 0 23.166 -1 35.499 -3s24.5 -3.66699 36.5 -5l78 -17l8 -2l82 -14l23 -2c17.333 5.33301 22.666 16.333 15.999 33h190z" />
    <glyph glyph-name="uni1EC6" unicode="&#x1ec6;" horiz-adv-x="1013" 
d="M839 1581h-219l-113 107l-111 -105h-223l176 246h344zM1042 330l-147.997 -330h-856c27.333 27.333 47.5 58.333 60.5 93s19.5 77.334 19.5 128.001v1039c0 81.333 -25.333 153 -76 215h895l-141 -324l-53 23c-32 10.667 -62.333 18.667 -91 24s-59.334 8 -92.001 8v-338
h348l-178 -299c-13.333 6 -23.333 10.333 -30 13c-22 9.33301 -38.167 15.666 -48.5 18.999s-24.333 7.5 -42 12.5s-34.167 8.83301 -49.5 11.5v-353c97.333 0 182.166 3.83301 254.499 11.5s148.166 23.167 227.499 46.5zM585.003 -327
c-27.333 -30 -60.667 -45.001 -100 -45.001c-41.333 0 -76.333 14.333 -105 43s-43 63.334 -43 104.001c0 38 14.333 70.667 43 98s63 41 103 41c39.333 0 73 -14 101 -42s42 -61.667 42 -101c0 -38 -13.667 -70.667 -41 -98z" />
    <glyph glyph-name="uni1EC7" unicode="&#x1ec7;" horiz-adv-x="1017" 
d="M897 1124h-220l-112 107l-111 -105h-223l176 246h344zM965 487l-2.99902 -38.001h-520l4 -46c12.667 -64 37.667 -112.667 75 -146s90.333 -50 159 -50c61.333 0 137 16.333 227 49l47 18c-14.667 -21.333 -28.167 -42.333 -40.5 -63s-23.333 -42.167 -33 -64.5
s-16.5 -38.5 -20.5 -48.5c-12 -27.333 -21.667 -53.333 -29 -78c-27.333 -8 -56.333 -15 -87 -21s-58.334 -9 -83.001 -9c-196.667 0 -346.667 38.667 -450 116c-109.333 82 -164 204.333 -164 367c0 52 6 110 18 174c19.333 92.667 56.666 170.834 111.999 234.501
s123.333 107.167 204 130.5c34 10.667 65.667 18 95 22s60.333 6 93 6c128.667 0 226.834 -47.333 294.501 -142s101.5 -231.667 101.5 -411zM661.001 650.999c0 76.667 -7.83301 131.332 -23.5 163.999s-40.5 49 -74.5 49c-38 2.66699 -68 -11.666 -90 -42.999
s-33 -88 -33 -170l-2 -26h221zM633.001 -327.003c-27.333 -30 -60.667 -45.001 -100 -45.001c-41.333 0 -76.333 14.333 -105 43s-43 63.334 -43 104.001c0 38 14.333 70.667 43 98s62.667 41 102 41c40 0 74 -14 102 -42s42 -61.667 42 -101c0 -38 -13.667 -70.667 -41 -98
z" />
    <glyph glyph-name="uni1EC8" unicode="&#x1ec8;" horiz-adv-x="675" 
d="M638 1475c-16 -20.667 -32.333 -48 -49 -82c-20.667 -48 -31 -92.333 -31 -133v-1041c0 -87.333 25.333 -160.333 76 -219h-594c50.667 58.667 76 131.667 76 219v1043c0 90 -26.667 161 -80 213h602zM535 1883c4 -15.333 5.99902 -30 5.99902 -44
c0 -31.333 -8.5 -62.166 -25.5 -92.499s-42.833 -58.833 -77.5 -85.5c-4 -4 -11 -9 -21 -15c-6 -4 -24.333 -15 -55 -33c-5.33301 -3.33301 -9 -6 -11 -8c-4.66699 -4 -12 -11 -22 -21c-6.66699 -6.66699 -12.167 -13.5 -16.5 -20.5s-7.5 -14.5 -9.5 -22.5
c-18.667 13.333 -32 29.666 -40 48.999c-3.33301 7.33301 -6 15.333 -8 24s-3 17 -3 25c0 28 14.667 57.667 44 89l3 3l15 16c3.33301 4 8.5 11 15.5 21s12.167 17.667 15.5 23c6 11.333 9 23 9 35c0 16.667 -5.5 31.5 -16.5 44.5s-26.5 21.5 -46.5 25.5
c-3.33301 0.666992 -8.66602 1 -15.999 1c-19.333 0 -40 -5.33301 -62 -16s-44.333 -27 -67 -49l-13 -15c6 34 9 68.333 9 103c0 20.667 -1 41 -3 61c20.667 10 40.167 18 58.5 24s40 10.833 65 14.5s48.833 5.5 71.5 5.5c108 0 175 -47.333 201 -142z" />
    <glyph glyph-name="uni1EC9" unicode="&#x1ec9;" horiz-adv-x="575" 
d="M538 0l-502.001 0.000976562c20.667 24.667 35.334 54 44.001 88s13 78.333 13 133v602c0 82 -19 147 -57 195h502l-15 -25c-31.333 -54.667 -47 -111.334 -47 -170.001v-604c0 -54.667 4.83301 -98 14.5 -130s25.5 -61.667 47.5 -89zM496.999 1361
c4 -12.667 5.99902 -24.666 5.99902 -35.999c0 -25.333 -8.5 -50.333 -25.5 -75s-42.5 -48 -76.5 -70c-4 -3.33301 -11 -7.33301 -21 -12c-6 -3.33301 -24.333 -12.333 -55 -27c-5.33301 -2.66699 -9 -4.66699 -11 -6c-4.66699 -3.33301 -12 -9 -22 -17
c-6.66699 -5.33301 -12.167 -10.833 -16.5 -16.5s-7.5 -11.834 -9.5 -18.501c-18.667 10.667 -32 24 -40 40c-3.33301 5.33301 -6 11.666 -8 18.999s-3 14 -3 20c0 22.667 14.667 46.667 44 72l3 3l15 14c3.33301 3.33301 8.5 9 15.5 17l15.5 18c6 9.33301 9 19 9 29
c0 13.333 -5.5 25.333 -16.5 36s-26.5 17.334 -46.5 20.001c-3.33301 0.666992 -8.66602 1 -15.999 1c-19.333 0 -40 -4.33301 -62 -13s-44.333 -21.667 -67 -39l-13 -13c6 28 9 56 9 84c0 16.667 -1 33 -3 49c20.667 8 40.167 14.5 58.5 19.5s40 9 65 12
s48.833 4.5 71.5 4.5c107.333 0 174 -38.333 200 -115z" />
    <glyph glyph-name="uni1ECA" unicode="&#x1eca;" horiz-adv-x="675" 
d="M638 1475c-16 -20.667 -32.333 -48 -49 -82c-20.667 -48 -31 -92.333 -31 -133v-1041c0 -87.333 25.333 -160.333 76 -219h-594c50.667 58.667 76 131.667 76 219v1043c0 90 -26.667 161 -80 213h602zM440 -327c-26.667 -30 -59.999 -45.001 -99.999 -45.001
c-40.667 0 -75.334 14.333 -104.001 43s-43 63.334 -43 104.001c0 38 14.333 70.667 43 98s62.667 41 102 41s73 -14 101 -42s42 -61.667 42 -101c0 -38 -13.667 -70.667 -41 -98z" />
    <glyph glyph-name="uni1ECB" unicode="&#x1ecb;" horiz-adv-x="575" 
d="M444 1149c-41.333 -41.333 -93.333 -61.9971 -156 -61.9971c-58.667 0 -108.5 21.167 -149.5 63.5s-61.5 92.166 -61.5 149.499s20.5 107.166 61.5 149.499s90.833 63.5 149.5 63.5c62.667 0 115.167 -20.333 157.5 -61s63.5 -91.334 63.5 -152.001
c0 -60 -21.667 -110.333 -65 -151zM538 0.00292969l-502.001 0.000976562c20.667 24.667 35.334 54 44.001 88s13 78.333 13 133v602c0 82 -19 147 -57 195h502l-15 -25c-31.333 -54.667 -47 -111.334 -47 -170.001v-604c0 -54.667 4.83301 -98 14.5 -130
s25.5 -61.667 47.5 -89zM389.999 -326.996c-27.333 -30 -60.667 -45.001 -100 -45.001c-40.667 0 -75.5 14.333 -104.5 43s-43.5 63.334 -43.5 104.001c0 38 14.5 70.667 43.5 98s63.167 41 102.5 41s73 -14 101 -42s42 -61.667 42 -101c0 -38 -13.667 -70.667 -41 -98z" />
    <glyph glyph-name="uni1ECC" unicode="&#x1ecc;" horiz-adv-x="1630" 
d="M1540 950c20 -82 30.002 -161.667 30.002 -239c0 -210.667 -69.833 -384.5 -209.5 -521.5s-323.5 -205.5 -551.5 -205.5c-218.667 0 -398.334 68.833 -539.001 206.5s-211 319.167 -211 544.5c0 229.333 68.333 413 205 551s321 207 553 207
c188 0 344.167 -46.5 468.5 -139.5s209.166 -227.5 254.499 -403.5zM1132 596c0 126.667 -17.333 236.169 -52 328.502s-85 167.166 -151 224.499c-47.333 40.667 -94.333 70.667 -141 90s-87.667 29 -123 29c-31.333 0 -56.5 -4.83301 -75.5 -14.5
s-31.167 -22.834 -36.5 -39.501c-10 -24 -18.333 -50 -25 -78s-12.5 -64.167 -17.5 -108.5s-7.5 -91.833 -7.5 -142.5c0 -170.667 34.167 -312 102.5 -424s160.5 -186.333 276.5 -223c30 -10 50.667 -16.333 62 -19c31.333 -9.33301 54.333 -14 69 -14
c36 0 67 53.333 93 160c17.333 68 26 145 26 231zM918.002 -326.998c-27.333 -30 -60.667 -45.001 -100 -45.001c-41.333 0 -76.333 14.333 -105 43s-43 63.334 -43 104.001c0 38 14.333 70.667 43 98s63 41 103 41c39.333 0 73 -14 101 -42s42 -61.667 42 -101
c0 -38 -13.667 -70.667 -41 -98z" />
    <glyph glyph-name="uni1ECD" unicode="&#x1ecd;" horiz-adv-x="1204" 
d="M1134 385c-26 -106.667 -76.501 -194.833 -151.501 -264.5s-162.167 -111.834 -261.5 -126.501c-52 -8 -101.333 -12 -148 -12c-159.333 0 -286.166 42.333 -380.499 127s-141.5 196.334 -141.5 335.001c0 63.333 6.5 120.833 19.5 172.5s35.167 103.5 66.5 155.5
c109.333 176 281.333 264 516 264c144.667 0 264.5 -46 359.5 -138s142.5 -210.333 142.5 -355c0 -52 -7 -104.667 -21 -158zM779.999 244.001l0.00195312 95.998l-2 51c-8 84.667 -24 156.667 -48 216s-55.667 109.666 -95 150.999c-48 47.333 -83.333 73.5 -106 78.5
s-37.334 7.5 -44.001 7.5h-18c-24.667 0 -40.834 -9.66699 -48.501 -29s-11.5 -63.666 -11.5 -132.999l2 -47c0 -80.667 15 -155 45 -223c26 -60 62.333 -110.667 109 -152c20.667 -19.333 39.5 -34.666 56.5 -45.999s33 -20.166 48 -26.499s31.5 -9.5 49.5 -9.5
c35.333 0 56.333 22 63 66zM706.001 -327.001c-27.333 -30 -60.666 -45.001 -99.999 -45.001c-40.667 0 -75.334 14.333 -104.001 43s-43 63.334 -43 104.001c0 38 14.333 70.667 43 98s62.667 41 102 41s73 -14 101 -42s42 -61.667 42 -101c0 -38 -13.667 -70.667 -41 -98z
" />
    <glyph glyph-name="uni1ECE" unicode="&#x1ece;" horiz-adv-x="1630" 
d="M1540 950c20 -82 30.002 -161.667 30.002 -239c0 -210.667 -69.833 -384.5 -209.5 -521.5s-323.5 -205.5 -551.5 -205.5c-218.667 0 -398.334 68.833 -539.001 206.5s-211 319.167 -211 544.5c0 229.333 68.333 413 205 551s321 207 553 207
c188 0 344.167 -46.5 468.5 -139.5s209.166 -227.5 254.499 -403.5zM1132 596c0 126.667 -17.333 236.169 -52 328.502s-85 167.166 -151 224.499c-47.333 40.667 -94.333 70.667 -141 90s-87.667 29 -123 29c-31.333 0 -56.5 -4.83301 -75.5 -14.5
s-31.167 -22.834 -36.5 -39.501c-10 -24 -18.333 -50 -25 -78s-12.5 -64.167 -17.5 -108.5s-7.5 -91.833 -7.5 -142.5c0 -170.667 34.167 -312 102.5 -424s160.5 -186.333 276.5 -223c30 -10 50.667 -16.333 62 -19c31.333 -9.33301 54.333 -14 69 -14
c36 0 67 53.333 93 160c17.333 68 26 145 26 231zM1012 1883c4 -15.333 5.99902 -30 5.99902 -44c0 -31.333 -8.5 -62.166 -25.5 -92.499s-42.5 -58.833 -76.5 -85.5c-4 -4 -11 -9 -21 -15c-6 -4 -24.333 -15 -55 -33c-5.33301 -3.33301 -9 -6 -11 -8
c-4.66699 -4 -12 -11 -22 -21c-6.66699 -6.66699 -12.167 -13.5 -16.5 -20.5s-7.5 -14.5 -9.5 -22.5c-18.667 13.333 -32 29.666 -40 48.999c-3.33301 7.33301 -6 15.333 -8 24s-3 17 -3 25c0 28 14.667 57.667 44 89l3 3l15 16c3.33301 4 8.5 11 15.5 21
s12.167 17.667 15.5 23c6 11.333 9 23 9 35c0 16.667 -5.5 31.5 -16.5 44.5s-26.5 21.5 -46.5 25.5c-3.33301 0.666992 -8.66602 1 -15.999 1c-19.333 0 -40 -5.33301 -62 -16s-44.333 -27 -67 -49l-13 -15c6 34 9 68.333 9 103c0 20.667 -1 41 -3 61
c20.667 10 40.167 18 58.5 24s40 10.833 65 14.5s48.833 5.5 71.5 5.5c107.333 0 174 -47.333 200 -142z" />
    <glyph glyph-name="uni1ECF" unicode="&#x1ecf;" horiz-adv-x="1204" 
d="M1134 385c-26 -106.667 -76.501 -194.833 -151.501 -264.5s-162.167 -111.834 -261.5 -126.501c-52 -8 -101.333 -12 -148 -12c-159.333 0 -286.166 42.333 -380.499 127s-141.5 196.334 -141.5 335.001c0 63.333 6.5 120.833 19.5 172.5s35.167 103.5 66.5 155.5
c109.333 176 281.333 264 516 264c144.667 0 264.5 -46 359.5 -138s142.5 -210.333 142.5 -355c0 -52 -7 -104.667 -21 -158zM779.999 244.001l0.00195312 95.998l-2 51c-8 84.667 -24 156.667 -48 216s-55.667 109.666 -95 150.999c-48 47.333 -83.333 73.5 -106 78.5
s-37.334 7.5 -44.001 7.5h-18c-24.667 0 -40.834 -9.66699 -48.501 -29s-11.5 -63.666 -11.5 -132.999l2 -47c0 -80.667 15 -155 45 -223c26 -60 62.333 -110.667 109 -152c20.667 -19.333 39.5 -34.666 56.5 -45.999s33 -20.166 48 -26.499s31.5 -9.5 49.5 -9.5
c35.333 0 56.333 22 63 66zM792.001 1361c4 -12.667 5.99902 -24.666 5.99902 -35.999c0 -25.333 -8.5 -50.333 -25.5 -75s-42.833 -48 -77.5 -70c-4 -3.33301 -11 -7.33301 -21 -12c-6 -3.33301 -24.333 -12.333 -55 -27c-5.33301 -2.66699 -9 -4.66699 -11 -6
c-4.66699 -3.33301 -12 -9 -22 -17c-6.66699 -5.33301 -12 -10.833 -16 -16.5s-7 -11.834 -9 -18.501c-18.667 10.667 -32 24 -40 40c-3.33301 5.33301 -6 11.666 -8 18.999s-3 14 -3 20c0 22.667 14.667 46.667 44 72l3 3l14 14c3.33301 3.33301 8.5 9 15.5 17l15.5 18
c6 9.33301 9 19 9 29c0 13.333 -5.5 25.333 -16.5 36s-26.167 17.334 -45.5 20.001c-3.33301 0.666992 -8.66602 1 -15.999 1c-19.333 0 -40 -4.33301 -62 -13s-44.333 -21.667 -67 -39l-13 -13c6 28 9 56 9 84c0 16.667 -1 33 -3 49c20.667 8 40.167 14.5 58.5 19.5
s40 9 65 12s48.5 4.5 70.5 4.5c108 0 175 -38.333 201 -115z" />
    <glyph glyph-name="uni1ED0" unicode="&#x1ed0;" horiz-adv-x="1630" 
d="M1149 1581h-220l-112 107l-111 -105h-223l176 246h344zM1540 950c20 -82 30.002 -161.667 30.002 -239c0 -210.667 -69.833 -384.5 -209.5 -521.5s-323.5 -205.5 -551.5 -205.5c-218.667 0 -398.334 68.833 -539.001 206.5s-211 319.167 -211 544.5
c0 229.333 68.333 413 205 551s321 207 553 207c188 0 344.167 -46.5 468.5 -139.5s209.166 -227.5 254.499 -403.5zM1132 596c0 126.667 -17.333 236.169 -52 328.502s-85 167.166 -151 224.499c-47.333 40.667 -94.333 70.667 -141 90s-87.667 29 -123 29
c-31.333 0 -56.5 -4.83301 -75.5 -14.5s-31.167 -22.834 -36.5 -39.501c-10 -24 -18.333 -50 -25 -78s-12.5 -64.167 -17.5 -108.5s-7.5 -91.833 -7.5 -142.5c0 -170.667 34.167 -312 102.5 -424s160.5 -186.333 276.5 -223c30 -10 50.667 -16.333 62 -19
c31.333 -9.33301 54.333 -14 69 -14c36 0 67 53.333 93 160c17.333 68 26 145 26 231zM1555 2001l-283 -262h-190l143 262h330z" />
    <glyph glyph-name="uni1ED1" unicode="&#x1ed1;" horiz-adv-x="1204" 
d="M936 1124h-219l-113 107l-111 -105h-223l176 246h344zM1134 385c-26 -106.667 -76.501 -194.833 -151.501 -264.5s-162.167 -111.834 -261.5 -126.501c-52 -8 -101.333 -12 -148 -12c-159.333 0 -286.166 42.333 -380.499 127s-141.5 196.334 -141.5 335.001
c0 63.333 6.5 120.833 19.5 172.5s35.167 103.5 66.5 155.5c109.333 176 281.333 264 516 264c144.667 0 264.5 -46 359.5 -138s142.5 -210.333 142.5 -355c0 -52 -7 -104.667 -21 -158zM779.999 244.001l0.00195312 95.998l-2 51c-8 84.667 -24 156.667 -48 216
s-55.667 109.666 -95 150.999c-48 47.333 -83.333 73.5 -106 78.5s-37.334 7.5 -44.001 7.5h-18c-24.667 0 -40.834 -9.66699 -48.501 -29s-11.5 -63.666 -11.5 -132.999l2 -47c0 -80.667 15 -155 45 -223c26 -60 62.333 -110.667 109 -152
c20.667 -19.333 39.5 -34.666 56.5 -45.999s33 -20.166 48 -26.499s31.5 -9.5 49.5 -9.5c35.333 0 56.333 22 63 66zM1004 1560h329l-268 -264h-195z" />
    <glyph glyph-name="uni1ED2" unicode="&#x1ed2;" horiz-adv-x="1630" 
d="M1149 1581h-220l-112 107l-111 -105h-223l176 246h344zM1540 950c20 -82 30.002 -161.667 30.002 -239c0 -210.667 -69.833 -384.5 -209.5 -521.5s-323.5 -205.5 -551.5 -205.5c-218.667 0 -398.334 68.833 -539.001 206.5s-211 319.167 -211 544.5
c0 229.333 68.333 413 205 551s321 207 553 207c188 0 344.167 -46.5 468.5 -139.5s209.166 -227.5 254.499 -403.5zM1132 596c0 126.667 -17.333 236.169 -52 328.502s-85 167.166 -151 224.499c-47.333 40.667 -94.333 70.667 -141 90s-87.667 29 -123 29
c-31.333 0 -56.5 -4.83301 -75.5 -14.5s-31.167 -22.834 -36.5 -39.501c-10 -24 -18.333 -50 -25 -78s-12.5 -64.167 -17.5 -108.5s-7.5 -91.833 -7.5 -142.5c0 -170.667 34.167 -312 102.5 -424s160.5 -186.333 276.5 -223c30 -10 50.667 -16.333 62 -19
c31.333 -9.33301 54.333 -14 69 -14c36 0 67 53.333 93 160c17.333 68 26 145 26 231zM1335 1744h-195l-268 264h330z" />
    <glyph glyph-name="uni1ED3" unicode="&#x1ed3;" horiz-adv-x="1204" 
d="M936 1124h-219l-113 107l-111 -105h-223l176 246h344zM1134 385c-26 -106.667 -76.501 -194.833 -151.501 -264.5s-162.167 -111.834 -261.5 -126.501c-52 -8 -101.333 -12 -148 -12c-159.333 0 -286.166 42.333 -380.499 127s-141.5 196.334 -141.5 335.001
c0 63.333 6.5 120.833 19.5 172.5s35.167 103.5 66.5 155.5c109.333 176 281.333 264 516 264c144.667 0 264.5 -46 359.5 -138s142.5 -210.333 142.5 -355c0 -52 -7 -104.667 -21 -158zM779.999 244.001l0.00195312 95.998l-2 51c-8 84.667 -24 156.667 -48 216
s-55.667 109.666 -95 150.999c-48 47.333 -83.333 73.5 -106 78.5s-37.334 7.5 -44.001 7.5h-18c-24.667 0 -40.834 -9.66699 -48.501 -29s-11.5 -63.666 -11.5 -132.999l2 -47c0 -80.667 15 -155 45 -223c26 -60 62.333 -110.667 109 -152
c20.667 -19.333 39.5 -34.666 56.5 -45.999s33 -20.166 48 -26.499s31.5 -9.5 49.5 -9.5c35.333 0 56.333 22 63 66zM1114 1296h-194l-269 264h330z" />
    <glyph glyph-name="uni1ED4" unicode="&#x1ed4;" horiz-adv-x="1630" 
d="M1149 1581h-220l-112 107l-111 -105h-223l176 246h344zM1540 950c20 -82 30.002 -161.667 30.002 -239c0 -210.667 -69.833 -384.5 -209.5 -521.5s-323.5 -205.5 -551.5 -205.5c-218.667 0 -398.334 68.833 -539.001 206.5s-211 319.167 -211 544.5
c0 229.333 68.333 413 205 551s321 207 553 207c188 0 344.167 -46.5 468.5 -139.5s209.166 -227.5 254.499 -403.5zM1132 596c0 126.667 -17.333 236.169 -52 328.502s-85 167.166 -151 224.499c-47.333 40.667 -94.333 70.667 -141 90s-87.667 29 -123 29
c-31.333 0 -56.5 -4.83301 -75.5 -14.5s-31.167 -22.834 -36.5 -39.501c-10 -24 -18.333 -50 -25 -78s-12.5 -64.167 -17.5 -108.5s-7.5 -91.833 -7.5 -142.5c0 -170.667 34.167 -312 102.5 -424s160.5 -186.333 276.5 -223c30 -10 50.667 -16.333 62 -19
c31.333 -9.33301 54.333 -14 69 -14c36 0 67 53.333 93 160c17.333 68 26 145 26 231zM1366 2030c4 -15.333 5.99902 -30 5.99902 -44c0 -31.333 -8.5 -62.166 -25.5 -92.499s-42.833 -58.833 -77.5 -85.5c-4 -4 -10.667 -9 -20 -15c-6 -4 -24.333 -15 -55 -33
c-5.33301 -3.33301 -9 -6 -11 -8c-4.66699 -4 -12 -11 -22 -21c-6.66699 -6.66699 -12.167 -13.5 -16.5 -20.5s-7.5 -14.5 -9.5 -22.5c-18.667 13.333 -32 29.666 -40 48.999c-3.33301 7.33301 -6 15.333 -8 24s-3 17 -3 25c0 28 14.667 57.667 44 89l3 3l15 16
c3.33301 4 8.5 11 15.5 21s12.167 17.667 15.5 23c6 11.333 9 23 9 35c0 16.667 -5.5 31.5 -16.5 44.5s-26.5 21.5 -46.5 25.5c-3.33301 0.666992 -8.66602 1 -15.999 1c-19.333 0 -40 -5.33301 -62 -16s-44.333 -27 -67 -49l-13 -15c6 34 9 68.333 9 103
c0 20.667 -1 41 -3 61c20.667 10 40.167 18 58.5 24s40 10.833 65 14.5s48.833 5.5 71.5 5.5c107.333 0 174 -47.333 200 -142z" />
    <glyph glyph-name="uni1ED5" unicode="&#x1ed5;" horiz-adv-x="1204" 
d="M936 1124h-219l-113 107l-111 -105h-223l176 246h344zM1134 385c-26 -106.667 -76.501 -194.833 -151.501 -264.5s-162.167 -111.834 -261.5 -126.501c-52 -8 -101.333 -12 -148 -12c-159.333 0 -286.166 42.333 -380.499 127s-141.5 196.334 -141.5 335.001
c0 63.333 6.5 120.833 19.5 172.5s35.167 103.5 66.5 155.5c109.333 176 281.333 264 516 264c144.667 0 264.5 -46 359.5 -138s142.5 -210.333 142.5 -355c0 -52 -7 -104.667 -21 -158zM779.999 244.001l0.00195312 95.998l-2 51c-8 84.667 -24 156.667 -48 216
s-55.667 109.666 -95 150.999c-48 47.333 -83.333 73.5 -106 78.5s-37.334 7.5 -44.001 7.5h-18c-24.667 0 -40.834 -9.66699 -48.501 -29s-11.5 -63.666 -11.5 -132.999l2 -47c0 -80.667 15 -155 45 -223c26 -60 62.333 -110.667 109 -152
c20.667 -19.333 39.5 -34.666 56.5 -45.999s33 -20.166 48 -26.499s31.5 -9.5 49.5 -9.5c35.333 0 56.333 22 63 66zM1138 1563c4 -12.667 5.99805 -24.666 5.99805 -35.999c0 -25.333 -8.5 -50.333 -25.5 -75s-42.833 -48 -77.5 -70c-4 -3.33301 -11 -7.33301 -21 -12
c-6 -3.33301 -24.333 -12.333 -55 -27c-5.33301 -2.66699 -9 -4.66699 -11 -6c-4.66699 -3.33301 -12 -9 -22 -17c-6.66699 -5.33301 -12.167 -10.833 -16.5 -16.5s-7.5 -11.834 -9.5 -18.501c-18.667 10.667 -32 24 -40 40c-2.66699 5.33301 -5 11.666 -7 18.999
s-3 14 -3 20c0 22.667 14.333 46.667 43 72l3 3l15 14c3.33301 3.33301 8.5 9 15.5 17l15.5 18c6 9.33301 9 19 9 29c0 13.333 -5.5 25.333 -16.5 36s-26.5 17.334 -46.5 20.001c-3.33301 0.666992 -8.66602 1 -15.999 1c-18.667 0 -39 -4.33301 -61 -13
s-44.333 -21.667 -67 -39l-13 -13c6 28 9 56 9 84c0 16.667 -1 33 -3 49c20.667 8 40.167 14.5 58.5 19.5s39.833 9 64.5 12s48.334 4.5 71.001 4.5c108 0 175 -38.333 201 -115z" />
    <glyph glyph-name="uni1ED6" unicode="&#x1ed6;" horiz-adv-x="1630" 
d="M1149 1581h-220l-112 107l-111 -105h-223l176 246h344zM1540 950c20 -82 30.002 -161.667 30.002 -239c0 -210.667 -69.833 -384.5 -209.5 -521.5s-323.5 -205.5 -551.5 -205.5c-218.667 0 -398.334 68.833 -539.001 206.5s-211 319.167 -211 544.5
c0 229.333 68.333 413 205 551s321 207 553 207c188 0 344.167 -46.5 468.5 -139.5s209.166 -227.5 254.499 -403.5zM1132 596c0 126.667 -17.333 236.169 -52 328.502s-85 167.166 -151 224.499c-47.333 40.667 -94.333 70.667 -141 90s-87.667 29 -123 29
c-31.333 0 -56.5 -4.83301 -75.5 -14.5s-31.167 -22.834 -36.5 -39.501c-10 -24 -18.333 -50 -25 -78s-12.5 -64.167 -17.5 -108.5s-7.5 -91.833 -7.5 -142.5c0 -170.667 34.167 -312 102.5 -424s160.5 -186.333 276.5 -223c30 -10 50.667 -16.333 62 -19
c31.333 -9.33301 54.333 -14 69 -14c36 0 67 53.333 93 160c17.333 68 26 145 26 231zM1200 2127c5.33301 -24 8.00195 -42.999 8.00195 -56.999c0 -58.667 -21.5 -108.834 -64.5 -150.501s-95.833 -62.5 -158.5 -62.5c-12.667 1.33301 -21.667 2 -27 2l-55 8l-21 4l-65 13
l-58 12l-10 2c-10.667 2.66699 -18.334 4 -23.001 4c-25.333 0 -35.333 -12.333 -30 -37h-197c-2.66699 19.333 -4 34.333 -4 45c0 15.333 2 31 6 47c26 120.667 102.667 181 230 181c10.667 0 22.167 -1.16699 34.5 -3.5s24.5 -4.16602 36.5 -5.5l78 -16l8 -2l82 -14l23 -2
c17.333 5.33301 22.666 16 15.999 32h191z" />
    <glyph glyph-name="uni1ED7" unicode="&#x1ed7;" horiz-adv-x="1204" 
d="M936 1124h-219l-113 107l-111 -105h-223l176 246h344zM1134 385c-26 -106.667 -76.501 -194.833 -151.501 -264.5s-162.167 -111.834 -261.5 -126.501c-52 -8 -101.333 -12 -148 -12c-159.333 0 -286.166 42.333 -380.499 127s-141.5 196.334 -141.5 335.001
c0 63.333 6.5 120.833 19.5 172.5s35.167 103.5 66.5 155.5c109.333 176 281.333 264 516 264c144.667 0 264.5 -46 359.5 -138s142.5 -210.333 142.5 -355c0 -52 -7 -104.667 -21 -158zM779.999 244.001l0.00195312 95.998l-2 51c-8 84.667 -24 156.667 -48 216
s-55.667 109.666 -95 150.999c-48 47.333 -83.333 73.5 -106 78.5s-37.334 7.5 -44.001 7.5h-18c-24.667 0 -40.834 -9.66699 -48.501 -29s-11.5 -63.666 -11.5 -132.999l2 -47c0 -80.667 15 -155 45 -223c26 -60 62.333 -110.667 109 -152
c20.667 -19.333 39.5 -34.666 56.5 -45.999s33 -20.166 48 -26.499s31.5 -9.5 49.5 -9.5c35.333 0 56.333 22 63 66zM1007 1670c5.33301 -24.667 8 -44 8 -58c0 -58.667 -21.5 -108.834 -64.5 -150.501s-95.833 -62.5 -158.5 -62.5c-12 1.33301 -20.667 2 -26 2l-56 9l-20 4
l-66 12l-57 12l-10 2c-11.333 2.66699 -19 4 -23 4c-26 0 -36.333 -12 -31 -36h-196c-2.66699 18.667 -4 33.667 -4 45c0 14.667 2 30.334 6 47.001c26 120 102.333 180 229 180c11.333 0 23 -1 35 -3s24.333 -3.66699 37 -5l78 -17l8 -2l82 -14l22 -2
c18 5.33301 23.667 16.333 17 33h190z" />
    <glyph glyph-name="uni1ED8" unicode="&#x1ed8;" horiz-adv-x="1630" 
d="M1149 1581h-220l-112 107l-111 -105h-223l176 246h344zM1540 950c20 -82 30.002 -161.667 30.002 -239c0 -210.667 -69.833 -384.5 -209.5 -521.5s-323.5 -205.5 -551.5 -205.5c-218.667 0 -398.334 68.833 -539.001 206.5s-211 319.167 -211 544.5
c0 229.333 68.333 413 205 551s321 207 553 207c188 0 344.167 -46.5 468.5 -139.5s209.166 -227.5 254.499 -403.5zM1132 596c0 126.667 -17.333 236.169 -52 328.502s-85 167.166 -151 224.499c-47.333 40.667 -94.333 70.667 -141 90s-87.667 29 -123 29
c-31.333 0 -56.5 -4.83301 -75.5 -14.5s-31.167 -22.834 -36.5 -39.501c-10 -24 -18.333 -50 -25 -78s-12.5 -64.167 -17.5 -108.5s-7.5 -91.833 -7.5 -142.5c0 -170.667 34.167 -312 102.5 -424s160.5 -186.333 276.5 -223c30 -10 50.667 -16.333 62 -19
c31.333 -9.33301 54.333 -14 69 -14c36 0 67 53.333 93 160c17.333 68 26 145 26 231zM918.002 -326.998c-27.333 -30 -60.667 -45.001 -100 -45.001c-41.333 0 -76.333 14.333 -105 43s-43 63.334 -43 104.001c0 38 14.333 70.667 43 98s63 41 103 41
c39.333 0 73 -14 101 -42s42 -61.667 42 -101c0 -38 -13.667 -70.667 -41 -98z" />
    <glyph glyph-name="uni1ED9" unicode="&#x1ed9;" horiz-adv-x="1204" 
d="M936 1124h-219l-113 107l-111 -105h-223l176 246h344zM1134 385c-26 -106.667 -76.501 -194.833 -151.501 -264.5s-162.167 -111.834 -261.5 -126.501c-52 -8 -101.333 -12 -148 -12c-159.333 0 -286.166 42.333 -380.499 127s-141.5 196.334 -141.5 335.001
c0 63.333 6.5 120.833 19.5 172.5s35.167 103.5 66.5 155.5c109.333 176 281.333 264 516 264c144.667 0 264.5 -46 359.5 -138s142.5 -210.333 142.5 -355c0 -52 -7 -104.667 -21 -158zM779.999 244.001l0.00195312 95.998l-2 51c-8 84.667 -24 156.667 -48 216
s-55.667 109.666 -95 150.999c-48 47.333 -83.333 73.5 -106 78.5s-37.334 7.5 -44.001 7.5h-18c-24.667 0 -40.834 -9.66699 -48.501 -29s-11.5 -63.666 -11.5 -132.999l2 -47c0 -80.667 15 -155 45 -223c26 -60 62.333 -110.667 109 -152
c20.667 -19.333 39.5 -34.666 56.5 -45.999s33 -20.166 48 -26.499s31.5 -9.5 49.5 -9.5c35.333 0 56.333 22 63 66zM706.001 -327.001c-27.333 -30 -60.667 -45.001 -100 -45.001c-41.333 0 -76.333 14.333 -105 43s-43 63.334 -43 104.001c0 38 14.333 70.667 43 98
s63 41 103 41c39.333 0 73 -14 101 -42s42 -61.667 42 -101c0 -38 -13.667 -70.667 -41 -98z" />
    <glyph glyph-name="uni1EDA" unicode="&#x1eda;" horiz-adv-x="1630" 
d="M1181 1845l-282 -262h-191l144 262h329zM1132 596c0 126.667 -17.333 236.169 -52 328.502s-85 167.166 -151 224.499c-47.333 40.667 -94.333 70.667 -141 90s-87.667 29 -123 29c-31.333 0 -56.5 -4.83301 -75.5 -14.5s-31.167 -22.834 -36.5 -39.501
c-10 -24 -18.333 -50 -25 -78s-12.5 -64.167 -17.5 -108.5s-7.5 -91.833 -7.5 -142.5c0 -170.667 34.167 -312 102.5 -424s160.5 -186.333 276.5 -223c30 -10 50.667 -16.333 62 -19c31.333 -9.33301 54.333 -14 69 -14c36 0 67 53.333 93 160c17.333 68 26 145 26 231z
M1391 1253c68 -81.333 117.667 -182.335 149 -303.002c20 -82 30 -161.667 30 -239c0 -210.667 -69.833 -384.5 -209.5 -521.5s-323.5 -205.5 -551.5 -205.5c-218.667 0 -398.334 68.833 -539.001 206.5s-211 319.167 -211 544.5c0 229.333 68.333 413 205 551
s321 207 553 207c188 0 344.333 -46.333 469 -139c6.66699 -5.33301 13.334 -11 20.001 -17c23.333 28.667 41.666 54.667 54.999 78c17.333 32 26 62 26 90c0 26 -7.33301 49.667 -22 71l-15 19c24.667 -3.33301 47.834 -5.5 69.501 -6.5s47.167 -1.5 76.5 -1.5
c18.667 0 38.834 0.833008 60.501 2.5s45.5 3.83398 71.5 6.50098c-14.667 -70 -40.334 -133 -77.001 -189c-18 -29.333 -39.333 -57.166 -64 -83.499s-50.667 -49.833 -78 -70.5h-18z" />
    <glyph glyph-name="uni1EDB" unicode="&#x1edb;" horiz-adv-x="1204" 
d="M969 1389l-283 -263h-191l144 263h330zM780 244l0.00195312 95.998l-2 51c-8 84.667 -24 156.667 -48 216s-55.667 109.666 -95 150.999c-48 47.333 -83.333 73.5 -106 78.5s-37.334 7.5 -44.001 7.5h-18c-24.667 0 -40.834 -9.66699 -48.501 -29
s-11.5 -63.666 -11.5 -132.999l2 -47c0 -80.667 15 -155 45 -223c26 -60 62.333 -110.667 109 -152c20.667 -19.333 39.5 -34.666 56.5 -45.999s33 -20.166 48 -26.499s31.5 -9.5 49.5 -9.5c35.333 0 56.333 22 63 66zM1096 789.998
c39.333 -71.333 58.998 -153.667 58.998 -247c0 -52 -7 -104.667 -21 -158c-26 -106.667 -76.5 -194.834 -151.5 -264.501s-162.167 -111.834 -261.5 -126.501c-52 -8 -101.333 -12 -148 -12c-159.333 0 -286.166 42.333 -380.499 127s-141.5 196.334 -141.5 335.001
c0 63.333 6.5 120.833 19.5 172.5s35.167 103.5 66.5 155.5c109.333 176 281.333 264 516 264c142.667 0 261 -44.667 355 -134c8.66699 12.667 16 24.667 22 36c17.333 32 26 62 26 90c0 26 -7.33301 49.667 -22 71l-15 19c24.667 -3.33301 47.834 -5.5 69.501 -6.5
s47.167 -1.5 76.5 -1.5c18.667 0 38.834 0.833008 60.501 2.5s45.5 3.83398 71.5 6.50098c-14.667 -70 -40.334 -133 -77.001 -189c-18 -29.333 -39.333 -57 -64 -83c-19.333 -20.667 -39.333 -39.667 -60 -57z" />
    <glyph glyph-name="uni1EDC" unicode="&#x1edc;" horiz-adv-x="1630" 
d="M997 1579h-195l-268 264h330zM1132 596c0 126.667 -17.333 236.169 -52 328.502s-85 167.166 -151 224.499c-47.333 40.667 -94.333 70.667 -141 90s-87.667 29 -123 29c-31.333 0 -56.5 -4.83301 -75.5 -14.5s-31.167 -22.834 -36.5 -39.501
c-10 -24 -18.333 -50 -25 -78s-12.5 -64.167 -17.5 -108.5s-7.5 -91.833 -7.5 -142.5c0 -170.667 34.167 -312 102.5 -424s160.5 -186.333 276.5 -223c30 -10 50.667 -16.333 62 -19c31.333 -9.33301 54.333 -14 69 -14c36 0 67 53.333 93 160c17.333 68 26 145 26 231z
M1391 1253c68 -81.333 117.667 -182.335 149 -303.002c20 -82 30 -161.667 30 -239c0 -210.667 -69.833 -384.5 -209.5 -521.5s-323.5 -205.5 -551.5 -205.5c-218.667 0 -398.334 68.833 -539.001 206.5s-211 319.167 -211 544.5c0 229.333 68.333 413 205 551
s321 207 553 207c188 0 344.333 -46.333 469 -139c6.66699 -5.33301 13.334 -11 20.001 -17c23.333 28.667 41.666 54.667 54.999 78c17.333 32 26 62 26 90c0 26 -7.33301 49.667 -22 71l-15 19c24.667 -3.33301 47.834 -5.5 69.501 -6.5s47.167 -1.5 76.5 -1.5
c18.667 0 38.834 0.833008 60.501 2.5s45.5 3.83398 71.5 6.50098c-14.667 -70 -40.334 -133 -77.001 -189c-18 -29.333 -39.333 -57.166 -64 -83.499s-50.667 -49.833 -78 -70.5h-18z" />
    <glyph glyph-name="uni1EDD" unicode="&#x1edd;" horiz-adv-x="1204" 
d="M784 1122h-194l-269 264h330zM780 244l0.00195312 95.998l-2 51c-8 84.667 -24 156.667 -48 216s-55.667 109.666 -95 150.999c-48 47.333 -83.333 73.5 -106 78.5s-37.334 7.5 -44.001 7.5h-18c-24.667 0 -40.834 -9.66699 -48.501 -29s-11.5 -63.666 -11.5 -132.999
l2 -47c0 -80.667 15 -155 45 -223c26 -60 62.333 -110.667 109 -152c20.667 -19.333 39.5 -34.666 56.5 -45.999s33 -20.166 48 -26.499s31.5 -9.5 49.5 -9.5c35.333 0 56.333 22 63 66zM1096 789.998c39.333 -71.333 58.998 -153.667 58.998 -247
c0 -52 -7 -104.667 -21 -158c-26 -106.667 -76.5 -194.834 -151.5 -264.501s-162.167 -111.834 -261.5 -126.501c-52 -8 -101.333 -12 -148 -12c-159.333 0 -286.166 42.333 -380.499 127s-141.5 196.334 -141.5 335.001c0 63.333 6.5 120.833 19.5 172.5
s35.167 103.5 66.5 155.5c109.333 176 281.333 264 516 264c142.667 0 261 -44.667 355 -134c8.66699 12.667 16 24.667 22 36c17.333 32 26 62 26 90c0 26 -7.33301 49.667 -22 71l-15 19c24.667 -3.33301 47.834 -5.5 69.501 -6.5s47.167 -1.5 76.5 -1.5
c18.667 0 38.834 0.833008 60.501 2.5s45.5 3.83398 71.5 6.50098c-14.667 -70 -40.334 -133 -77.001 -189c-18 -29.333 -39.333 -57 -64 -83c-19.333 -20.667 -39.333 -39.667 -60 -57z" />
    <glyph glyph-name="uni1EDE" unicode="&#x1ede;" horiz-adv-x="1630" 
d="M1132 596c0 126.667 -17.333 236.169 -52 328.502s-85 167.166 -151 224.499c-47.333 40.667 -94.333 70.667 -141 90s-87.667 29 -123 29c-31.333 0 -56.5 -4.83301 -75.5 -14.5s-31.167 -22.834 -36.5 -39.501c-10 -24 -18.333 -50 -25 -78s-12.5 -64.167 -17.5 -108.5
s-7.5 -91.833 -7.5 -142.5c0 -170.667 34.167 -312 102.5 -424s160.5 -186.333 276.5 -223c30 -10 50.667 -16.333 62 -19c31.333 -9.33301 54.333 -14 69 -14c36 0 67 53.333 93 160c17.333 68 26 145 26 231zM1012 1883c4 -15.333 5.99902 -30 5.99902 -44
c0 -31.333 -8.5 -62.166 -25.5 -92.499s-42.5 -58.833 -76.5 -85.5c-4 -4 -11 -9 -21 -15c-6 -4 -24.333 -15 -55 -33c-5.33301 -3.33301 -9 -6 -11 -8c-4.66699 -4 -12 -11 -22 -21c-6.66699 -6.66699 -12.167 -13.5 -16.5 -20.5s-7.5 -14.5 -9.5 -22.5
c-18.667 13.333 -32 29.666 -40 48.999c-3.33301 7.33301 -6 15.333 -8 24s-3 17 -3 25c0 28 14.667 57.667 44 89l3 3l15 16c3.33301 4 8.5 11 15.5 21s12.167 17.667 15.5 23c6 11.333 9 23 9 35c0 16.667 -5.5 31.5 -16.5 44.5s-26.5 21.5 -46.5 25.5
c-3.33301 0.666992 -8.66602 1 -15.999 1c-19.333 0 -40 -5.33301 -62 -16s-44.333 -27 -67 -49l-13 -15c6 34 9 68.333 9 103c0 20.667 -1 41 -3 61c20.667 10 40.167 18 58.5 24s40 10.833 65 14.5s48.833 5.5 71.5 5.5c107.333 0 174 -47.333 200 -142zM1391 1253
c68 -81.333 117.667 -182.335 149 -303.002c20 -82 30 -161.667 30 -239c0 -210.667 -69.833 -384.5 -209.5 -521.5s-323.5 -205.5 -551.5 -205.5c-218.667 0 -398.334 68.833 -539.001 206.5s-211 319.167 -211 544.5c0 229.333 68.333 413 205 551s321 207 553 207
c188 0 344.333 -46.333 469 -139c6.66699 -5.33301 13.334 -11 20.001 -17c23.333 28.667 41.666 54.667 54.999 78c17.333 32 26 62 26 90c0 26 -7.33301 49.667 -22 71l-15 19c24.667 -3.33301 47.834 -5.5 69.501 -6.5s47.167 -1.5 76.5 -1.5
c18.667 0 38.834 0.833008 60.501 2.5s45.5 3.83398 71.5 6.50098c-14.667 -70 -40.334 -133 -77.001 -189c-18 -29.333 -39.333 -57.166 -64 -83.499s-50.667 -49.833 -78 -70.5h-18z" />
    <glyph glyph-name="uni1EDF" unicode="&#x1edf;" horiz-adv-x="1204" 
d="M780 244l0.00195312 95.998l-2 51c-8 84.667 -24 156.667 -48 216s-55.667 109.666 -95 150.999c-48 47.333 -83.333 73.5 -106 78.5s-37.334 7.5 -44.001 7.5h-18c-24.667 0 -40.834 -9.66699 -48.501 -29s-11.5 -63.666 -11.5 -132.999l2 -47
c0 -80.667 15 -155 45 -223c26 -60 62.333 -110.667 109 -152c20.667 -19.333 39.5 -34.666 56.5 -45.999s33 -20.166 48 -26.499s31.5 -9.5 49.5 -9.5c35.333 0 56.333 22 63 66zM792.002 1361c4 -12.667 5.99902 -24.666 5.99902 -35.999
c0 -25.333 -8.5 -50.333 -25.5 -75s-42.833 -48 -77.5 -70c-4 -3.33301 -11 -7.33301 -21 -12c-6 -3.33301 -24.333 -12.333 -55 -27c-5.33301 -2.66699 -9 -4.66699 -11 -6c-4.66699 -3.33301 -12 -9 -22 -17c-6.66699 -5.33301 -12 -10.833 -16 -16.5
s-7 -11.834 -9 -18.501c-18.667 10.667 -32 24 -40 40c-3.33301 5.33301 -6 11.666 -8 18.999s-3 14 -3 20c0 22.667 14.667 46.667 44 72l3 3l14 14c3.33301 3.33301 8.5 9 15.5 17l15.5 18c6 9.33301 9 19 9 29c0 13.333 -5.5 25.333 -16.5 36
s-26.167 17.334 -45.5 20.001c-3.33301 0.666992 -8.66602 1 -15.999 1c-19.333 0 -40 -4.33301 -62 -13s-44.333 -21.667 -67 -39l-13 -13c6 28 9 56 9 84c0 16.667 -1 33 -3 49c20.667 8 40.167 14.5 58.5 19.5s40 9 65 12s48.5 4.5 70.5 4.5c108 0 175 -38.333 201 -115z
M1096 789.999c39.333 -71.333 58.998 -153.667 58.998 -247c0 -52 -7 -104.667 -21 -158c-26 -106.667 -76.5 -194.834 -151.5 -264.501s-162.167 -111.834 -261.5 -126.501c-52 -8 -101.333 -12 -148 -12c-159.333 0 -286.166 42.333 -380.499 127
s-141.5 196.334 -141.5 335.001c0 63.333 6.5 120.833 19.5 172.5s35.167 103.5 66.5 155.5c109.333 176 281.333 264 516 264c142.667 0 261 -44.667 355 -134c8.66699 12.667 16 24.667 22 36c17.333 32 26 62 26 90c0 26 -7.33301 49.667 -22 71l-15 19
c24.667 -3.33301 47.834 -5.5 69.501 -6.5s47.167 -1.5 76.5 -1.5c18.667 0 38.834 0.833008 60.501 2.5s45.5 3.83398 71.5 6.50098c-14.667 -70 -40.334 -133 -77.001 -189c-18 -29.333 -39.333 -57 -64 -83c-19.333 -20.667 -39.333 -39.667 -60 -57z" />
    <glyph glyph-name="uni1EE0" unicode="&#x1ee0;" horiz-adv-x="1630" 
d="M1165 1851c5.33301 -24 8.00098 -43 8.00098 -57c0 -58.667 -21.5 -108.834 -64.5 -150.501s-95.833 -62.5 -158.5 -62.5c-12.667 1.33301 -21.667 2 -27 2l-55 8l-21 4l-65 13l-57 12l-11 2c-10.667 2.66699 -18 4 -22 4c-26 0 -36.333 -12.333 -31 -37h-196
c-3.33301 19.333 -5 34.333 -5 45c0 15.333 2.33301 31 7 47c25.333 120.667 101.666 181 228.999 181c10.667 0 22.167 -1.16699 34.5 -3.5s24.833 -4.16602 37.5 -5.49902l77 -16l9 -2l82 -14l22 -2c18 5.33301 23.333 16 16 32h191zM1132 596
c0 126.667 -17.333 236.169 -52 328.502s-85 167.166 -151 224.499c-47.333 40.667 -94.333 70.667 -141 90s-87.667 29 -123 29c-31.333 0 -56.5 -4.83301 -75.5 -14.5s-31.167 -22.834 -36.5 -39.501c-10 -24 -18.333 -50 -25 -78s-12.5 -64.167 -17.5 -108.5
s-7.5 -91.833 -7.5 -142.5c0 -170.667 34.167 -312 102.5 -424s160.5 -186.333 276.5 -223c30 -10 50.667 -16.333 62 -19c31.333 -9.33301 54.333 -14 69 -14c36 0 67 53.333 93 160c17.333 68 26 145 26 231zM1391 1253c68 -81.333 117.667 -182.335 149 -303.002
c20 -82 30 -161.667 30 -239c0 -210.667 -69.833 -384.5 -209.5 -521.5s-323.5 -205.5 -551.5 -205.5c-218.667 0 -398.334 68.833 -539.001 206.5s-211 319.167 -211 544.5c0 229.333 68.333 413 205 551s321 207 553 207c188 0 344.333 -46.333 469 -139
c6.66699 -5.33301 13.334 -11 20.001 -17c23.333 28.667 41.666 54.667 54.999 78c17.333 32 26 62 26 90c0 26 -7.33301 49.667 -22 71l-15 19c24.667 -3.33301 47.834 -5.5 69.501 -6.5s47.167 -1.5 76.5 -1.5c18.667 0 38.834 0.833008 60.501 2.5
s45.5 3.83398 71.5 6.50098c-14.667 -70 -40.334 -133 -77.001 -189c-18 -29.333 -39.333 -57.166 -64 -83.499s-50.667 -49.833 -78 -70.5h-18z" />
    <glyph glyph-name="uni1EE1" unicode="&#x1ee1;" horiz-adv-x="1204" 
d="M952 1395c5.33301 -24.667 8 -44 8 -58c0 -58.667 -21.5 -108.834 -64.5 -150.501s-95.833 -62.5 -158.5 -62.5c-12 1.33301 -21 2 -27 2l-55 9l-20 4l-66 12l-57 12l-10 2c-11.333 2.66699 -19 4 -23 4c-26 0 -36.333 -12 -31 -36h-196c-2.66699 18.667 -4 33.667 -4 45
c0 14.667 2 30.334 6 47.001c26 120 102.333 180 229 180c11.333 0 23 -1 35 -3s24.333 -3.66699 37 -5l78 -17l8 -2l82 -14l22 -2c18 5.33301 23.667 16.333 17 33h190zM780 244l0.00195312 95.998l-2 51c-8 84.667 -24 156.667 -48 216s-55.667 109.666 -95 150.999
c-48 47.333 -83.333 73.5 -106 78.5s-37.334 7.5 -44.001 7.5h-18c-24.667 0 -40.834 -9.66699 -48.501 -29s-11.5 -63.666 -11.5 -132.999l2 -47c0 -80.667 15 -155 45 -223c26 -60 62.333 -110.667 109 -152c20.667 -19.333 39.5 -34.666 56.5 -45.999
s33 -20.166 48 -26.499s31.5 -9.5 49.5 -9.5c35.333 0 56.333 22 63 66zM1096 789.998c39.333 -71.333 58.998 -153.667 58.998 -247c0 -52 -7 -104.667 -21 -158c-26 -106.667 -76.5 -194.834 -151.5 -264.501s-162.167 -111.834 -261.5 -126.501
c-52 -8 -101.333 -12 -148 -12c-159.333 0 -286.166 42.333 -380.499 127s-141.5 196.334 -141.5 335.001c0 63.333 6.5 120.833 19.5 172.5s35.167 103.5 66.5 155.5c109.333 176 281.333 264 516 264c142.667 0 261 -44.667 355 -134c8.66699 12.667 16 24.667 22 36
c17.333 32 26 62 26 90c0 26 -7.33301 49.667 -22 71l-15 19c24.667 -3.33301 47.834 -5.5 69.501 -6.5s47.167 -1.5 76.5 -1.5c18.667 0 38.834 0.833008 60.501 2.5s45.5 3.83398 71.5 6.50098c-14.667 -70 -40.334 -133 -77.001 -189c-18 -29.333 -39.333 -57 -64 -83
c-19.333 -20.667 -39.333 -39.667 -60 -57z" />
    <glyph glyph-name="uni1EE2" unicode="&#x1ee2;" horiz-adv-x="1630" 
d="M1132 596c0 126.667 -17.333 236.169 -52 328.502s-85 167.166 -151 224.499c-47.333 40.667 -94.333 70.667 -141 90s-87.667 29 -123 29c-31.333 0 -56.5 -4.83301 -75.5 -14.5s-31.167 -22.834 -36.5 -39.501c-10 -24 -18.333 -50 -25 -78s-12.5 -64.167 -17.5 -108.5
s-7.5 -91.833 -7.5 -142.5c0 -170.667 34.167 -312 102.5 -424s160.5 -186.333 276.5 -223c30 -10 50.667 -16.333 62 -19c31.333 -9.33301 54.333 -14 69 -14c36 0 67 53.333 93 160c17.333 68 26 145 26 231zM918 -326.998c-27.333 -30 -60.667 -45.001 -100 -45.001
c-41.333 0 -76.333 14.333 -105 43s-43 63.334 -43 104.001c0 38 14.333 70.667 43 98s63 41 103 41c39.333 0 73 -14 101 -42s42 -61.667 42 -101c0 -38 -13.667 -70.667 -41 -98zM1391 1253c68 -81.333 117.667 -182.335 149 -303.002c20 -82 30 -161.667 30 -239
c0 -210.667 -69.833 -384.5 -209.5 -521.5s-323.5 -205.5 -551.5 -205.5c-218.667 0 -398.334 68.833 -539.001 206.5s-211 319.167 -211 544.5c0 229.333 68.333 413 205 551s321 207 553 207c188 0 344.333 -46.333 469 -139c6.66699 -5.33301 13.334 -11 20.001 -17
c23.333 28.667 41.666 54.667 54.999 78c17.333 32 26 62 26 90c0 26 -7.33301 49.667 -22 71l-15 19c24.667 -3.33301 47.834 -5.5 69.501 -6.5s47.167 -1.5 76.5 -1.5c18.667 0 38.834 0.833008 60.501 2.5s45.5 3.83398 71.5 6.50098
c-14.667 -70 -40.334 -133 -77.001 -189c-18 -29.333 -39.333 -57.166 -64 -83.499s-50.667 -49.833 -78 -70.5h-18z" />
    <glyph glyph-name="uni1EE3" unicode="&#x1ee3;" horiz-adv-x="1204" 
d="M780 244l0.00195312 95.998l-2 51c-8 84.667 -24 156.667 -48 216s-55.667 109.666 -95 150.999c-48 47.333 -83.333 73.5 -106 78.5s-37.334 7.5 -44.001 7.5h-18c-24.667 0 -40.834 -9.66699 -48.501 -29s-11.5 -63.666 -11.5 -132.999l2 -47
c0 -80.667 15 -155 45 -223c26 -60 62.333 -110.667 109 -152c20.667 -19.333 39.5 -34.666 56.5 -45.999s33 -20.166 48 -26.499s31.5 -9.5 49.5 -9.5c35.333 0 56.333 22 63 66zM706.002 -327.002c-27.333 -30 -60.666 -45.001 -99.999 -45.001
c-40.667 0 -75.334 14.333 -104.001 43s-43 63.334 -43 104.001c0 38 14.333 70.667 43 98s62.667 41 102 41s73 -14 101 -42s42 -61.667 42 -101c0 -38 -13.667 -70.667 -41 -98zM1096 789.997c39.333 -71.333 58.998 -153.667 58.998 -247c0 -52 -7 -104.667 -21 -158
c-26 -106.667 -76.5 -194.834 -151.5 -264.501s-162.167 -111.834 -261.5 -126.501c-52 -8 -101.333 -12 -148 -12c-159.333 0 -286.166 42.333 -380.499 127s-141.5 196.334 -141.5 335.001c0 63.333 6.5 120.833 19.5 172.5s35.167 103.5 66.5 155.5
c109.333 176 281.333 264 516 264c142.667 0 261 -44.667 355 -134c8.66699 12.667 16 24.667 22 36c17.333 32 26 62 26 90c0 26 -7.33301 49.667 -22 71l-15 19c24.667 -3.33301 47.834 -5.5 69.501 -6.5s47.167 -1.5 76.5 -1.5c18.667 0 38.834 0.833008 60.501 2.5
s45.5 3.83398 71.5 6.50098c-14.667 -70 -40.334 -133 -77.001 -189c-18 -29.333 -39.333 -57 -64 -83c-19.333 -20.667 -39.333 -39.667 -60 -57z" />
    <glyph glyph-name="uni1EE4" unicode="&#x1ee4;" horiz-adv-x="1413" 
d="M1367 0l-512.001 -0.000976562c5.33301 15.333 9.33301 30.833 12 46.5s4 32.167 4 49.5c-68 -61.333 -147 -97.333 -237 -108c-16.667 -1.33301 -31.167 -2.33301 -43.5 -3s-22.5 -1 -30.5 -1c-136.667 0 -244.834 46 -324.501 138s-119.5 220.667 -119.5 386v754
c0 86 -25.333 157 -76 213h588c-18 -26 -31.667 -52 -41 -78c-19.333 -49.333 -29 -93.666 -29 -132.999v-822l2 -43c14 -99.333 59 -149 135 -149c8.66699 0 21.834 1.33301 39.501 4s37.334 9.16699 59.001 19.5s36.667 18.833 45 25.5s12.5 12.667 12.5 18v945
c0 84.667 -24.667 155.667 -74 213h586l-20 -35c-33.333 -61.333 -50 -120.666 -50 -177.999v-1041c0 -42 10.333 -89 31 -141c10.667 -28.667 25 -55.334 43 -80.001zM806.999 -327.001c-27.333 -30 -60.667 -45.001 -100 -45.001c-41.333 0 -76.333 14.333 -105 43
s-43 63.334 -43 104.001c0 38 14.333 70.667 43 98s63 41 103 41c39.333 0 73 -14 101 -42s42 -61.667 42 -101c0 -38 -13.667 -70.667 -41 -98z" />
    <glyph glyph-name="uni1EE5" unicode="&#x1ee5;" horiz-adv-x="1126" 
d="M1093 0l-447.001 0.00195312v150l-26 -35l-27 -35l-67 -80c-18 -4 -36.5 -7.33301 -55.5 -10s-37.5 -4 -55.5 -4c-57.333 0 -105.5 4.66699 -144.5 14s-72.833 26.333 -101.5 51c-47.333 41.333 -73.333 85.666 -78 132.999v9v43l4 120v467c0 82 -21 147 -63 195h502
l-13 -23c-28.667 -60 -43 -117.333 -43 -172v-551c0 -34 4.83301 -57.833 14.5 -71.5s26.834 -20.5 51.501 -20.5c44 0 72 6.16699 84 18.5s18 40.5 18 84.5v540c0 82 -19.667 147 -59 195h504l-25 -49c-13.333 -27.333 -22.833 -53 -28.5 -77s-8.5 -47 -8.5 -69v-604
c0 -58.667 4.83301 -103.334 14.5 -134.001s26.167 -59 49.5 -85zM660.999 -326.998c-27.333 -30 -60.999 -45.001 -100.999 -45.001c-40.667 0 -75.334 14.333 -104.001 43s-43 63.334 -43 104.001c0 38 14.333 70.667 43 98s62.667 41 102 41c40 0 74 -14 102 -42
s42 -61.667 42 -101c0 -38 -13.667 -70.667 -41 -98z" />
    <glyph glyph-name="uni1EE6" unicode="&#x1ee6;" horiz-adv-x="1413" 
d="M1367 0l-512.001 -0.000976562c5.33301 15.333 9.33301 30.833 12 46.5s4 32.167 4 49.5c-68 -61.333 -147 -97.333 -237 -108c-16.667 -1.33301 -31.167 -2.33301 -43.5 -3s-22.5 -1 -30.5 -1c-136.667 0 -244.834 46 -324.501 138s-119.5 220.667 -119.5 386v754
c0 86 -25.333 157 -76 213h588c-18 -26 -31.667 -52 -41 -78c-19.333 -49.333 -29 -93.666 -29 -132.999v-822l2 -43c14 -99.333 59 -149 135 -149c8.66699 0 21.834 1.33301 39.501 4s37.334 9.16699 59.001 19.5s36.667 18.833 45 25.5s12.5 12.667 12.5 18v945
c0 84.667 -24.667 155.667 -74 213h586l-20 -35c-33.333 -61.333 -50 -120.666 -50 -177.999v-1041c0 -42 10.333 -89 31 -141c10.667 -28.667 25 -55.334 43 -80.001zM945.999 1883c4 -15.333 5.99902 -30 5.99902 -44c0 -31.333 -8.5 -62.166 -25.5 -92.499
s-42.5 -58.833 -76.5 -85.5c-4 -4 -11 -9 -21 -15c-6 -4 -24.333 -15 -55 -33c-5.33301 -3.33301 -9 -6 -11 -8c-4.66699 -4 -12 -11 -22 -21c-6.66699 -6.66699 -12.167 -13.5 -16.5 -20.5s-7.5 -14.5 -9.5 -22.5c-18.667 13.333 -32 29.666 -40 48.999
c-3.33301 7.33301 -6 15.333 -8 24s-3 17 -3 25c0 28 14.667 57.667 44 89l3 3l15 16c3.33301 4 8.5 11 15.5 21s12.167 17.667 15.5 23c6 11.333 9 23 9 35c0 16.667 -5.5 31.5 -16.5 44.5s-26.5 21.5 -46.5 25.5c-3.33301 0.666992 -8.66602 1 -15.999 1
c-19.333 0 -40 -5.33301 -62 -16s-44.333 -27 -67 -49l-13 -15c6 34 9 68.333 9 103c0 20.667 -1 41 -3 61c20.667 10 40.167 18 58.5 24s40 10.833 65 14.5s48.833 5.5 71.5 5.5c107.333 0 174 -47.333 200 -142z" />
    <glyph glyph-name="uni1EE7" unicode="&#x1ee7;" horiz-adv-x="1126" 
d="M1093 0l-447.001 0.00195312v150l-26 -35l-27 -35l-67 -80c-18 -4 -36.5 -7.33301 -55.5 -10s-37.5 -4 -55.5 -4c-57.333 0 -105.5 4.66699 -144.5 14s-72.833 26.333 -101.5 51c-47.333 41.333 -73.333 85.666 -78 132.999v9v43l4 120v467c0 82 -21 147 -63 195h502
l-13 -23c-28.667 -60 -43 -117.333 -43 -172v-551c0 -34 4.83301 -57.833 14.5 -71.5s26.834 -20.5 51.501 -20.5c44 0 72 6.16699 84 18.5s18 40.5 18 84.5v540c0 82 -19.667 147 -59 195h504l-25 -49c-13.333 -27.333 -22.833 -53 -28.5 -77s-8.5 -47 -8.5 -69v-604
c0 -58.667 4.83301 -103.334 14.5 -134.001s26.167 -59 49.5 -85zM790.999 1361c4 -12.667 5.99902 -24.666 5.99902 -35.999c0 -25.333 -8.5 -50.333 -25.5 -75s-42.5 -48 -76.5 -70c-4 -3.33301 -11 -7.33301 -21 -12c-6 -3.33301 -24.333 -12.333 -55 -27
c-5.33301 -2.66699 -9 -4.66699 -11 -6c-4.66699 -3.33301 -12 -9 -22 -17c-6.66699 -5.33301 -12.167 -10.833 -16.5 -16.5s-7.5 -11.834 -9.5 -18.501c-18.667 10.667 -32 24 -40 40c-3.33301 5.33301 -6 11.666 -8 18.999s-3 14 -3 20c0 22.667 14.667 46.667 44 72l3 3
l15 14c3.33301 3.33301 8.5 9 15.5 17l15.5 18c6 9.33301 9 19 9 29c0 13.333 -5.5 25.333 -16.5 36s-26.5 17.334 -46.5 20.001c-3.33301 0.666992 -8.66602 1 -15.999 1c-19.333 0 -40 -4.33301 -62 -13s-44.333 -21.667 -67 -39l-13 -13c6 28 9 56 9 84
c0 16.667 -1 33 -3 49c20.667 8 40.167 14.5 58.5 19.5s40 9 65 12s48.833 4.5 71.5 4.5c107.333 0 174 -38.333 200 -115z" />
    </font>
</defs>
</svg>
